# SSTK version 0.8.0
# 1
mtllib original-1.mtl
o Component_1_1/Component_1/mesh1/mesh1-geometry#mesh1-geometry
v -0.419152 0.668311 -0.013537
v -0.419152 0.678816 -0.013537
v -0.419152 0.673563 -0.014229
v -0.419152 0.663417 -0.011510
v 0.491143 0.673563 -0.014229
v 0.491143 0.668311 -0.013537
v 0.491143 0.663417 -0.011510
v -0.419152 0.683710 -0.011510
v 0.491143 0.678816 -0.013537
v 0.491143 0.659214 -0.008285
v -0.419152 0.659214 -0.008285
v 0.491143 0.683710 -0.011510
v 0.491143 0.687913 -0.008285
v -0.419152 0.687913 -0.008285
v -0.419152 0.655988 -0.004082
v 0.491143 0.691138 -0.004082
v 0.491143 0.655988 -0.004082
v -0.419152 0.691138 -0.004082
v -0.419152 0.653961 0.000812
v 0.491143 0.693166 0.000812
v 0.491143 0.653961 0.000812
v -0.419152 0.693166 0.000812
v -0.419152 0.653270 0.006065
v 0.491143 0.693857 0.006065
v 0.491143 0.653270 0.006065
v -0.419152 0.693857 0.006065
v -0.419152 0.653961 0.011317
v 0.491143 0.693166 0.011317
v 0.491143 0.653961 0.011317
v -0.419152 0.693166 0.011317
v -0.419152 0.655988 0.016212
v 0.491143 0.691138 0.016212
v 0.491143 0.655988 0.016212
v -0.419152 0.691138 0.016212
v -0.419152 0.659214 0.020415
v 0.491143 0.687913 0.020415
v 0.491143 0.659214 0.020415
v -0.419152 0.687913 0.020415
v -0.419152 0.663417 0.023640
v 0.491143 0.683710 0.023640
v 0.491143 0.663417 0.023640
v -0.419152 0.683710 0.023640
v -0.419152 0.668311 0.025667
v 0.491143 0.678816 0.025667
v 0.491143 0.668311 0.025667
v -0.419152 0.678816 0.025667
v -0.419152 0.673563 0.026359
v 0.491143 0.673563 0.026359
vn -1 0 0
vn 0 0.25881895959357565 -0.965925849201117
vn 0 0 -1
vn 0 -0.25881895959357526 -0.9659258492011171
vn 0 -0.5000001748438415 -0.8660253028382762
vn 0 -0.7071067811865475 -0.7071067811865477
vn 0 0.500000174843842 -0.866025302838276
vn 1 0 0
vn 0 -0.866025302838276 -0.500000174843842
vn 0 0.7071067811865477 -0.7071067811865475
vn 0 0.8660253028382762 -0.5000001748438415
vn 0 -0.965925849201117 -0.25881895959357565
vn 0 0.9659258492011171 -0.25881895959357526
vn 0 -1 0
vn 0 1 0
vn 0 -0.9659258492011171 0.25881895959357526
vn 0 0.965925849201117 0.25881895959357565
vn 0 -0.8660253028382762 0.5000001748438415
vn 0 0.866025302838276 0.500000174843842
vn 0 -0.7071067811865477 0.7071067811865475
vn 0 0.7071067811865475 0.7071067811865477
vn 0 -0.500000174843842 0.866025302838276
vn 0 0.5000001748438415 0.8660253028382762
vn 0 -0.25881895959357565 0.965925849201117
vn 0 0.25881895959357526 0.9659258492011171
vn 0 0 1
usemtl material_0_0
f 1//1 2//1 3//1
f 2//1 1//1 4//1
f 2//2 5//3 3//3
f 3//3 6//4 1//4
f 1//4 7//5 4//5
f 2//1 4//1 8//1
f 5//3 2//2 9//2
f 6//4 3//3 5//3
f 7//5 1//4 6//4
f 10//6 4//5 7//5
f 8//1 4//1 11//1
f 8//7 9//2 2//2
f 9//8 6//8 5//8
f 6//8 12//8 7//8
f 4//5 10//6 11//6
f 7//8 13//8 10//8
f 8//1 11//1 14//1
f 9//2 8//7 12//7
f 6//8 9//8 12//8
f 7//8 12//8 13//8
f 10//6 15//9 11//6
f 10//8 13//8 16//8
f 14//1 11//1 15//1
f 14//10 12//7 8//7
f 12//7 14//10 13//10
f 15//9 10//6 17//9
f 14//10 16//11 13//10
f 10//8 16//8 17//8
f 14//1 15//1 18//1
f 17//9 19//12 15//9
f 16//11 14//10 18//11
f 17//8 16//8 20//8
f 18//1 15//1 19//1
f 19//12 17//9 21//12
f 18//11 20//13 16//11
f 17//8 20//8 21//8
f 18//1 19//1 22//1
f 21//12 23//14 19//12
f 20//13 18//11 22//13
f 21//8 20//8 24//8
f 22//1 19//1 23//1
f 23//14 21//12 25//14
f 22//13 24//15 20//13
f 21//8 24//8 25//8
f 22//1 23//1 26//1
f 25//14 27//16 23//14
f 24//15 22//13 26//15
f 25//8 24//8 28//8
f 26//1 23//1 27//1
f 27//16 25//14 29//16
f 26//15 28//17 24//15
f 25//8 28//8 29//8
f 26//1 27//1 30//1
f 29//16 31//18 27//16
f 28//17 26//15 30//17
f 29//8 28//8 32//8
f 30//1 27//1 31//1
f 31//18 29//16 33//18
f 30//17 32//19 28//17
f 29//8 32//8 33//8
f 30//1 31//1 34//1
f 33//18 35//20 31//18
f 32//19 30//17 34//19
f 33//8 32//8 36//8
f 34//1 31//1 35//1
f 35//20 33//18 37//20
f 34//19 36//21 32//19
f 33//8 36//8 37//8
f 34//1 35//1 38//1
f 37//20 39//22 35//20
f 36//21 34//19 38//21
f 37//8 36//8 40//8
f 38//1 35//1 39//1
f 39//22 37//20 41//22
f 38//21 40//23 36//21
f 37//8 40//8 41//8
f 38//1 39//1 42//1
f 41//22 43//24 39//22
f 40//23 38//21 42//23
f 41//8 40//8 44//8
f 42//1 39//1 43//1
f 43//24 41//22 45//24
f 42//23 44//25 40//23
f 41//8 44//8 45//8
f 42//1 43//1 46//1
f 45//24 47//26 43//24
f 44//25 42//23 46//25
f 45//8 44//8 48//8
f 46//1 43//1 47//1
f 47//26 45//24 48//26
f 46//25 48//26 44//25
f 48//26 46//25 47//26
usemtl material_1_0
f 3//8 2//8 1//8
f 4//8 1//8 2//8
f 3//26 5//26 2//24
f 1//25 6//25 3//26
f 4//23 7//23 1//25
f 8//8 4//8 2//8
f 9//24 2//24 5//26
f 5//26 3//26 6//25
f 6//25 1//25 7//23
f 7//23 4//23 10//21
f 11//8 4//8 8//8
f 2//24 9//24 8//22
f 5//1 6//1 9//1
f 7//1 12//1 6//1
f 11//21 10//21 4//23
f 10//1 13//1 7//1
f 14//8 11//8 8//8
f 12//22 8//22 9//24
f 12//1 9//1 6//1
f 13//1 12//1 7//1
f 11//21 15//19 10//21
f 16//1 13//1 10//1
f 15//8 11//8 14//8
f 8//22 12//22 14//20
f 13//20 14//20 12//22
f 17//19 10//21 15//19
f 13//20 16//18 14//20
f 17//1 16//1 10//1
f 18//8 15//8 14//8
f 15//19 19//17 17//19
f 18//18 14//20 16//18
f 20//1 16//1 17//1
f 19//8 15//8 18//8
f 21//17 17//19 19//17
f 16//18 20//16 18//18
f 21//1 20//1 17//1
f 22//8 19//8 18//8
f 19//17 23//15 21//17
f 22//16 18//18 20//16
f 24//1 20//1 21//1
f 23//8 19//8 22//8
f 25//15 21//17 23//15
f 20//16 24//14 22//16
f 25//1 24//1 21//1
f 26//8 23//8 22//8
f 23//15 27//13 25//15
f 26//14 22//16 24//14
f 28//1 24//1 25//1
f 27//8 23//8 26//8
f 29//13 25//15 27//13
f 24//14 28//12 26//14
f 29//1 28//1 25//1
f 30//8 27//8 26//8
f 27//13 31//11 29//13
f 30//12 26//14 28//12
f 32//1 28//1 29//1
f 31//8 27//8 30//8
f 33//11 29//13 31//11
f 28//12 32//9 30//12
f 33//1 32//1 29//1
f 34//8 31//8 30//8
f 31//11 35//10 33//11
f 34//9 30//12 32//9
f 36//1 32//1 33//1
f 35//8 31//8 34//8
f 37//10 33//11 35//10
f 32//9 36//6 34//9
f 37//1 36//1 33//1
f 38//8 35//8 34//8
f 35//10 39//7 37//10
f 38//6 34//9 36//6
f 40//1 36//1 37//1
f 39//8 35//8 38//8
f 41//7 37//10 39//7
f 36//6 40//5 38//6
f 41//1 40//1 37//1
f 42//8 39//8 38//8
f 39//7 43//2 41//7
f 42//5 38//6 40//5
f 44//1 40//1 41//1
f 43//8 39//8 42//8
f 45//2 41//7 43//2
f 40//5 44//4 42//5
f 45//1 44//1 41//1
f 46//8 43//8 42//8
f 43//2 47//3 45//2
f 46//4 42//5 44//4
f 48//1 44//1 45//1
f 47//8 43//8 46//8
f 48//3 45//2 47//3
f 44//4 48//3 46//4
f 47//3 46//4 48//3
