# SSTK version 0.8.0
# 7
mtllib original-7.mtl
o #ID62
v -0.308609 0.085737 0.496504
v -0.351842 0.041284 0.514963
v -0.306090 0.047307 0.496504
v -0.354756 0.085737 0.514963
v -0.351842 0.130190 0.514963
v -0.306090 0.124167 0.496504
v -0.343151 -0.002408 0.514963
v -0.298576 0.009535 0.496504
v -0.308609 0.085737 0.478045
v -0.306090 0.047307 0.496504
v -0.306090 0.047307 0.478045
v -0.308609 0.085737 0.496504
v -0.343151 0.173883 0.514963
v -0.298576 0.161939 0.496504
v -0.306090 0.124167 0.478045
v -0.306090 0.124167 0.496504
v -0.328832 -0.044593 0.514963
v -0.286197 -0.026933 0.496504
v -0.298576 0.009535 0.496504
v -0.298576 0.009535 0.478045
v -0.328832 0.216067 0.514963
v -0.286197 0.198407 0.496504
v -0.298576 0.161939 0.478045
v -0.298576 0.161939 0.496504
v -0.309129 -0.084547 0.514963
v -0.269164 -0.061473 0.496504
v -0.286197 -0.026933 0.496504
v -0.286197 -0.026933 0.478045
v -0.309129 0.256021 0.514963
v -0.269164 0.232947 0.496504
v -0.286197 0.198407 0.478045
v -0.286197 0.198407 0.496504
v -0.284379 -0.121587 0.514963
v -0.247768 -0.093495 0.496504
v -0.269164 -0.061473 0.496504
v -0.269164 -0.061473 0.478045
v -0.284379 0.293062 0.514963
v -0.247768 0.264969 0.496504
v -0.269164 0.232947 0.478045
v -0.269164 0.232947 0.496504
v -0.255006 -0.155081 0.514963
v -0.222375 -0.122450 0.496504
v -0.247768 -0.093495 0.496504
v -0.247768 -0.093495 0.478045
v -0.255006 0.326555 0.514963
v -0.222375 0.293924 0.496504
v -0.247768 0.264969 0.478045
v -0.247768 0.264969 0.496504
v -0.221513 -0.184453 0.514963
v -0.193420 -0.147842 0.496504
v -0.222375 -0.122450 0.496504
v -0.222375 -0.122450 0.478045
v -0.221513 0.355928 0.514963
v -0.193420 0.319317 0.496504
v -0.222375 0.293924 0.478045
v -0.222375 0.293924 0.496504
v -0.184472 -0.209203 0.514963
v -0.161399 -0.169238 0.496504
v -0.193420 -0.147842 0.478045
v -0.193420 -0.147842 0.496504
v -0.184472 0.380677 0.514963
v -0.161399 0.340712 0.496504
v -0.193420 0.319317 0.496504
v -0.193420 0.319317 0.478045
v -0.144518 -0.228907 0.514963
v -0.126858 -0.186272 0.496504
v -0.161399 -0.169238 0.478045
v -0.161399 -0.169238 0.496504
v -0.144518 0.400381 0.514963
v -0.126858 0.357746 0.496504
v -0.161399 0.340712 0.496504
v -0.161399 0.340712 0.478045
v -0.102334 -0.243226 0.514963
v -0.090390 -0.198651 0.496504
v -0.126858 -0.186272 0.478045
v -0.126858 -0.186272 0.496504
v -0.102334 0.414700 0.514963
v -0.090390 0.370125 0.496504
v -0.126858 0.357746 0.496504
v -0.126858 0.357746 0.478045
v -0.058641 -0.251917 0.514963
v -0.052618 -0.206165 0.496504
v -0.090390 -0.198651 0.478045
v -0.090390 -0.198651 0.496504
v -0.058641 0.423391 0.514963
v -0.052618 0.377639 0.496504
v -0.090390 0.370125 0.496504
v -0.090390 0.370125 0.478045
v -0.014188 -0.254831 0.514963
v -0.014188 -0.208683 0.496504
v -0.052618 -0.206165 0.478045
v -0.052618 -0.206165 0.496504
v -0.014188 0.380157 0.496504
v -0.014188 0.426305 0.514963
v -0.052618 0.377639 0.496504
v -0.052618 0.377639 0.478045
v 0.024241 -0.206165 0.496504
v 0.030265 -0.251917 0.514963
v -0.014188 -0.208683 0.478045
v -0.014188 -0.208683 0.496504
v 0.024241 0.377639 0.496504
v 0.030265 0.423391 0.514963
v -0.014188 0.380157 0.496504
v -0.014188 0.380157 0.478045
v 0.062013 -0.198651 0.496504
v 0.073957 -0.243226 0.514963
v 0.024241 -0.206165 0.478045
v 0.024241 -0.206165 0.496504
v 0.062013 0.370125 0.496504
v 0.073957 0.414700 0.514963
v 0.024241 0.377639 0.496504
v 0.024241 0.377639 0.478045
v 0.098482 -0.186272 0.496504
v 0.116141 -0.228907 0.514963
v 0.062013 -0.198651 0.478045
v 0.062013 -0.198651 0.496504
v 0.098482 0.357746 0.496504
v 0.116141 0.400381 0.514963
v 0.062013 0.370125 0.496504
v 0.062013 0.370125 0.478045
v 0.133022 -0.169238 0.496504
v 0.156096 -0.209203 0.514963
v 0.098482 -0.186272 0.478045
v 0.098482 -0.186272 0.496504
v 0.133022 0.340712 0.496504
v 0.156096 0.380677 0.514963
v 0.098482 0.357746 0.496504
v 0.098482 0.357746 0.478045
v 0.165043 -0.147842 0.496504
v 0.193136 -0.184453 0.514963
v 0.133022 -0.169238 0.478045
v 0.133022 -0.169238 0.496504
v 0.165043 0.319317 0.496504
v 0.193136 0.355928 0.514963
v 0.133022 0.340712 0.496504
v 0.133022 0.340712 0.478045
v 0.193998 -0.122450 0.496504
v 0.226630 -0.155081 0.514963
v 0.165043 -0.147842 0.478045
v 0.165043 -0.147842 0.496504
v 0.193998 0.293924 0.496504
v 0.226630 0.326555 0.514963
v 0.165043 0.319317 0.496504
v 0.165043 0.319317 0.478045
v 0.219391 -0.093495 0.496504
v 0.256002 -0.121587 0.514963
v 0.193998 -0.122450 0.478045
v 0.193998 -0.122450 0.496504
v 0.219391 0.264969 0.496504
v 0.256002 0.293062 0.514963
v 0.193998 0.293924 0.496504
v 0.193998 0.293924 0.478045
v 0.240787 -0.061473 0.496504
v 0.280752 -0.084547 0.514963
v 0.219391 -0.093495 0.496504
v 0.219391 -0.093495 0.478045
v 0.240787 0.232947 0.496504
v 0.280752 0.256021 0.514963
v 0.219391 0.264969 0.478045
v 0.219391 0.264969 0.496504
v 0.257821 -0.026933 0.496504
v 0.300455 -0.044593 0.514963
v 0.240787 -0.061473 0.496504
v 0.240787 -0.061473 0.478045
v 0.257821 0.198407 0.496504
v 0.300455 0.216067 0.514963
v 0.240787 0.232947 0.478045
v 0.240787 0.232947 0.496504
v 0.270200 0.009535 0.496504
v 0.314775 -0.002408 0.514963
v 0.257821 -0.026933 0.496504
v 0.257821 -0.026933 0.478045
v 0.270200 0.161939 0.496504
v 0.314775 0.173883 0.514963
v 0.257821 0.198407 0.478045
v 0.257821 0.198407 0.496504
v 0.277713 0.047307 0.496504
v 0.323466 0.041284 0.514963
v 0.270200 0.009535 0.496504
v 0.270200 0.009535 0.478045
v 0.277713 0.124167 0.496504
v 0.323466 0.130190 0.514963
v 0.270200 0.161939 0.478045
v 0.270200 0.161939 0.496504
v 0.280232 0.085737 0.496504
v 0.326380 0.085737 0.514963
v 0.277713 0.047307 0.496504
v 0.277713 0.047307 0.478045
v 0.277713 0.124167 0.478045
v 0.277713 0.124167 0.496504
v 0.280232 0.085737 0.496504
v 0.280232 0.085737 0.478045
vn 0.3713906935954827 0 0.9284766839887075
vn 0.3682133938658569 0.0484762091924248 0.9284766845323148
vn 0.3682133938658569 -0.0484762091924248 0.9284766845323148
vn 0.3587358028826914 0.09612298077241492 0.9284767074609555
vn 1 0 0
vn 0.9914448610250887 0.1305261948688555 0
vn 0.3587358028826914 -0.09612298077241492 0.9284767074609555
vn 0.9914448610250887 -0.1305261948688555 0
vn 0.3431202003189405 0.14212510013210955 0.928476700863047
vn 0.9659258358036645 0.25881900959356163 0
vn 0.3431202003189405 -0.14212510013210955 0.928476700863047
vn 0.9659258358036645 -0.25881900959356163 0
vn 0.3216337954669866 0.18569529738286433 0.928476686914319
vn 0.9238795391929066 0.38268341623423263 0
vn 0.3216337954669866 -0.18569529738286433 0.928476686914319
vn 0.9238795391929066 -0.38268341623423263 0
vn 0.294644001683039 0.22608830129144125 0.9284767053035612
vn 0.866025402838329 0.5000000016387101 0
vn 0.294644001683039 -0.22608830129144125 0.9284767053035612
vn 0.866025402838329 -0.5000000016387101 0
vn 0.2626128930492001 0.2626128930492001 0.9284766754252144
vn 0.7933533393698233 0.608761430209528 0
vn 0.2626128930492001 -0.2626128930492001 0.9284766754252144
vn 0.7933533393698233 -0.608761430209528 0
vn 0.22608830129144125 0.294644001683039 0.9284767053035612
vn 0.7071067811865476 0.7071067811865476 0
vn 0.22608830129144125 -0.294644001683039 0.9284767053035612
vn 0.7071067811865476 -0.7071067811865476 0
vn 0.18569529738286433 0.3216337954669866 0.928476686914319
vn 0.608761430209528 0.7933533393698233 0
vn 0.18569529738286433 -0.3216337954669866 0.928476686914319
vn 0.608761430209528 -0.7933533393698233 0
vn 0.14212510013210955 0.3431202003189405 0.928476700863047
vn 0.5000000016387101 0.866025402838329 0
vn 0.14212510013210955 -0.3431202003189405 0.928476700863047
vn 0.5000000016387101 -0.866025402838329 0
vn 0.09612298077241492 0.3587358028826914 0.9284767074609555
vn 0.38268341623423263 0.9238795391929066 0
vn 0.09612298077241492 -0.3587358028826914 0.9284767074609555
vn 0.38268341623423263 -0.9238795391929066 0
vn 0.0484762091924248 0.3682133938658569 0.9284766845323148
vn 0.25881900959356163 0.9659258358036645 0
vn 0.0484762091924248 -0.3682133938658569 0.9284766845323148
vn 0.25881900959356163 -0.9659258358036645 0
vn 0 0.3713906935954827 0.9284766839887075
vn 0.1305261948688555 0.9914448610250887 0
vn 0 -0.3713906935954827 0.9284766839887075
vn 0.1305261948688555 -0.9914448610250887 0
vn -0.0484762091924248 0.3682133938658569 0.9284766845323148
vn 0 1 0
vn -0.0484762091924248 -0.3682133938658569 0.9284766845323148
vn 0 -1 0
vn -0.09612298077241492 0.3587358028826914 0.9284767074609555
vn -0.1305261948688555 0.9914448610250887 0
vn -0.09612298077241492 -0.3587358028826914 0.9284767074609555
vn -0.1305261948688555 -0.9914448610250887 0
vn -0.14212510013210955 0.3431202003189405 0.928476700863047
vn -0.25881900959356163 0.9659258358036645 0
vn -0.14212510013210955 -0.3431202003189405 0.928476700863047
vn -0.25881900959356163 -0.9659258358036645 0
vn -0.18569529738286433 0.3216337954669866 0.928476686914319
vn -0.38268341623423263 0.9238795391929066 0
vn -0.18569529738286433 -0.3216337954669866 0.928476686914319
vn -0.38268341623423263 -0.9238795391929066 0
vn -0.22608830129144125 0.294644001683039 0.9284767053035612
vn -0.5000000016387101 0.866025402838329 0
vn -0.22608830129144125 -0.294644001683039 0.9284767053035612
vn -0.5000000016387101 -0.866025402838329 0
vn -0.2626128930492001 0.2626128930492001 0.9284766754252144
vn -0.608761430209528 0.7933533393698233 0
vn -0.2626128930492001 -0.2626128930492001 0.9284766754252144
vn -0.608761430209528 -0.7933533393698233 0
vn -0.294644001683039 0.22608830129144125 0.9284767053035612
vn -0.7071067811865476 0.7071067811865476 0
vn -0.294644001683039 -0.22608830129144125 0.9284767053035612
vn -0.7071067811865476 -0.7071067811865476 0
vn -0.3216337954669866 0.18569529738286433 0.928476686914319
vn -0.7933533393698233 0.608761430209528 0
vn -0.3216337954669866 -0.18569529738286433 0.928476686914319
vn -0.7933533393698233 -0.608761430209528 0
vn -0.3431202003189405 0.14212510013210955 0.928476700863047
vn -0.866025402838329 0.5000000016387101 0
vn -0.3431202003189405 -0.14212510013210955 0.928476700863047
vn -0.866025402838329 -0.5000000016387101 0
vn -0.3587358028826914 0.09612298077241492 0.9284767074609555
vn -0.9238795391929066 0.38268341623423263 0
vn -0.3587358028826914 -0.09612298077241492 0.9284767074609555
vn -0.9238795391929066 -0.38268341623423263 0
vn -0.3682133938658569 0.0484762091924248 0.9284766845323148
vn -0.9659258358036645 0.25881900959356163 0
vn -0.3682133938658569 -0.0484762091924248 0.9284766845323148
vn -0.9659258358036645 -0.25881900959356163 0
vn -0.3713906935954827 0 0.9284766839887075
vn -0.9914448610250887 0.1305261948688555 0
vn -0.9914448610250887 -0.1305261948688555 0
vn -1 0 0
usemtl material_0_0
f 1//1 2//2 3//2
f 2//2 1//1 4//1
f 5//3 1//1 6//3
f 1//1 5//3 4//1
f 3//2 7//4 8//4
f 7//4 3//2 2//2
f 9//5 10//6 11//6
f 10//6 9//5 12//5
f 13//7 6//3 14//7
f 6//3 13//7 5//3
f 15//8 12//5 9//5
f 12//5 15//8 16//8
f 8//4 17//9 18//9
f 17//9 8//4 7//4
f 11//6 19//10 20//10
f 19//10 11//6 10//6
f 21//11 14//7 22//11
f 14//7 21//11 13//7
f 23//12 16//8 15//8
f 16//8 23//12 24//12
f 18//9 25//13 26//13
f 25//13 18//9 17//9
f 20//10 27//14 28//14
f 27//14 20//10 19//10
f 29//15 22//11 30//15
f 22//11 29//15 21//11
f 31//16 24//12 23//12
f 24//12 31//16 32//16
f 26//13 33//17 34//17
f 33//17 26//13 25//13
f 28//14 35//18 36//18
f 35//18 28//14 27//14
f 37//19 30//15 38//19
f 30//15 37//19 29//15
f 39//20 32//16 31//16
f 32//16 39//20 40//20
f 34//17 41//21 42//21
f 41//21 34//17 33//17
f 36//18 43//22 44//22
f 43//22 36//18 35//18
f 45//23 38//19 46//23
f 38//19 45//23 37//19
f 47//24 40//20 39//20
f 40//20 47//24 48//24
f 42//21 49//25 50//25
f 49//25 42//21 41//21
f 44//22 51//26 52//26
f 51//26 44//22 43//22
f 53//27 46//23 54//27
f 46//23 53//27 45//23
f 55//28 48//24 47//24
f 48//24 55//28 56//28
f 50//25 57//29 58//29
f 57//29 50//25 49//25
f 59//30 51//26 60//30
f 51//26 59//30 52//26
f 61//31 54//27 62//31
f 54//27 61//31 53//27
f 55//28 63//32 56//28
f 63//32 55//28 64//32
f 58//29 65//33 66//33
f 65//33 58//29 57//29
f 67//34 60//30 68//34
f 60//30 67//34 59//30
f 69//35 62//31 70//35
f 62//31 69//35 61//31
f 64//32 71//36 63//32
f 71//36 64//32 72//36
f 66//33 73//37 74//37
f 73//37 66//33 65//33
f 75//38 68//34 76//38
f 68//34 75//38 67//34
f 77//39 70//35 78//39
f 70//35 77//39 69//35
f 72//36 79//40 71//36
f 79//40 72//36 80//40
f 74//37 81//41 82//41
f 81//41 74//37 73//37
f 83//42 76//38 84//42
f 76//38 83//42 75//38
f 85//43 78//39 86//43
f 78//39 85//43 77//39
f 80//40 87//44 79//40
f 87//44 80//40 88//44
f 82//41 89//45 90//45
f 89//45 82//41 81//41
f 91//46 84//42 92//46
f 84//42 91//46 83//42
f 85//43 93//47 94//47
f 93//47 85//43 86//43
f 88//44 95//48 87//44
f 95//48 88//44 96//48
f 97//49 89//45 98//49
f 89//45 97//49 90//45
f 99//50 92//46 100//50
f 92//46 99//50 91//46
f 94//47 101//51 102//51
f 101//51 94//47 93//47
f 96//48 103//52 95//48
f 103//52 96//48 104//52
f 105//53 98//49 106//53
f 98//49 105//53 97//49
f 107//54 100//50 108//54
f 100//50 107//54 99//50
f 102//51 109//55 110//55
f 109//55 102//51 101//51
f 104//52 111//56 103//52
f 111//56 104//52 112//56
f 113//57 106//53 114//57
f 106//53 113//57 105//53
f 115//58 108//54 116//58
f 108//54 115//58 107//54
f 110//55 117//59 118//59
f 117//59 110//55 109//55
f 112//56 119//60 111//56
f 119//60 112//56 120//60
f 121//61 114//57 122//61
f 114//57 121//61 113//57
f 123//62 116//58 124//62
f 116//58 123//62 115//58
f 118//59 125//63 126//63
f 125//63 118//59 117//59
f 120//60 127//64 119//60
f 127//64 120//60 128//64
f 129//65 122//61 130//65
f 122//61 129//65 121//61
f 131//66 124//62 132//66
f 124//62 131//66 123//62
f 126//63 133//67 134//67
f 133//67 126//63 125//63
f 128//64 135//68 127//64
f 135//68 128//64 136//68
f 137//69 130//65 138//69
f 130//65 137//69 129//65
f 139//70 132//66 140//70
f 132//66 139//70 131//66
f 134//67 141//71 142//71
f 141//71 134//67 133//67
f 136//68 143//72 135//68
f 143//72 136//68 144//72
f 145//73 138//69 146//73
f 138//69 145//73 137//69
f 147//74 140//70 148//74
f 140//70 147//74 139//70
f 142//71 149//75 150//75
f 149//75 142//71 141//71
f 144//72 151//76 143//72
f 151//76 144//72 152//76
f 153//77 146//73 154//77
f 146//73 153//77 145//73
f 155//78 147//74 148//74
f 147//74 155//78 156//78
f 150//75 157//79 158//79
f 157//79 150//75 149//75
f 151//76 159//80 160//80
f 159//80 151//76 152//76
f 161//81 154//77 162//81
f 154//77 161//81 153//77
f 163//82 156//78 155//78
f 156//78 163//82 164//82
f 158//79 165//83 166//83
f 165//83 158//79 157//79
f 160//80 167//84 168//84
f 167//84 160//80 159//80
f 169//85 162//81 170//85
f 162//81 169//85 161//81
f 171//86 164//82 163//82
f 164//82 171//86 172//86
f 166//83 173//87 174//87
f 173//87 166//83 165//83
f 168//84 175//88 176//88
f 175//88 168//84 167//84
f 177//89 170//85 178//89
f 170//85 177//89 169//85
f 179//90 172//86 171//86
f 172//86 179//90 180//90
f 174//87 181//91 182//91
f 181//91 174//87 173//87
f 176//88 183//92 184//92
f 183//92 176//88 175//88
f 185//93 178//89 186//93
f 178//89 185//93 177//89
f 187//94 180//90 179//90
f 180//90 187//94 188//94
f 182//91 185//93 186//93
f 185//93 182//91 181//91
f 184//92 189//95 190//95
f 189//95 184//92 183//92
f 191//96 188//94 187//94
f 188//94 191//96 192//96
f 190//95 192//96 191//96
f 192//96 190//95 189//95
