# SSTK version 0.8.0
# 46
mtllib original-46.mtl
o #ID283
v 0.428199 0.542544 0.473945
v 0.433165 0.542135 0.473983
v 0.433334 0.542544 0.473945
v 0.432725 0.541561 0.474036
v 0.432151 0.541121 0.474077
v 0.431484 0.540845 0.474102
v 0.430767 0.540750 0.474111
v 0.430050 0.540845 0.474102
v 0.429383 0.541121 0.474077
v 0.428809 0.541561 0.474036
v 0.428369 0.542135 0.473983
v 0.433441 0.544236 0.473724
v 0.433441 0.542803 0.473911
v 0.433536 0.543519 0.473818
v 0.433165 0.544904 0.473637
v 0.432725 0.545477 0.473563
v 0.432151 0.545917 0.473505
v 0.431484 0.546193 0.473469
v 0.430767 0.546288 0.473457
v 0.430050 0.546193 0.473469
v 0.429383 0.545917 0.473505
v 0.428809 0.545477 0.473563
v 0.428369 0.544904 0.473637
v 0.428092 0.544236 0.473724
v 0.428092 0.542803 0.473911
v 0.427998 0.543519 0.473818
vn 0 0.11538629934944165 0.9933206943995685
vn 0 0.09240212738392133 0.9957217718092367
vn 0 0.12918570240410396 0.9916204184537339
usemtl material_0_0
f 1//1 2//2 3//1
f 2//2 1//1 4//2
f 4//2 1//1 5//2
f 5//2 1//1 6//2
f 6//2 1//1 7//2
f 7//2 1//1 8//2
f 8//2 1//1 9//2
f 9//2 1//1 10//2
f 10//2 1//1 11//2
f 12//3 13//3 14//3
f 13//3 12//3 3//1
f 3//1 12//3 15//3
f 3//1 15//3 1//1
f 1//1 15//3 16//3
f 1//1 16//3 17//3
f 1//1 17//3 18//3
f 1//1 18//3 19//3
f 1//1 19//3 20//3
f 1//1 20//3 21//3
f 1//1 21//3 22//3
f 1//1 22//3 23//3
f 1//1 23//3 24//3
f 1//1 24//3 25//3
f 25//3 24//3 26//3
