# SSTK version 0.8.0
# 1
mtllib original-1.mtl
o group_0/ID4#ID4
v -0.413836 0.316474 -0.352607
v -0.459938 0.205175 0.441127
v -0.459938 0.205175 -0.352607
v -0.413836 0.316474 0.441127
v 0.312123 -0.240574 0.441127
v 0.331917 0.085737 0.441127
v 0.385460 -0.145000 0.441127
v 0.320124 -0.003842 0.441127
v 0.285548 -0.087316 0.441127
v 0.216549 -0.313911 0.441127
v 0.230545 -0.158996 0.441127
v 0.158864 -0.213999 0.441127
v 0.105250 -0.360012 0.441127
v 0.075390 -0.248575 0.441127
v -0.014188 -0.375737 0.441127
v -0.014188 -0.260368 0.441127
v -0.133626 -0.360012 0.441127
v -0.103767 -0.248575 0.441127
v -0.187241 -0.213999 0.441127
v -0.244925 -0.313911 0.441127
v -0.258922 -0.158996 0.441127
v -0.340499 -0.240574 0.441127
v -0.313924 -0.087316 0.441127
v -0.348500 -0.003842 0.441127
v -0.413836 -0.145000 0.441127
v -0.360294 0.085737 0.441127
v 0.431561 -0.033701 0.441127
v 0.431561 0.205175 0.441127
v 0.447286 0.085737 0.441127
v 0.385460 0.316474 0.441127
v 0.312123 0.412048 0.441127
v 0.320124 0.175316 0.441127
v 0.285548 0.258790 0.441127
v 0.216549 0.485385 0.441127
v 0.230545 0.330470 0.441127
v 0.158864 0.385473 0.441127
v 0.105250 0.531486 0.441127
v 0.075390 0.420049 0.441127
v -0.014188 0.547211 0.441127
v -0.014188 0.431842 0.441127
v -0.103767 0.420049 0.441127
v -0.133626 0.531486 0.441127
v -0.187241 0.385473 0.441127
v -0.244925 0.485385 0.441127
v -0.258922 0.330470 0.441127
v -0.340499 0.412048 0.441127
v -0.313924 0.258790 0.441127
v -0.348500 0.175316 0.441127
v -0.413836 0.316474 0.441127
v -0.459938 -0.033701 0.441127
v -0.459938 0.205175 0.441127
v -0.475662 0.085737 0.441127
v -0.475662 0.085737 0.441127
v -0.475662 0.085737 -0.352607
v 0.431561 0.205175 -0.352607
v 0.431561 -0.033701 -0.352607
v 0.447286 0.085737 -0.352607
v 0.385460 0.316474 -0.352607
v 0.385460 -0.145000 -0.352607
v 0.312123 0.412048 -0.352607
v 0.312123 -0.240574 -0.352607
v 0.216549 0.485385 -0.352607
v 0.216549 -0.313911 -0.352607
v 0.105250 0.531486 -0.352607
v 0.105250 -0.360012 -0.352607
v -0.014188 0.547211 -0.352607
v -0.014188 -0.375737 -0.352607
v -0.133626 0.531486 -0.352607
v -0.133626 -0.360012 -0.352607
v -0.244925 0.485385 -0.352607
v -0.244925 -0.313911 -0.352607
v -0.340499 0.412048 -0.352607
v -0.340499 -0.240574 -0.352607
v -0.413836 0.316474 -0.352607
v -0.413836 -0.145000 -0.352607
v -0.459938 0.205175 -0.352607
v -0.459938 -0.033701 -0.352607
v -0.475662 0.085737 -0.352607
v -0.340499 0.412048 -0.352607
v -0.340499 0.412048 0.441127
v -0.244925 0.485385 0.441127
v -0.244925 0.485385 -0.352607
v -0.133626 0.531486 0.441127
v -0.133626 0.531486 -0.352607
v -0.014188 0.547211 0.441127
v -0.014188 0.547211 -0.352607
v 0.105250 0.531486 0.441127
v 0.105250 0.531486 -0.352607
v 0.216549 0.485385 0.441127
v 0.216549 0.485385 -0.352607
v 0.312123 0.412048 0.441127
v 0.312123 0.412048 -0.352607
v 0.385460 0.316474 -0.352607
v 0.385460 0.316474 0.441127
v 0.431561 0.205175 -0.352607
v 0.431561 0.205175 0.441127
v 0.447286 0.085737 -0.352607
v 0.447286 0.085737 0.441127
v 0.431561 -0.033701 -0.352607
v 0.431561 -0.033701 0.441127
v 0.385460 -0.145000 -0.352607
v 0.385460 -0.145000 0.441127
v 0.312123 -0.240574 -0.352607
v 0.312123 -0.240574 0.441127
v 0.216549 -0.313911 0.441127
v 0.216549 -0.313911 -0.352607
v 0.105250 -0.360012 0.441127
v 0.105250 -0.360012 -0.352607
v -0.014188 -0.375737 0.441127
v -0.014188 -0.375737 -0.352607
v -0.133626 -0.360012 0.441127
v -0.133626 -0.360012 -0.352607
v -0.244925 -0.313911 0.441127
v -0.244925 -0.313911 -0.352607
v -0.340499 -0.240574 0.441127
v -0.340499 -0.240574 -0.352607
v -0.413836 -0.145000 -0.352607
v -0.413836 -0.145000 0.441127
v -0.459938 -0.033701 -0.352607
v -0.459938 -0.033701 0.441127
vt -1.634403 7.217658
vt -1.748962 7.346345
vt -1.627339 7.224722
vt -1.756026 7.339281
vt -1.867263 7.228043
vt -1.870296 7.22501
vt -1.8785 7.216806
vt -1.868489 7.226818
vt -1.863191 7.232116
vt -1.852619 7.242688
vt -1.854763 7.240543
vt -1.84378 7.251527
vt -1.835564 7.259742
vt -1.830989 7.264318
vt -1.817263 7.278043
vt -1.798962 7.296345
vt -1.803537 7.291769
vt -1.790747 7.30456
vt -1.781908 7.313399
vt -1.779763 7.315543
vt -1.767263 7.328043
vt -1.771335 7.323971
vt -1.766037 7.329269
vt -1.76423 7.331076
vt -1.885565 7.209742
vt -1.887974 7.207333
vt -1.746552 7.348754
vt -1.62493 7.227132
vt -1.763942 7.08812
vt -1.766351 7.08571
vt -1.756878 7.095184
vt -1.745641 7.106421
vt -1.730996 7.121066
vt -1.713942 7.13812
vt -1.695641 7.156421
vt -1.677339 7.174722
vt -1.660285 7.191776
vt -1.645641 7.206421
vn 0.866025402838329 -0.5000000016387101 0
vn 0.9659258358036645 -0.25881900959356163 0
vn 0 0 -1
vn 1 0 0
vn 0 0 1
vn 0.7071067811865476 -0.7071067811865476 0
vn 0.5000000016387101 -0.866025402838329 0
vn 0.25881900959356163 -0.9659258358036645 0
vn 0 -1 0
vn -0.25881900959356163 -0.9659258358036645 0
vn -0.5000000016387101 -0.866025402838329 0
vn -0.7071067811865476 -0.7071067811865476 0
vn -0.866025402838329 -0.5000000016387101 0
vn -0.9659258358036645 -0.25881900959356163 0
vn -1 0 0
vn -0.9659258358036645 0.25881900959356163 0
vn -0.866025402838329 0.5000000016387101 0
vn -0.7071067811865476 0.7071067811865476 0
vn -0.5000000016387101 0.866025402838329 0
vn -0.25881900959356163 0.9659258358036645 0
vn 0 1 0
vn 0.25881900959356163 0.9659258358036645 0
vn 0.5000000016387101 0.866025402838329 0
vn 0.7071067811865476 0.7071067811865476 0
vn 0.866025402838329 0.5000000016387101 0
vn 0.9659258358036645 0.25881900959356163 0
usemtl material_0_0
f 1/1/1 2/2/2 3/3/2
f 2/2/2 1/1/1 4/4/1
f 5/5/3 6/6/3 7/7/3
f 6/6/3 5/5/3 8/8/3
f 8/8/3 5/5/3 9/9/3
f 9/9/3 5/5/3 10/10/3
f 9/9/3 10/10/3 11/11/3
f 11/11/3 10/10/3 12/12/3
f 12/12/3 10/10/3 13/13/3
f 12/12/3 13/13/3 14/14/3
f 14/14/3 13/13/3 15/15/3
f 14/14/3 15/15/3 16/15/3
f 16/15/3 15/15/3 17/16/3
f 16/15/3 17/16/3 18/17/3
f 18/17/3 17/16/3 19/18/3
f 19/18/3 17/16/3 20/19/3
f 19/18/3 20/19/3 21/20/3
f 21/20/3 20/19/3 22/21/3
f 21/20/3 22/21/3 23/22/3
f 23/22/3 22/21/3 24/23/3
f 24/23/3 22/21/3 25/4/3
f 24/23/3 25/4/3 26/24/3
f 27/25/3 28/25/3 29/26/3
f 28/25/3 27/25/3 7/7/3
f 28/25/3 7/7/3 30/7/3
f 30/7/3 7/7/3 31/5/3
f 31/5/3 7/7/3 6/6/3
f 31/5/3 6/6/3 32/8/3
f 31/5/3 32/8/3 33/9/3
f 31/5/3 33/9/3 34/10/3
f 34/10/3 33/9/3 35/11/3
f 34/10/3 35/11/3 36/12/3
f 34/10/3 36/12/3 37/13/3
f 37/13/3 36/12/3 38/14/3
f 37/13/3 38/14/3 39/15/3
f 39/15/3 38/14/3 40/15/3
f 39/15/3 40/15/3 41/17/3
f 39/15/3 41/17/3 42/16/3
f 42/16/3 41/17/3 43/18/3
f 42/16/3 43/18/3 44/19/3
f 44/19/3 43/18/3 45/20/3
f 44/19/3 45/20/3 46/21/3
f 46/21/3 45/20/3 47/22/3
f 46/21/3 47/22/3 48/23/3
f 46/21/3 48/23/3 49/4/3
f 49/4/3 48/23/3 26/24/3
f 49/4/3 26/24/3 25/4/3
f 49/4/3 25/4/3 50/2/3
f 49/4/3 50/2/3 51/2/3
f 51/2/3 50/2/3 52/27/3
f 3/3/2 53/27/4 54/28/4
f 53/27/4 3/3/2 2/2/2
f 55/29/5 56/29/5 57/30/5
f 56/29/5 55/29/5 58/31/5
f 56/29/5 58/31/5 59/31/5
f 59/31/5 58/31/5 60/32/5
f 59/31/5 60/32/5 61/32/5
f 61/32/5 60/32/5 62/33/5
f 61/32/5 62/33/5 63/33/5
f 63/33/5 62/33/5 64/34/5
f 63/33/5 64/34/5 65/34/5
f 65/34/5 64/34/5 66/35/5
f 65/34/5 66/35/5 67/35/5
f 67/35/5 66/35/5 68/36/5
f 67/35/5 68/36/5 69/36/5
f 69/36/5 68/36/5 70/37/5
f 69/36/5 70/37/5 71/37/5
f 71/37/5 70/37/5 72/38/5
f 71/37/5 72/38/5 73/38/5
f 73/38/5 72/38/5 74/1/5
f 73/38/5 74/1/5 75/1/5
f 75/1/5 74/1/5 76/3/5
f 75/1/5 76/3/5 77/3/5
f 77/3/5 76/3/5 78/28/5
f 79/38/6 4/4/1 1/1/1
f 4/4/1 79/38/6 80/21/6
f 79/38/6 81/19/7 80/21/6
f 81/19/7 79/38/6 82/37/7
f 82/37/7 83/16/8 81/19/7
f 83/16/8 82/37/7 84/36/8
f 84/36/8 85/15/9 83/16/8
f 85/15/9 84/36/8 86/35/9
f 86/35/9 87/13/10 85/15/9
f 87/13/10 86/35/9 88/34/10
f 88/34/10 89/10/11 87/13/10
f 89/10/11 88/34/10 90/33/11
f 90/33/11 91/5/12 89/10/11
f 91/5/12 90/33/11 92/32/12
f 91/5/12 93/31/13 94/7/13
f 93/31/13 91/5/12 92/32/12
f 94/7/13 95/29/14 96/25/14
f 95/29/14 94/7/13 93/31/13
f 96/25/14 97/30/15 98/26/15
f 97/30/15 96/25/14 95/29/14
f 98/26/15 99/29/16 100/25/16
f 99/29/16 98/26/15 97/30/15
f 100/25/16 101/31/17 102/7/17
f 101/31/17 100/25/16 99/29/16
f 102/7/17 103/32/18 104/5/18
f 103/32/18 102/7/17 101/31/17
f 103/32/18 105/10/19 104/5/18
f 105/10/19 103/32/18 106/33/19
f 106/33/19 107/13/20 105/10/19
f 107/13/20 106/33/19 108/34/20
f 108/34/20 109/15/21 107/13/20
f 109/15/21 108/34/20 110/35/21
f 110/35/21 111/16/22 109/15/21
f 111/16/22 110/35/21 112/36/22
f 112/36/22 113/19/23 111/16/22
f 113/19/23 112/36/22 114/37/23
f 114/37/23 115/21/24 113/19/23
f 115/21/24 114/37/23 116/38/24
f 117/1/25 115/21/24 116/38/24
f 115/21/24 117/1/25 118/4/25
f 119/3/26 118/4/25 117/1/25
f 118/4/25 119/3/26 120/2/26
f 54/28/4 120/2/26 119/3/26
f 120/2/26 54/28/4 53/27/4
