# SSTK version 0.8.0
# 3
mtllib original-3.mtl
o #ID18
v 0.295325 0.620092 0.488235
v 0.285308 0.611662 0.461537
v 0.285308 0.615994 0.488884
v 0.295325 0.615760 0.460887
v 0.276707 0.605143 0.462569
v 0.276707 0.609475 0.489917
v 0.295325 0.620092 0.488235
v 0.288539 0.611045 0.493406
v 0.296997 0.614506 0.492858
v 0.285308 0.615994 0.488884
v 0.306075 0.617158 0.460666
v 0.306075 0.621489 0.488014
v 0.270106 0.596647 0.463915
v 0.270106 0.600979 0.491262
v 0.281275 0.605540 0.494278
v 0.276707 0.609475 0.489917
v 0.306075 0.621489 0.488014
v 0.306075 0.615686 0.492671
v 0.316824 0.615760 0.460887
v 0.316824 0.620092 0.488235
v 0.265957 0.586754 0.465482
v 0.265957 0.591085 0.492829
v 0.275701 0.598366 0.495414
v 0.270106 0.600979 0.491262
v 0.316824 0.620092 0.488235
v 0.315152 0.614506 0.492858
v 0.325121 0.612366 0.461425
v 0.325121 0.616697 0.488773
v 0.264542 0.576137 0.467163
v 0.264542 0.580468 0.494511
v 0.265957 0.591085 0.492829
v 0.272198 0.590011 0.496737
v 0.321891 0.611749 0.493294
v 0.325121 0.616697 0.488773
v 0.265957 0.565520 0.468845
v 0.265957 0.569851 0.496192
v 0.264542 0.580468 0.494511
v 0.271003 0.581046 0.498157
v 0.270106 0.559957 0.497759
v 0.270106 0.555626 0.470412
v 0.265957 0.569851 0.496192
v 0.272198 0.572080 0.499577
v 0.276707 0.551462 0.499105
v 0.276707 0.547130 0.471757
v 0.270106 0.559957 0.497759
v 0.275701 0.563726 0.500900
v 0.285308 0.544943 0.500137
v 0.285308 0.540611 0.472790
v 0.276707 0.551462 0.499105
v 0.281275 0.556551 0.502037
v 0.295325 0.540845 0.500787
v 0.295325 0.536513 0.473439
v 0.285308 0.544943 0.500137
v 0.288539 0.551046 0.502909
v 0.306075 0.539447 0.501008
v 0.306075 0.535115 0.473660
v 0.296997 0.547586 0.503457
v 0.295325 0.540845 0.500787
v 0.316824 0.540845 0.500787
v 0.316824 0.536513 0.473439
v 0.306075 0.546405 0.503644
v 0.306075 0.539447 0.501008
v 0.326841 0.540611 0.472790
v 0.326841 0.544943 0.500137
v 0.315152 0.547586 0.503457
v 0.316824 0.540845 0.500787
v 0.335443 0.547130 0.471757
v 0.335443 0.551462 0.499105
v 0.323611 0.551046 0.502909
v 0.326841 0.544943 0.500137
v 0.342043 0.555626 0.470412
v 0.342043 0.559957 0.497759
v 0.330874 0.556551 0.502037
v 0.335443 0.551462 0.499105
v 0.346192 0.565520 0.468845
v 0.346192 0.569851 0.496192
v 0.336448 0.563726 0.500900
v 0.342043 0.559957 0.497759
v 0.347607 0.576137 0.467163
v 0.347607 0.580468 0.494511
v 0.346192 0.569851 0.496192
v 0.339952 0.572080 0.499577
v 0.346192 0.586754 0.465482
v 0.346192 0.591085 0.492829
v 0.347607 0.580468 0.494511
v 0.341147 0.581046 0.498157
v 0.342043 0.600979 0.491262
v 0.342043 0.596647 0.463915
v 0.346192 0.591085 0.492829
v 0.339952 0.590011 0.496737
v 0.335443 0.609475 0.489917
v 0.335443 0.605143 0.462569
v 0.342043 0.600979 0.491262
v 0.336448 0.598366 0.495414
v 0.328318 0.614874 0.489061
v 0.328318 0.610543 0.461714
v 0.335443 0.609475 0.489917
v 0.330874 0.605540 0.494278
v 0.328318 0.614874 0.489061
v 0.325088 0.609926 0.493583
vn -0.2588190279176898 0.9540336798191009 -0.15110409841750685
vn -0.49999998346751684 0.8553632025224975 -0.13547622781484445
vn -0.7071067961658322 0.6984011080690524 -0.11061587166411624
vn -0.12841019163314005 0.6091564119382786 0.782585003995874
vn -0.2480694221872534 0.5602021677425241 0.7903385939154556
vn 1.5306101228985015e-8 0.9876883390927469 -0.15643447452595136
vn -0.8660253971021171 0.4938441817037295 -0.07821723449147629
vn -0.3508231921157397 0.482327148842111 0.802672790969996
vn -2.5709825140599347e-8 0.6258538029245964 0.7799403934691547
vn 0.25881909565914607 0.9540336614575208 -0.1511040983168177
vn -0.9659258138881869 0.25563259930325144 -0.040488223447162505
vn -0.42966889227513744 0.38083847643267127 0.8187470292339986
vn -0.42966889227513716 0.3808384764326717 0.8187470292339984
vn 0.12841021884488538 0.6091564053638344 0.7825850046483261
vn 0.38268344330329535 0.9125050361921941 -0.14452661050967788
vn -1 8.383640051866135e-9 4.095831252268406e-9
vn -0.47923339743045773 0.2626524293506119 0.8374658513297617
vn 0.19109525506019104 0.5911991744124031 0.7835599145359424
vn -0.9659258286027005 -0.25563254344514424 0.0404882250778317
vn -0.4961389311996713 0.13582312658182547 0.8575536363596072
vn -0.8660254094967416 -0.49384415904845425 0.07821724029730405
vn -0.4792334050889184 0.00899390290586249 0.8776414149055414
vn -0.7071067630782377 -0.698401139564168 0.1106158843226797
vn -0.4296689408505758 -0.10919212412249363 0.8963602408060959
vn -0.5000000115749405 -0.8553631856564575 0.1354762305671954
vn -0.35082320008319845 -0.210680823430756 0.9124344759608346
vn -0.25881909565914607 -0.954033661457521 0.15110409831681623
vn -0.24806945795858262 -0.2885557999016104 0.9247686707340798
vn -1.5306101228985015e-8 -0.9876883390927469 0.15643447452595136
vn -0.1284102095218406 -0.3375100846633686 0.9325222575580074
vn 0.2588190279176898 -0.9540336798191009 0.15110409841750685
vn 3.503286983379225e-8 -0.3542074833800163 0.9351668614304048
vn 0.49999998346751684 -0.8553632025224975 0.13547622781484445
vn 0.12841020095549652 -0.33751009154627903 0.9325222562464616
vn 0.7071067961658322 -0.6984011080690524 0.11061587166411624
vn 0.24806943150841773 -0.2885558479001392 0.9247686628523495
vn 0.8660253971021171 -0.4938441817037295 0.07821723449147629
vn 0.3508232014355276 -0.21068082762583212 0.9124344744722338
vn 0.9659258138881869 -0.25563259930325144 0.040488223447162505
vn 0.4296689015937349 -0.10919215204720227 0.8963602562220917
vn 0.4296689015937349 -0.10919215204720226 0.8963602562220917
vn 1 -8.383640051866135e-9 -4.095831252268406e-9
vn 0.47923340674836534 0.00899389186377816 0.8776414141125626
vn 0.9659258286027005 0.25563254344514424 -0.04048822507783169
vn 0.4961389405175788 0.13582319325728784 0.8575536204083614
vn 0.8660254094967416 0.49384415904845425 -0.07821724029730405
vn 0.47923341440751416 0.26265241748235957 0.8374658453369833
vn 0.7071067630782377 0.698401139564168 -0.1106158843226797
vn 0.4296689501703636 0.38083844366380215 0.8187470140936273
vn 0.608761440823116 0.783585833521896 -0.12410781470463216
vn 0.35082320940436296 0.482327144129333 0.8026727862455936
vn 0.30398866098099214 0.5268225962495444 0.7937561628585147
usemtl material_0_0
f 1//1 2//2 3//2
f 2//2 1//1 4//1
f 3//2 5//3 6//3
f 5//3 3//2 2//2
f 7//4 8//5 9//4
f 8//5 7//4 10//5
f 11//6 1//1 12//6
f 1//1 11//6 4//1
f 6//3 13//7 14//7
f 13//7 6//3 5//3
f 10//5 15//8 8//5
f 15//8 10//5 16//8
f 17//9 9//4 18//9
f 9//4 17//9 7//4
f 19//10 12//6 20//10
f 12//6 19//10 11//6
f 14//7 21//11 22//11
f 21//11 14//7 13//7
f 16//8 23//12 15//8
f 23//12 16//8 24//13
f 25//14 18//9 26//14
f 18//9 25//14 17//9
f 27//15 20//10 28//15
f 20//10 27//15 19//10
f 22//11 29//16 30//16
f 29//16 22//11 21//11
f 23//12 31//17 32//17
f 31//17 23//12 24//13
f 25//14 33//18 34//18
f 33//18 25//14 26//14
f 30//16 35//19 36//19
f 35//19 30//16 29//16
f 32//17 37//20 38//20
f 37//20 32//17 31//17
f 35//19 39//21 36//19
f 39//21 35//19 40//21
f 38//20 41//22 42//22
f 41//22 38//20 37//20
f 40//21 43//23 39//21
f 43//23 40//21 44//23
f 42//22 45//24 46//24
f 45//24 42//22 41//22
f 44//23 47//25 43//23
f 47//25 44//23 48//25
f 46//24 49//26 50//26
f 49//26 46//24 45//24
f 48//25 51//27 47//25
f 51//27 48//25 52//27
f 50//26 53//28 54//28
f 53//28 50//26 49//26
f 52//27 55//29 51//27
f 55//29 52//27 56//29
f 57//30 53//28 58//30
f 53//28 57//30 54//28
f 56//29 59//31 55//29
f 59//31 56//29 60//31
f 61//32 58//30 62//32
f 58//30 61//32 57//30
f 63//33 59//31 60//31
f 59//31 63//33 64//33
f 65//34 62//32 66//34
f 62//32 65//34 61//32
f 67//35 64//33 63//33
f 64//33 67//35 68//35
f 69//36 66//34 70//36
f 66//34 69//36 65//34
f 71//37 68//35 67//35
f 68//35 71//37 72//37
f 73//38 70//36 74//38
f 70//36 73//38 69//36
f 75//39 72//37 71//37
f 72//37 75//39 76//39
f 77//40 74//38 78//41
f 74//38 77//40 73//38
f 79//42 76//39 75//39
f 76//39 79//42 80//42
f 81//43 77//40 78//41
f 77//40 81//43 82//43
f 83//44 80//42 79//42
f 80//42 83//44 84//44
f 85//45 82//43 81//43
f 82//43 85//45 86//45
f 83//44 87//46 84//44
f 87//46 83//44 88//46
f 89//47 86//45 85//45
f 86//45 89//47 90//47
f 88//46 91//48 87//46
f 91//48 88//46 92//48
f 93//49 90//47 89//47
f 90//47 93//49 94//49
f 92//48 95//50 91//48
f 95//50 92//48 96//50
f 97//51 94//49 93//49
f 94//49 97//51 98//51
f 99//52 98//51 97//51
f 98//51 99//52 100//52
