# SSTK version 0.8.0
# 47
mtllib original-47.mtl
o #ID289
v 0.267216 0.660527 0.449787
v 0.267216 0.659094 0.450196
v 0.267311 0.659811 0.449991
v 0.266940 0.661195 0.449597
v 0.266940 0.658426 0.450386
v 0.266500 0.661768 0.449434
v 0.266500 0.657853 0.450549
v 0.265926 0.662208 0.449308
v 0.265926 0.657413 0.450675
v 0.265259 0.662485 0.449229
v 0.265259 0.657136 0.450754
v 0.264542 0.662579 0.449202
v 0.264542 0.657042 0.450780
v 0.263825 0.662485 0.449229
v 0.263825 0.657136 0.450754
v 0.263158 0.662208 0.449308
v 0.263158 0.657413 0.450675
v 0.262584 0.661768 0.449434
v 0.262584 0.657853 0.450549
v 0.262144 0.658426 0.450386
v 0.262144 0.661195 0.449597
v 0.261867 0.659094 0.450196
v 0.261867 0.660527 0.449787
v 0.261773 0.659811 0.449991
vn 0 0.27405059320156533 0.9617152761425132
usemtl material_0_0
f 1//1 2//1 3//1
f 2//1 1//1 4//1
f 2//1 4//1 5//1
f 5//1 4//1 6//1
f 5//1 6//1 7//1
f 7//1 6//1 8//1
f 7//1 8//1 9//1
f 9//1 8//1 10//1
f 9//1 10//1 11//1
f 11//1 10//1 12//1
f 11//1 12//1 13//1
f 13//1 12//1 14//1
f 13//1 14//1 15//1
f 15//1 14//1 16//1
f 15//1 16//1 17//1
f 17//1 16//1 18//1
f 17//1 18//1 19//1
f 19//1 18//1 20//1
f 20//1 18//1 21//1
f 20//1 21//1 22//1
f 22//1 21//1 23//1
f 22//1 23//1 24//1
