# SSTK version 0.8.0
# 21
mtllib original-21.mtl
o #ID133
v 0.179572 0.639353 0.455821
v 0.182861 0.638954 0.455919
v 0.183382 0.639353 0.455821
v 0.182193 0.638677 0.455987
v 0.181477 0.638583 0.456010
v 0.180760 0.638677 0.455987
v 0.180092 0.638954 0.455919
v 0.184151 0.642068 0.455047
v 0.184151 0.640635 0.455456
v 0.184246 0.641352 0.455252
v 0.183875 0.639967 0.455646
v 0.183875 0.642736 0.454857
v 0.183435 0.643309 0.454694
v 0.183435 0.639394 0.455809
v 0.182861 0.643750 0.454568
v 0.182193 0.644026 0.454489
v 0.181477 0.644120 0.454463
v 0.180760 0.644026 0.454489
v 0.180092 0.643750 0.454568
v 0.179519 0.643309 0.454694
v 0.179519 0.639394 0.455809
v 0.179079 0.642736 0.454857
v 0.179079 0.639967 0.455646
v 0.178802 0.642068 0.455047
v 0.178802 0.640635 0.455456
v 0.178708 0.641352 0.455252
vn 0 0.2664548967731286 0.9638473883274371
vn 0 0.2382743939645371 0.9711978753996698
vn 0 0.27405059320156533 0.9617152761425132
usemtl material_0_0
f 1//1 2//2 3//1
f 2//2 1//1 4//2
f 4//2 1//1 5//2
f 5//2 1//1 6//2
f 6//2 1//1 7//2
f 8//3 9//3 10//3
f 9//3 8//3 11//3
f 11//3 8//3 12//3
f 11//3 12//3 13//3
f 11//3 13//3 14//3
f 14//3 13//3 15//3
f 14//3 15//3 3//1
f 3//1 15//3 1//1
f 1//1 15//3 16//3
f 1//1 16//3 17//3
f 1//1 17//3 18//3
f 1//1 18//3 19//3
f 1//1 19//3 20//3
f 1//1 20//3 21//3
f 21//3 20//3 22//3
f 21//3 22//3 23//3
f 23//3 22//3 24//3
f 23//3 24//3 25//3
f 25//3 24//3 26//3
