# SSTK version 0.8.0
# 45
mtllib original-45.mtl
o #ID277
v 0.511892 0.754874 -0.454132
v -0.531039 0.751183 -0.444902
v 0.502663 0.751183 -0.444902
v -0.540269 0.754874 -0.454132
v -0.531039 0.751183 0.308298
v -0.540269 0.754874 -0.454132
v -0.540269 0.754874 0.317527
v -0.531039 0.751183 -0.444902
v 0.502663 0.751183 -0.444902
v -0.531039 0.751183 0.308298
v 0.502663 0.751183 0.308298
v -0.531039 0.751183 -0.444902
v 0.511892 0.754874 -0.454132
v 0.502663 0.751183 0.308298
v 0.511892 0.754874 0.317527
v 0.502663 0.751183 -0.444902
v 0.502663 0.751183 0.308298
v -0.540269 0.754874 0.317527
v 0.511892 0.754874 0.317527
v -0.531039 0.751183 0.308298
vn 0 0.9284766839887075 0.3713906935954827
vn 0.3713906935954827 0.9284766839887075 0
vn 0 1 0
vn -0.3713906935954827 0.9284766839887075 0
vn 0 0.9284766839887075 -0.3713906935954827
usemtl material_0_0
f 1//1 2//1 3//1
f 2//1 1//1 4//1
f 5//2 6//2 7//2
f 6//2 5//2 8//2
f 9//3 10//3 11//3
f 10//3 9//3 12//3
f 13//4 14//4 15//4
f 14//4 13//4 16//4
f 17//5 18//5 19//5
f 18//5 17//5 20//5
