# SSTK version 0.8.0
# 13
mtllib original-13.mtl
o #ID83
v 0.433347 0.642068 0.455047
v 0.433347 0.640635 0.455456
v 0.433441 0.641352 0.455252
v 0.433071 0.642736 0.454857
v 0.433071 0.639967 0.455646
v 0.432630 0.643309 0.454694
v 0.432630 0.639394 0.455809
v 0.432577 0.639353 0.455821
v 0.432057 0.643750 0.454568
v 0.428768 0.639353 0.455821
v 0.431389 0.644026 0.454489
v 0.430673 0.644120 0.454463
v 0.429956 0.644026 0.454489
v 0.429288 0.643750 0.454568
v 0.428715 0.643309 0.454694
v 0.428715 0.639394 0.455809
v 0.428275 0.642736 0.454857
v 0.428275 0.639967 0.455646
v 0.427998 0.642068 0.455047
v 0.427998 0.640635 0.455456
v 0.427904 0.641352 0.455252
v 0.432057 0.638954 0.455919
v 0.431389 0.638677 0.455987
v 0.430673 0.638583 0.456010
v 0.429956 0.638677 0.455987
v 0.429288 0.638954 0.455919
vn 0 0.27405059320156533 0.9617152761425132
vn 0 0.2664548967731286 0.9638473883274371
vn -0.00006954698911616091 0.2532819967811615 0.9673924877058762
vn -0.00005282822136832832 0.26073160675333057 0.9654113250055676
vn 0 0.2382743939645371 0.9711978753996698
usemtl material_0_0
f 1//1 2//1 3//1
f 2//1 1//1 4//1
f 2//1 4//1 5//1
f 5//1 4//1 6//1
f 5//1 6//1 7//1
f 7//1 6//1 8//2
f 8//2 6//1 9//1
f 8//2 9//1 10//3
f 10//3 9//1 11//1
f 10//3 11//1 12//1
f 10//3 12//1 13//1
f 10//3 13//1 14//1
f 10//3 14//1 15//1
f 10//3 15//1 16//4
f 16//4 15//1 17//1
f 16//4 17//1 18//1
f 18//1 17//1 19//1
f 18//1 19//1 20//1
f 20//1 19//1 21//1
f 10//3 22//5 8//2
f 22//5 10//3 23//5
f 23//5 10//3 24//5
f 24//5 10//3 25//5
f 25//5 10//3 26//5
