# SSTK version 0.8.0
# 23
mtllib original-23.mtl
o #ID145
v 0.184151 0.595921 0.465718
v 0.184151 0.594488 0.466014
v 0.184246 0.595204 0.465866
v 0.183875 0.596589 0.465580
v 0.183875 0.593820 0.466152
v 0.183435 0.597162 0.465462
v 0.183435 0.593247 0.466270
v 0.182861 0.597602 0.465371
v 0.182861 0.592806 0.466361
v 0.182193 0.597879 0.465314
v 0.182193 0.592530 0.466418
v 0.181477 0.597973 0.465295
v 0.181477 0.592435 0.466438
v 0.180760 0.597879 0.465314
v 0.180760 0.592530 0.466418
v 0.180092 0.597602 0.465371
v 0.180092 0.592806 0.466361
v 0.179519 0.593247 0.466270
v 0.179519 0.597162 0.465462
v 0.179079 0.596589 0.465580
v 0.179079 0.593820 0.466152
v 0.178802 0.595921 0.465718
v 0.178802 0.594488 0.466014
v 0.178708 0.595204 0.465866
vn 0 0.20217189034430919 0.9793500532264288
usemtl material_0_0
f 1//1 2//1 3//1
f 2//1 1//1 4//1
f 2//1 4//1 5//1
f 5//1 4//1 6//1
f 5//1 6//1 7//1
f 7//1 6//1 8//1
f 7//1 8//1 9//1
f 9//1 8//1 10//1
f 9//1 10//1 11//1
f 11//1 10//1 12//1
f 11//1 12//1 13//1
f 13//1 12//1 14//1
f 13//1 14//1 15//1
f 15//1 14//1 16//1
f 15//1 16//1 17//1
f 17//1 16//1 18//1
f 18//1 16//1 19//1
f 18//1 19//1 20//1
f 18//1 20//1 21//1
f 21//1 20//1 22//1
f 21//1 22//1 23//1
f 23//1 22//1 24//1
