# SSTK version 0.8.0
# 4
mtllib original-4.mtl
o #ID26
v 0.335443 0.547130 0.471757
v 0.346192 0.565520 0.468845
v 0.342043 0.555626 0.470412
v 0.326841 0.540611 0.472790
v 0.347607 0.576137 0.467163
v 0.316824 0.536513 0.473439
v 0.346192 0.586754 0.465482
v 0.306075 0.535115 0.473660
v 0.342043 0.596647 0.463915
v 0.335443 0.605143 0.462569
v 0.295325 0.536513 0.473439
v 0.285308 0.540611 0.472790
v 0.328318 0.610543 0.461714
v 0.326841 0.611662 0.461537
v 0.276707 0.547130 0.471757
v 0.325121 0.612366 0.461425
v 0.316824 0.615760 0.460887
v 0.270106 0.555626 0.470412
v 0.306075 0.617158 0.460666
v 0.295325 0.615760 0.460887
v 0.265957 0.565520 0.468845
v 0.264542 0.576137 0.467163
v 0.285308 0.611662 0.461537
v 0.265957 0.586754 0.465482
v 0.276707 0.605143 0.462569
v 0.270106 0.596647 0.463915
v 0.326841 0.611662 0.461537
v 0.325121 0.616697 0.488773
v 0.326841 0.615994 0.488884
v 0.325121 0.612366 0.461425
v 0.328318 0.610543 0.461714
v 0.328318 0.614874 0.489061
v 0.325121 0.616697 0.488773
v 0.323611 0.611045 0.493406
v 0.326841 0.615994 0.488884
v 0.321891 0.611749 0.493294
v 0.325088 0.609926 0.493583
v 0.328318 0.614874 0.489061
v 0.339952 0.572080 0.499577
v 0.330874 0.556551 0.502037
v 0.336448 0.563726 0.500900
v 0.341147 0.581046 0.498157
v 0.323611 0.551046 0.502909
v 0.339952 0.590011 0.496737
v 0.315152 0.547586 0.503457
v 0.336448 0.598366 0.495414
v 0.306075 0.546405 0.503644
v 0.330874 0.605540 0.494278
v 0.296997 0.547586 0.503457
v 0.325088 0.609926 0.493583
v 0.288539 0.551046 0.502909
v 0.323611 0.611045 0.493406
v 0.281275 0.556551 0.502037
v 0.321891 0.611749 0.493294
v 0.315152 0.614506 0.492858
v 0.306075 0.615686 0.492671
v 0.275701 0.563726 0.500900
v 0.296997 0.614506 0.492858
v 0.272198 0.572080 0.499577
v 0.271003 0.581046 0.498157
v 0.288539 0.611045 0.493406
v 0.272198 0.590011 0.496737
v 0.281275 0.605540 0.494278
v 0.275701 0.598366 0.495414
vn -5.368913532469959e-9 -0.15643447452277065 -0.9876883390932509
vn 0.5000000115750022 0.8553631856564221 -0.13547623056719132
vn 0.38268344330329535 0.9125050361921941 -0.14452661050967788
vn 0.608761440823116 0.783585833521896 -0.12410781470463216
vn 0.19109525506019104 0.5911991744124031 0.7835599145359424
vn 0.24806946728095355 0.560202123691459 0.7903386109855214
vn 0.24806946728096335 0.5602021236914534 0.7903386109855223
vn 0.30398866098099214 0.5268225962495444 0.7937561628585147
vn 5.368913532469959e-9 0.15643447452277065 0.9876883390932509
usemtl material_0_0
f 1//1 2//1 3//1
f 2//1 1//1 4//1
f 2//1 4//1 5//1
f 5//1 4//1 6//1
f 5//1 6//1 7//1
f 7//1 6//1 8//1
f 7//1 8//1 9//1
f 9//1 8//1 10//1
f 10//1 8//1 11//1
f 10//1 11//1 12//1
f 10//1 12//1 13//1
f 13//1 12//1 14//1
f 14//1 12//1 15//1
f 14//1 15//1 16//1
f 16//1 15//1 17//1
f 17//1 15//1 18//1
f 17//1 18//1 19//1
f 19//1 18//1 20//1
f 20//1 18//1 21//1
f 20//1 21//1 22//1
f 20//1 22//1 23//1
f 23//1 22//1 24//1
f 23//1 24//1 25//1
f 25//1 24//1 26//1
f 27//2 28//3 29//2
f 28//3 27//2 30//3
f 31//4 29//2 32//4
f 29//2 31//4 27//2
f 33//5 34//6 35//7
f 34//6 33//5 36//5
f 35//7 37//8 38//8
f 37//8 35//7 34//6
f 39//9 40//9 41//9
f 40//9 39//9 42//9
f 40//9 42//9 43//9
f 43//9 42//9 44//9
f 43//9 44//9 45//9
f 45//9 44//9 46//9
f 45//9 46//9 47//9
f 47//9 46//9 48//9
f 47//9 48//9 49//9
f 49//9 48//9 50//9
f 49//9 50//9 51//9
f 51//9 50//9 52//9
f 51//9 52//9 53//9
f 53//9 52//9 54//9
f 53//9 54//9 55//9
f 53//9 55//9 56//9
f 53//9 56//9 57//9
f 57//9 56//9 58//9
f 57//9 58//9 59//9
f 59//9 58//9 60//9
f 60//9 58//9 61//9
f 60//9 61//9 62//9
f 62//9 61//9 63//9
f 62//9 63//9 64//9
