# SSTK version 0.8.0
# 12
mtllib original-12.mtl
o #ID75
v -0.161860 0.671809 0.446218
v 0.100257 0.663053 0.449067
v 0.100257 0.671809 0.446218
v -0.161860 0.663053 0.449067
v 0.100257 0.639353 0.455821
v -0.161860 0.639353 0.455821
v -0.079717 0.631199 0.457822
v -0.077872 0.631199 0.457822
v -0.079717 0.633045 0.457369
v -0.088024 0.623816 0.459633
v -0.086178 0.621970 0.460086
v -0.086178 0.623816 0.459633
v -0.088024 0.621970 0.460086
v -0.127711 0.623816 0.459633
v -0.125865 0.621970 0.460086
v -0.125865 0.623816 0.459633
v -0.127711 0.621970 0.460086
v -0.052029 0.633045 0.457369
v 0.100257 0.615419 0.461693
v -0.050183 0.631199 0.457822
v -0.058490 0.633045 0.457369
v -0.064028 0.633045 0.457369
v -0.058490 0.631199 0.457822
v -0.060336 0.631199 0.457822
v -0.062182 0.631199 0.457822
v -0.060336 0.623816 0.459633
v -0.060336 0.621970 0.460086
v -0.060336 0.615419 0.461693
v -0.070488 0.633045 0.457369
v -0.070488 0.631199 0.457822
v -0.072334 0.631199 0.457822
v -0.074180 0.626584 0.458954
v -0.072334 0.623816 0.459633
v -0.072334 0.621970 0.460086
v -0.072334 0.615419 0.461693
v -0.076026 0.626584 0.458954
v -0.076026 0.623816 0.459633
v -0.076026 0.621970 0.460086
v -0.076026 0.619201 0.460765
v -0.086178 0.633045 0.457369
v -0.086178 0.631199 0.457822
v -0.088024 0.631199 0.457822
v -0.119404 0.633045 0.457369
v -0.088024 0.615419 0.461693
v -0.117558 0.631199 0.457822
v -0.125865 0.633045 0.457369
v -0.131402 0.633045 0.457369
v -0.125865 0.631199 0.457822
v -0.127711 0.631199 0.457822
v -0.129557 0.631199 0.457822
v -0.127711 0.615419 0.461693
v -0.137863 0.633045 0.457369
v -0.137863 0.631199 0.457822
v -0.139709 0.631199 0.457822
v -0.139709 0.623816 0.459633
v -0.139709 0.621970 0.460086
v -0.139709 0.615419 0.461693
v -0.161860 0.615419 0.461693
v -0.137863 0.621970 0.460086
v -0.137863 0.623816 0.459633
v -0.131402 0.631199 0.457822
v -0.131402 0.623816 0.459633
v -0.129557 0.621970 0.460086
v -0.129557 0.623816 0.459633
v -0.131402 0.621970 0.460086
v -0.129557 0.615419 0.461693
v -0.119404 0.631199 0.457822
v -0.119404 0.623816 0.459633
v -0.117558 0.621970 0.460086
v -0.117558 0.623816 0.459633
v -0.119404 0.621970 0.460086
v -0.117558 0.615419 0.461693
v -0.079717 0.623816 0.459633
v -0.077872 0.621970 0.460086
v -0.077872 0.623816 0.459633
v -0.079717 0.621970 0.460086
v -0.074180 0.619201 0.460765
v -0.077872 0.615419 0.461693
v -0.074180 0.623816 0.459633
v -0.074180 0.621970 0.460086
v -0.058490 0.621970 0.460086
v -0.058490 0.623816 0.459633
v -0.070488 0.621970 0.460086
v -0.070488 0.623816 0.459633
v -0.064028 0.631199 0.457822
v -0.064028 0.623816 0.459633
v -0.062182 0.621970 0.460086
v -0.062182 0.623816 0.459633
v -0.064028 0.621970 0.460086
v -0.062182 0.615419 0.461693
v -0.052029 0.631199 0.457822
v -0.052029 0.623816 0.459633
v -0.050183 0.621970 0.460086
v -0.050183 0.623816 0.459633
v -0.052029 0.621970 0.460086
v -0.050183 0.615419 0.461693
v -0.058490 0.623816 0.459633
v -0.052029 0.621970 0.460086
v -0.052029 0.623816 0.459633
v -0.058490 0.621970 0.460086
v -0.060336 0.614586 0.461865
v -0.058490 0.612740 0.462246
v -0.058490 0.614586 0.461865
v -0.072334 0.614586 0.461865
v -0.070488 0.612740 0.462246
v -0.070488 0.614586 0.461865
v -0.088024 0.614586 0.461865
v -0.086178 0.612740 0.462246
v -0.086178 0.614586 0.461865
v -0.127711 0.614586 0.461865
v -0.125865 0.612740 0.462246
v -0.125865 0.614586 0.461865
v -0.139709 0.614586 0.461865
v -0.137863 0.612740 0.462246
v -0.137863 0.614586 0.461865
v 0.100257 0.591284 0.466675
v -0.050183 0.614586 0.461865
v -0.052029 0.612740 0.462246
v -0.161860 0.591284 0.466675
v -0.052029 0.614586 0.461865
v -0.064028 0.612740 0.462246
v -0.062182 0.614586 0.461865
v -0.064028 0.614586 0.461865
v -0.079717 0.612740 0.462246
v -0.077872 0.614586 0.461865
v -0.079717 0.614586 0.461865
v -0.119404 0.612740 0.462246
v -0.117558 0.614586 0.461865
v -0.119404 0.614586 0.461865
v -0.131402 0.612740 0.462246
v -0.129557 0.614586 0.461865
v -0.131402 0.614586 0.461865
v -0.131402 0.631199 0.457822
v -0.129557 0.623816 0.459633
v -0.129557 0.631199 0.457822
v -0.131402 0.623816 0.459633
v -0.125865 0.623816 0.459633
v -0.119404 0.621970 0.460086
v -0.119404 0.623816 0.459633
v -0.125865 0.621970 0.460086
v -0.088024 0.621970 0.460086
v -0.086178 0.615419 0.461693
v -0.086178 0.621970 0.460086
v -0.088024 0.615419 0.461693
v -0.086178 0.623816 0.459633
v -0.079717 0.621970 0.460086
v -0.079717 0.623816 0.459633
v -0.086178 0.621970 0.460086
v -0.088024 0.631199 0.457822
v -0.086178 0.623816 0.459633
v -0.086178 0.631199 0.457822
v -0.088024 0.623816 0.459633
v -0.086178 0.633045 0.457369
v -0.079717 0.631199 0.457822
v -0.079717 0.633045 0.457369
v -0.086178 0.631199 0.457822
v -0.072334 0.621970 0.460086
v -0.070488 0.615419 0.461693
v -0.070488 0.621970 0.460086
v -0.072334 0.615419 0.461693
v -0.070488 0.633045 0.457369
v -0.064028 0.631199 0.457822
v -0.064028 0.633045 0.457369
v -0.070488 0.631199 0.457822
v -0.058490 0.621970 0.460086
v -0.052029 0.615419 0.461693
v -0.052029 0.621970 0.460086
v -0.058490 0.615419 0.461693
v -0.058490 0.631199 0.457822
v -0.052029 0.623816 0.459633
v -0.052029 0.631199 0.457822
v -0.058490 0.623816 0.459633
v -0.070488 0.614586 0.461865
v -0.064028 0.612740 0.462246
v -0.064028 0.614586 0.461865
v -0.070488 0.612740 0.462246
v -0.070488 0.614586 0.461865
v -0.072334 0.614586 0.461865
v -0.086178 0.614586 0.461865
v -0.079717 0.612740 0.462246
v -0.079717 0.614586 0.461865
v -0.086178 0.612740 0.462246
v -0.086178 0.614586 0.461865
v -0.088024 0.614586 0.461865
v 0.100257 0.585052 0.467723
v -0.161860 0.585052 0.467723
v -0.137863 0.631199 0.457822
v -0.131402 0.623816 0.459633
v -0.131402 0.631199 0.457822
v -0.137863 0.623816 0.459633
v -0.125865 0.621970 0.460086
v -0.119404 0.615419 0.461693
v -0.119404 0.621970 0.460086
v -0.125865 0.615419 0.461693
v -0.125865 0.631199 0.457822
v -0.119404 0.623816 0.459633
v -0.119404 0.631199 0.457822
v -0.125865 0.623816 0.459633
v -0.086178 0.621970 0.460086
v -0.079717 0.615419 0.461693
v -0.079717 0.621970 0.460086
v -0.086178 0.615419 0.461693
v -0.086178 0.631199 0.457822
v -0.079717 0.623816 0.459633
v -0.079717 0.631199 0.457822
v -0.086178 0.623816 0.459633
v -0.070488 0.621970 0.460086
v -0.064028 0.615419 0.461693
v -0.064028 0.621970 0.460086
v -0.070488 0.615419 0.461693
v -0.070488 0.631199 0.457822
v -0.064028 0.623816 0.459633
v -0.064028 0.631199 0.457822
v -0.070488 0.623816 0.459633
v -0.052029 0.614586 0.461865
v -0.058490 0.614586 0.461865
v -0.064028 0.614586 0.461865
v -0.070488 0.614586 0.461865
v -0.079717 0.614586 0.461865
v -0.086178 0.614586 0.461865
v -0.119404 0.614586 0.461865
v -0.125865 0.614586 0.461865
vn 0 0.3094513881269616 0.95091526351526
vn 0 0.29180098652786823 0.9564790558404103
vn 0 0.25620639953762814 0.9666220982555516
vn 0 0.2382743939645371 0.9711978753996698
vn 0 0.22026089905840562 0.9754409958300825
vn 0 0.20217189034430919 0.9793500532264288
vn 0 0.18401359953935417 0.9829236975394225
vn 0 0.16579229892535258 0.9861606936078149
usemtl material_0_0
f 1//1 2//2 3//1
f 2//2 1//1 4//2
f 4//2 5//3 2//2
f 5//3 4//2 6//3
f 7//4 8//4 9//4
f 10//4 11//4 12//4
f 11//4 10//4 13//4
f 14//4 15//4 16//4
f 15//4 14//4 17//4
f 5//3 18//4 19//5
f 18//4 5//3 6//3
f 19//5 18//4 20//4
f 18//4 6//3 21//4
f 21//4 6//3 22//4
f 21//4 22//4 23//4
f 23//4 22//4 24//4
f 24//4 22//4 25//4
f 24//4 25//4 26//4
f 26//4 25//4 27//4
f 27//4 25//4 28//5
f 22//4 6//3 29//4
f 29//4 6//3 9//4
f 29//4 9//4 30//4
f 30//4 9//4 31//4
f 31//4 9//4 8//4
f 31//4 8//4 32//4
f 31//4 32//4 33//4
f 33//4 32//4 34//4
f 34//4 32//4 35//5
f 32//4 8//4 36//4
f 36//4 8//4 37//4
f 37//4 8//4 38//4
f 38//4 8//4 39//4
f 9//4 6//3 40//4
f 40//4 6//3 41//4
f 41//4 6//3 42//4
f 42//4 6//3 43//4
f 42//4 43//4 10//4
f 10//4 43//4 13//4
f 13//4 43//4 44//5
f 44//5 43//4 45//4
f 43//4 6//3 46//4
f 46//4 6//3 47//4
f 46//4 47//4 48//4
f 48//4 47//4 49//4
f 49//4 47//4 50//4
f 49//4 50//4 14//4
f 14//4 50//4 17//4
f 17//4 50//4 51//5
f 47//4 6//3 52//4
f 52//4 6//3 53//4
f 53//4 6//3 54//4
f 54//4 6//3 55//4
f 55//4 6//3 56//4
f 56//4 6//3 57//5
f 57//5 6//3 58//5
f 55//4 59//4 60//4
f 59//4 55//4 56//4
f 61//4 50//4 47//4
f 62//4 63//4 64//4
f 63//4 62//4 65//4
f 50//4 66//5 51//5
f 66//5 50//4 64//4
f 66//5 64//4 63//4
f 67//4 45//4 43//4
f 68//4 69//4 70//4
f 69//4 68//4 71//4
f 45//4 72//5 44//5
f 72//5 45//4 70//4
f 72//5 70//4 69//4
f 73//4 74//4 75//4
f 74//4 73//4 76//4
f 35//5 77//4 78//5
f 77//4 35//5 32//4
f 77//4 32//4 79//4
f 77//4 79//4 80//4
f 78//5 77//4 39//4
f 78//5 39//4 8//4
f 78//5 8//4 75//4
f 78//5 75//4 74//4
f 37//4 80//4 79//4
f 80//4 37//4 38//4
f 26//4 81//4 82//4
f 81//4 26//4 27//4
f 33//4 83//4 84//4
f 83//4 33//4 34//4
f 85//4 25//4 22//4
f 86//4 87//4 88//4
f 87//4 86//4 89//4
f 25//4 90//5 28//5
f 90//5 25//4 88//4
f 90//5 88//4 87//4
f 91//4 20//4 18//4
f 92//4 93//4 94//4
f 93//4 92//4 95//4
f 20//4 96//5 19//5
f 96//5 20//4 94//4
f 96//5 94//4 93//4
f 97//4 98//4 99//4
f 98//4 97//4 100//4
f 101//6 102//6 103//6
f 90//5 101//6 28//5
f 104//6 105//6 106//6
f 78//5 104//6 35//5
f 107//6 108//6 109//6
f 72//5 107//6 44//5
f 110//6 111//6 112//6
f 66//5 110//6 51//5
f 113//6 114//6 115//6
f 58//5 113//6 57//5
f 96//5 116//7 19//5
f 116//7 96//5 117//6
f 116//7 117//6 118//6
f 116//7 118//6 119//7
f 118//6 117//6 120//6
f 119//7 118//6 102//6
f 119//7 102//6 121//6
f 121//6 102//6 101//6
f 121//6 101//6 122//6
f 122//6 101//6 90//5
f 121//6 122//6 123//6
f 119//7 121//6 105//6
f 119//7 105//6 104//6
f 119//7 104//6 124//6
f 124//6 104//6 125//6
f 125//6 104//6 78//5
f 124//6 125//6 126//6
f 119//7 124//6 108//6
f 119//7 108//6 107//6
f 119//7 107//6 127//6
f 127//6 107//6 128//6
f 128//6 107//6 72//5
f 127//6 128//6 129//6
f 119//7 127//6 111//6
f 119//7 111//6 110//6
f 119//7 110//6 130//6
f 130//6 110//6 131//6
f 131//6 110//6 66//5
f 130//6 131//6 132//6
f 119//7 130//6 114//6
f 119//7 114//6 113//6
f 119//7 113//6 58//5
f 133//4 134//4 135//4
f 134//4 133//4 136//4
f 137//4 138//4 139//4
f 138//4 137//4 140//4
f 141//4 142//5 143//4
f 142//5 141//4 144//5
f 145//4 146//4 147//4
f 146//4 145//4 148//4
f 149//4 150//4 151//4
f 150//4 149//4 152//4
f 153//4 154//4 155//4
f 154//4 153//4 156//4
f 157//4 158//5 159//4
f 158//5 157//4 160//5
f 161//4 162//4 163//4
f 162//4 161//4 164//4
f 165//4 166//5 167//4
f 166//5 165//4 168//5
f 169//4 170//4 171//4
f 170//4 169//4 172//4
f 173//6 174//6 175//6
f 174//6 173//6 176//6
f 160//5 177//6 158//5
f 177//6 160//5 178//6
f 179//6 180//6 181//6
f 180//6 179//6 182//6
f 144//5 183//6 142//5
f 183//6 144//5 184//6
f 119//7 185//8 116//7
f 185//8 119//7 186//8
f 187//4 188//4 189//4
f 188//4 187//4 190//4
f 191//4 192//5 193//4
f 192//5 191//4 194//5
f 195//4 196//4 197//4
f 196//4 195//4 198//4
f 199//4 200//5 201//4
f 200//5 199//4 202//5
f 203//4 204//4 205//4
f 204//4 203//4 206//4
f 207//4 208//5 209//4
f 208//5 207//4 210//5
f 211//4 212//4 213//4
f 212//4 211//4 214//4
f 168//5 215//6 166//5
f 215//6 168//5 216//6
f 210//5 217//6 208//5
f 217//6 210//5 218//6
f 202//5 219//6 200//5
f 219//6 202//5 220//6
f 194//5 221//6 192//5
f 221//6 194//5 222//6
