# SSTK version 0.8.0
# 56
mtllib original-56.mtl
o group_9/ID365#ID365
v 0.168143 0.605818 0.466093
v 0.167616 0.602418 0.468567
v 0.169478 0.605273 0.466189
v 0.167179 0.602597 0.468535
v 0.167992 0.602134 0.468617
v 0.170625 0.604407 0.466342
v 0.169478 0.603350 0.455282
v 0.168143 0.605818 0.466093
v 0.169478 0.605273 0.466189
v 0.168143 0.603895 0.455186
v 0.166709 0.606004 0.466060
v 0.166467 0.602689 0.468519
v 0.168462 0.601333 0.468758
v 0.168555 0.592020 0.470400
v 0.168555 0.600633 0.468881
v 0.168462 0.591319 0.470524
v 0.168280 0.601764 0.468682
v 0.168280 0.590888 0.470600
v 0.167992 0.602134 0.468617
v 0.167992 0.590518 0.470665
v 0.167616 0.602418 0.468567
v 0.167616 0.590235 0.470715
v 0.167179 0.602597 0.468535
v 0.167179 0.590056 0.470746
v 0.166467 0.589964 0.470763
v 0.166467 0.602689 0.468519
v 0.146647 0.602689 0.468519
v 0.146647 0.589964 0.470763
v 0.145935 0.602597 0.468535
v 0.145935 0.590056 0.470746
v 0.145498 0.602418 0.468567
v 0.145498 0.590235 0.470715
v 0.145122 0.602134 0.468617
v 0.145122 0.590518 0.470665
v 0.144834 0.590888 0.470600
v 0.144834 0.601764 0.468682
v 0.144652 0.601333 0.468758
v 0.144652 0.591319 0.470524
v 0.144559 0.600633 0.468881
v 0.144559 0.592020 0.470400
v 0.168280 0.601764 0.468682
v 0.171505 0.603277 0.466541
v 0.170625 0.602483 0.455434
v 0.170625 0.604407 0.466342
v 0.172058 0.588126 0.457966
v 0.172247 0.598627 0.456114
v 0.172247 0.589538 0.457717
v 0.172058 0.600039 0.455866
v 0.171505 0.586811 0.458198
v 0.171505 0.601354 0.455634
v 0.170625 0.585682 0.458397
v 0.170625 0.602483 0.455434
v 0.169478 0.584815 0.458550
v 0.169478 0.603350 0.455282
v 0.168143 0.603895 0.455186
v 0.168143 0.584270 0.458646
v 0.166709 0.584084 0.458679
v 0.166709 0.604081 0.455153
v 0.146405 0.584084 0.458679
v 0.146405 0.604081 0.455153
v 0.144971 0.584270 0.458646
v 0.144971 0.603895 0.455186
v 0.143636 0.584815 0.458550
v 0.143636 0.603350 0.455282
v 0.142489 0.602483 0.455434
v 0.142489 0.585682 0.458397
v 0.141609 0.586811 0.458198
v 0.141609 0.601354 0.455634
v 0.141056 0.588126 0.457966
v 0.141056 0.600039 0.455866
v 0.140867 0.589538 0.457717
v 0.140867 0.598627 0.456114
v 0.140867 0.594083 0.456916
v 0.166709 0.606004 0.466060
v 0.166709 0.604081 0.455153
v 0.146405 0.606004 0.466060
v 0.146647 0.602689 0.468519
v 0.140867 0.600550 0.467022
v 0.144559 0.592020 0.470400
v 0.144559 0.600633 0.468881
v 0.140867 0.591461 0.468624
v 0.140867 0.596006 0.467823
v 0.141056 0.590050 0.468873
v 0.144652 0.591319 0.470524
v 0.141609 0.588734 0.469105
v 0.144834 0.590888 0.470600
v 0.142489 0.587605 0.469304
v 0.145122 0.590518 0.470665
v 0.143636 0.586738 0.469457
v 0.145498 0.590235 0.470715
v 0.144971 0.586193 0.469553
v 0.145935 0.590056 0.470746
v 0.146405 0.586008 0.469586
v 0.146647 0.589964 0.470763
v 0.166467 0.589964 0.470763
v 0.166709 0.586008 0.469586
v 0.167179 0.590056 0.470746
v 0.168143 0.586193 0.469553
v 0.167616 0.590235 0.470715
v 0.169478 0.586738 0.469457
v 0.167992 0.590518 0.470665
v 0.170625 0.587605 0.469304
v 0.168280 0.590888 0.470600
v 0.171505 0.588734 0.469105
v 0.168462 0.591319 0.470524
v 0.172058 0.590050 0.468873
v 0.168555 0.592020 0.470400
v 0.172247 0.591461 0.468624
v 0.168555 0.600633 0.468881
v 0.172247 0.600550 0.467022
v 0.172058 0.601962 0.466773
v 0.168462 0.601333 0.468758
v 0.145935 0.602597 0.468535
v 0.144971 0.605818 0.466093
v 0.145498 0.602418 0.468567
v 0.143636 0.605273 0.466189
v 0.145122 0.602134 0.468617
v 0.142489 0.604407 0.466342
v 0.144834 0.601764 0.468682
v 0.141609 0.603277 0.466541
v 0.144652 0.601333 0.468758
v 0.141056 0.601962 0.466773
v 0.171505 0.603277 0.466541
v 0.171505 0.601354 0.455634
v 0.146405 0.584084 0.458679
v 0.166709 0.586008 0.469586
v 0.146405 0.586008 0.469586
v 0.166709 0.584084 0.458679
v 0.144971 0.584270 0.458646
v 0.144971 0.586193 0.469553
v 0.143636 0.584815 0.458550
v 0.143636 0.586738 0.469457
v 0.142489 0.585682 0.458397
v 0.142489 0.587605 0.469304
v 0.141609 0.588734 0.469105
v 0.141609 0.586811 0.458198
v 0.141056 0.590050 0.468873
v 0.141056 0.588126 0.457966
v 0.140867 0.591461 0.468624
v 0.140867 0.589538 0.457717
v 0.140867 0.596006 0.467823
v 0.140867 0.594083 0.456916
v 0.140867 0.600550 0.467022
v 0.140867 0.598627 0.456114
v 0.141056 0.601962 0.466773
v 0.141056 0.600039 0.455866
v 0.141609 0.603277 0.466541
v 0.141609 0.601354 0.455634
v 0.142489 0.604407 0.466342
v 0.142489 0.602483 0.455434
v 0.143636 0.603350 0.455282
v 0.143636 0.605273 0.466189
v 0.144971 0.603895 0.455186
v 0.144971 0.605818 0.466093
v 0.146405 0.604081 0.455153
v 0.146405 0.606004 0.466060
v 0.172058 0.601962 0.466773
v 0.172058 0.600039 0.455866
v 0.172247 0.600550 0.467022
v 0.172247 0.598627 0.456114
v 0.172247 0.591461 0.468624
v 0.172247 0.589538 0.457717
v 0.172058 0.590050 0.468873
v 0.172058 0.588126 0.457966
v 0.171505 0.588734 0.469105
v 0.171505 0.586811 0.458198
v 0.170625 0.587605 0.469304
v 0.170625 0.585682 0.458397
v 0.169478 0.584815 0.458550
v 0.169478 0.586738 0.469457
v 0.168143 0.584270 0.458646
v 0.168143 0.586193 0.469553
vn 0.11495320885318853 0.5780744197702807 0.80784634985968
vn 0.22207251912516898 0.5343782081254439 0.8155511798348656
vn 0.314057928025275 0.4648676200926148 0.8278077757752094
vn 0.5000000204457242 0.8528685182469591 -0.15038374292958645
vn 0.25881902170434745 0.9512512464180036 -0.16773127374523514
vn 0.029199042495119364 0.5941053456097217 0.8038571105832936
vn 0 0.17364819129118916 0.9848077506098835
vn 0.3846408312230901 0.37427967867193135 0.8437808679326915
vn 0.7071067989179701 0.6963642211592761 -0.12278781052374911
vn 0 -0.17364819129118916 -0.9848077506098835
vn 0.06540313477939967 0.9826992012624178 -0.17327639712099818
vn -0.029199042495119364 0.5941053456097217 0.8038571105832936
vn -0.4454912336531026 0.18413758362680277 0.8761454850847084
vn -0.4454912336531026 0.12662670036189272 0.8862862063090546
vn -0.44721361344289656 0.15531566240091496 0.8808388212177712
vn -0.42901112936486635 0.04237414632133747 0.9023047614883898
vn -0.3846408312230901 -0.06311777329191437 0.9209058462463363
vn -0.314057928025275 -0.1537057122042151 0.9368789526295624
vn -0.22207251912516898 -0.22321630120622918 0.949135543073386
vn -0.11495320885318853 -0.2669125156844111 0.9568403569798748
vn -0.029199042495119364 -0.28334105854118546 0.9585745982771131
vn 0.029199042495119364 -0.28334105854118546 0.9585745982771131
vn 0.11495320885318853 -0.2669125156844111 0.9568403569798748
vn 0.22207251912516898 -0.22321630120622918 0.949135543073386
vn 0.314057928025275 -0.1537057122042151 0.9368789526295624
vn 0.3846408312230901 -0.06311777329191437 0.9209058462463363
vn 0.42901112936486635 0.04237414632133747 0.9023047614883898
vn 0.4454912336531026 0.12662670036189272 0.8862862063090546
vn 0.4454912336531026 0.18413758362680277 0.8761454850847084
vn 0.42901112936486635 0.2687877550985629 0.8623819302317026
vn -0.11495320885318853 0.5780744197702807 0.80784634985968
vn -0.22207251912516898 0.5343782081254439 0.8155511798348656
vn -0.314057928025275 0.4648676200926148 0.8278077757752094
vn -0.3846408312230901 0.37427967867193135 0.8437808679326915
vn -0.42901112936486635 0.2687877550985629 0.8623819302317026
vn 0.8660254136965634 0.4924038583974631 -0.08682409266434968
vn -0.06540313477939967 -0.9826992012624178 0.17327639712099818
vn 0.06540313477939967 -0.9826992012624178 0.17327639712099818
vn -0.25881902170434745 -0.9512512464180036 0.16773127374523514
vn -0.5000000204457242 -0.8528685182469591 0.15038374292958645
vn -0.7071067989179701 -0.6963642211592761 0.12278781052374911
vn -0.8660254136965634 -0.4924038583974631 0.08682409266434968
vn -0.9659258390487391 -0.254886954726118 0.04494345078468294
vn -0.9978589233030251 -0.06440950761203464 0.011357134924922522
vn -1 0 0
vn -0.9978589233030251 0.06440950761203464 -0.011357134924922522
vn -0.9659258390487391 0.254886954726118 -0.04494345078468294
vn -0.8660254136965634 0.4924038583974631 -0.08682409266434968
vn -0.7071067989179701 0.6963642211592761 -0.12278781052374911
vn -0.5000000204457242 0.8528685182469591 -0.15038374292958645
vn -0.25881902170434745 0.9512512464180036 -0.16773127374523514
vn -0.06540313477939967 0.9826992012624178 -0.17327639712099818
vn 0.9659258390487391 0.254886954726118 -0.04494345078468294
vn 0.9978589233030251 0.06440950761203464 -0.011357134924922522
vn 0.9978589233030251 -0.06440950761203464 0.011357134924922522
vn 0.9659258390487391 -0.254886954726118 0.04494345078468294
vn 0.8660254136965634 -0.4924038583974631 0.08682409266434968
vn 0.7071067989179701 -0.6963642211592761 0.12278781052374911
vn 0.5000000204457242 -0.8528685182469591 0.15038374292958645
vn 0.25881902170434745 -0.9512512464180036 0.16773127374523514
usemtl material_0_0
f 1//1 2//2 3//2
f 2//2 1//1 4//1
f 3//2 5//3 6//3
f 5//3 3//2 2//2
f 7//4 8//5 9//4
f 8//5 7//4 10//5
f 11//6 4//1 1//1
f 4//1 11//6 12//6
f 13//7 14//7 15//7
f 14//7 13//7 16//7
f 16//7 13//7 17//7
f 16//7 17//7 18//7
f 18//7 17//7 19//7
f 18//7 19//7 20//7
f 20//7 19//7 21//7
f 20//7 21//7 22//7
f 22//7 21//7 23//7
f 22//7 23//7 24//7
f 24//7 23//7 25//7
f 25//7 23//7 26//7
f 25//7 26//7 27//7
f 25//7 27//7 28//7
f 28//7 27//7 29//7
f 28//7 29//7 30//7
f 30//7 29//7 31//7
f 30//7 31//7 32//7
f 32//7 31//7 33//7
f 32//7 33//7 34//7
f 34//7 33//7 35//7
f 35//7 33//7 36//7
f 35//7 36//7 37//7
f 35//7 37//7 38//7
f 38//7 37//7 39//7
f 38//7 39//7 40//7
f 6//3 41//8 42//8
f 41//8 6//3 5//3
f 43//9 9//4 44//9
f 9//4 43//9 7//4
f 45//10 46//10 47//10
f 46//10 45//10 48//10
f 48//10 45//10 49//10
f 48//10 49//10 50//10
f 50//10 49//10 51//10
f 50//10 51//10 52//10
f 52//10 51//10 53//10
f 52//10 53//10 54//10
f 54//10 53//10 55//10
f 55//10 53//10 56//10
f 55//10 56//10 57//10
f 55//10 57//10 58//10
f 58//10 57//10 59//10
f 58//10 59//10 60//10
f 60//10 59//10 61//10
f 60//10 61//10 62//10
f 62//10 61//10 63//10
f 62//10 63//10 64//10
f 64//10 63//10 65//10
f 65//10 63//10 66//10
f 65//10 66//10 67//10
f 65//10 67//10 68//10
f 68//10 67//10 69//10
f 68//10 69//10 70//10
f 70//10 69//10 71//10
f 70//10 71//10 72//10
f 72//10 71//10 73//10
f 10//5 74//11 8//5
f 74//11 10//5 75//11
f 76//12 12//6 11//6
f 12//6 76//12 77//12
f 78//13 79//14 80//13
f 79//14 78//13 81//14
f 81//14 78//13 82//15
f 79//14 83//16 84//16
f 83//16 79//14 81//14
f 84//16 85//17 86//17
f 85//17 84//16 83//16
f 86//17 87//18 88//18
f 87//18 86//17 85//17
f 88//18 89//19 90//19
f 89//19 88//18 87//18
f 90//19 91//20 92//20
f 91//20 90//19 89//19
f 92//20 93//21 94//21
f 93//21 92//20 91//20
f 95//22 93//21 96//22
f 93//21 95//22 94//21
f 97//23 96//22 98//23
f 96//22 97//23 95//22
f 99//24 98//23 100//24
f 98//23 99//24 97//23
f 101//25 100//24 102//25
f 100//24 101//25 99//24
f 103//26 102//25 104//26
f 102//25 103//26 101//25
f 105//27 104//26 106//27
f 104//26 105//27 103//26
f 107//28 106//27 108//28
f 106//27 107//28 105//27
f 109//29 108//28 110//29
f 108//28 109//29 107//28
f 111//30 109//29 110//29
f 109//29 111//30 112//30
f 42//8 112//30 111//30
f 112//30 42//8 41//8
f 76//12 113//31 77//12
f 113//31 76//12 114//31
f 114//31 115//32 113//31
f 115//32 114//31 116//32
f 116//32 117//33 115//32
f 117//33 116//32 118//33
f 118//33 119//34 117//33
f 119//34 118//33 120//34
f 120//34 121//35 119//34
f 121//35 120//34 122//35
f 122//35 80//13 121//35
f 80//13 122//35 78//13
f 43//9 123//36 124//36
f 123//36 43//9 44//9
f 125//37 126//38 127//37
f 126//38 125//37 128//38
f 129//39 127//37 130//39
f 127//37 129//39 125//37
f 131//40 130//39 132//40
f 130//39 131//40 129//39
f 133//41 132//40 134//41
f 132//40 133//41 131//40
f 135//42 133//41 134//41
f 133//41 135//42 136//42
f 137//43 136//42 135//42
f 136//42 137//43 138//43
f 139//44 138//43 137//43
f 138//43 139//44 140//44
f 141//45 140//44 139//44
f 140//44 141//45 142//45
f 142//45 141//45 143//46
f 142//45 143//46 144//46
f 145//47 144//46 143//46
f 144//46 145//47 146//47
f 147//48 146//47 145//47
f 146//47 147//48 148//48
f 149//49 148//48 147//48
f 148//48 149//49 150//49
f 151//50 149//49 152//50
f 149//49 151//50 150//49
f 153//51 152//50 154//51
f 152//50 153//51 151//50
f 155//52 154//51 156//52
f 154//51 155//52 153//51
f 75//11 156//52 74//11
f 156//52 75//11 155//52
f 124//36 157//53 158//53
f 157//53 124//36 123//36
f 158//53 159//54 160//54
f 159//54 158//53 157//53
f 160//54 161//55 162//55
f 161//55 160//54 159//54
f 162//55 163//56 164//56
f 163//56 162//55 161//55
f 164//56 165//57 166//57
f 165//57 164//56 163//56
f 166//57 167//58 168//58
f 167//58 166//57 165//57
f 169//59 167//58 170//59
f 167//58 169//59 168//58
f 171//60 170//59 172//60
f 170//59 171//60 169//59
f 128//38 172//60 126//38
f 172//60 128//38 171//60
