# SSTK version 0.8.0
# 55
mtllib original-55.mtl
o group_8/ID358#ID358
v 0.467272 0.603895 0.455186
v 0.465839 0.606004 0.466060
v 0.467272 0.605818 0.466093
v 0.465839 0.604081 0.455153
v 0.468608 0.603350 0.455282
v 0.468608 0.605273 0.466189
v 0.471188 0.588126 0.457966
v 0.471377 0.598627 0.456114
v 0.471377 0.589538 0.457717
v 0.471188 0.600039 0.455866
v 0.470635 0.586811 0.458198
v 0.470635 0.601354 0.455634
v 0.469755 0.585682 0.458397
v 0.469755 0.602483 0.455434
v 0.468608 0.584815 0.458550
v 0.468608 0.603350 0.455282
v 0.467272 0.603895 0.455186
v 0.467272 0.584270 0.458646
v 0.465839 0.584084 0.458679
v 0.465839 0.604081 0.455153
v 0.445534 0.584084 0.458679
v 0.445534 0.604081 0.455153
v 0.444101 0.584270 0.458646
v 0.444101 0.603895 0.455186
v 0.442765 0.584815 0.458550
v 0.442765 0.603350 0.455282
v 0.441618 0.602483 0.455434
v 0.441618 0.585682 0.458397
v 0.440738 0.586811 0.458198
v 0.440738 0.601354 0.455634
v 0.440185 0.588126 0.457966
v 0.440185 0.600039 0.455866
v 0.439996 0.589538 0.457717
v 0.439996 0.598627 0.456114
v 0.439996 0.594083 0.456916
v 0.445534 0.606004 0.466060
v 0.445534 0.604081 0.455153
v 0.465839 0.606004 0.466060
v 0.466308 0.602597 0.468535
v 0.467272 0.605818 0.466093
v 0.465597 0.602689 0.468519
v 0.469755 0.602483 0.455434
v 0.469755 0.604407 0.466342
v 0.466746 0.602418 0.468567
v 0.468608 0.605273 0.466189
v 0.445534 0.584084 0.458679
v 0.465839 0.586008 0.469586
v 0.445534 0.586008 0.469586
v 0.465839 0.584084 0.458679
v 0.444101 0.584270 0.458646
v 0.444101 0.586193 0.469553
v 0.442765 0.584815 0.458550
v 0.442765 0.586738 0.469457
v 0.441618 0.585682 0.458397
v 0.441618 0.587605 0.469304
v 0.440738 0.588734 0.469105
v 0.440738 0.586811 0.458198
v 0.440185 0.590050 0.468873
v 0.440185 0.588126 0.457966
v 0.439996 0.591461 0.468624
v 0.439996 0.589538 0.457717
v 0.439996 0.596006 0.467823
v 0.439996 0.594083 0.456916
v 0.439996 0.600550 0.467022
v 0.439996 0.598627 0.456114
v 0.440185 0.601962 0.466773
v 0.440185 0.600039 0.455866
v 0.440738 0.603277 0.466541
v 0.440738 0.601354 0.455634
v 0.441618 0.604407 0.466342
v 0.441618 0.602483 0.455434
v 0.442765 0.603350 0.455282
v 0.442765 0.605273 0.466189
v 0.444101 0.603895 0.455186
v 0.444101 0.605818 0.466093
v 0.470635 0.603277 0.466541
v 0.470635 0.601354 0.455634
v 0.471188 0.601962 0.466773
v 0.471188 0.600039 0.455866
v 0.471377 0.600550 0.467022
v 0.471377 0.598627 0.456114
v 0.471377 0.591461 0.468624
v 0.471377 0.589538 0.457717
v 0.471188 0.590050 0.468873
v 0.471188 0.588126 0.457966
v 0.470635 0.588734 0.469105
v 0.470635 0.586811 0.458198
v 0.469755 0.587605 0.469304
v 0.469755 0.585682 0.458397
v 0.468608 0.584815 0.458550
v 0.468608 0.586738 0.469457
v 0.467272 0.584270 0.458646
v 0.467272 0.586193 0.469553
v 0.445534 0.606004 0.466060
v 0.445776 0.602689 0.468519
v 0.467591 0.601333 0.468758
v 0.467685 0.592020 0.470400
v 0.467685 0.600633 0.468881
v 0.467591 0.591319 0.470524
v 0.467410 0.601764 0.468682
v 0.467410 0.590888 0.470600
v 0.467122 0.602134 0.468617
v 0.467122 0.590518 0.470665
v 0.466746 0.602418 0.468567
v 0.466746 0.590235 0.470715
v 0.466308 0.602597 0.468535
v 0.466308 0.590056 0.470746
v 0.465597 0.589964 0.470763
v 0.465597 0.602689 0.468519
v 0.445776 0.602689 0.468519
v 0.445776 0.589964 0.470763
v 0.445064 0.602597 0.468535
v 0.445064 0.590056 0.470746
v 0.444627 0.602418 0.468567
v 0.444627 0.590235 0.470715
v 0.444251 0.602134 0.468617
v 0.444251 0.590518 0.470665
v 0.443963 0.590888 0.470600
v 0.443963 0.601764 0.468682
v 0.443782 0.601333 0.468758
v 0.443782 0.591319 0.470524
v 0.443688 0.600633 0.468881
v 0.443688 0.592020 0.470400
v 0.467122 0.602134 0.468617
v 0.469755 0.604407 0.466342
v 0.465597 0.589964 0.470763
v 0.445534 0.586008 0.469586
v 0.465839 0.586008 0.469586
v 0.445776 0.589964 0.470763
v 0.445064 0.590056 0.470746
v 0.444101 0.586193 0.469553
v 0.444627 0.590235 0.470715
v 0.442765 0.586738 0.469457
v 0.444251 0.590518 0.470665
v 0.441618 0.587605 0.469304
v 0.443963 0.590888 0.470600
v 0.440738 0.588734 0.469105
v 0.443782 0.591319 0.470524
v 0.440185 0.590050 0.468873
v 0.443688 0.592020 0.470400
v 0.439996 0.591461 0.468624
v 0.439996 0.600550 0.467022
v 0.443688 0.600633 0.468881
v 0.439996 0.596006 0.467823
v 0.440185 0.601962 0.466773
v 0.443782 0.601333 0.468758
v 0.440738 0.603277 0.466541
v 0.443963 0.601764 0.468682
v 0.441618 0.604407 0.466342
v 0.444251 0.602134 0.468617
v 0.442765 0.605273 0.466189
v 0.444627 0.602418 0.468567
v 0.444101 0.605818 0.466093
v 0.445064 0.602597 0.468535
v 0.467410 0.601764 0.468682
v 0.470635 0.603277 0.466541
v 0.467591 0.601333 0.468758
v 0.471188 0.601962 0.466773
v 0.467685 0.600633 0.468881
v 0.471377 0.600550 0.467022
v 0.471377 0.591461 0.468624
v 0.467685 0.592020 0.470400
v 0.471188 0.590050 0.468873
v 0.467591 0.591319 0.470524
v 0.470635 0.588734 0.469105
v 0.467410 0.590888 0.470600
v 0.469755 0.587605 0.469304
v 0.467122 0.590518 0.470665
v 0.468608 0.586738 0.469457
v 0.466746 0.590235 0.470715
v 0.467272 0.586193 0.469553
v 0.466308 0.590056 0.470746
vn 0.25881902170434745 0.9512512464180036 -0.16773127374523514
vn 0.06540313477939967 0.9826992012624178 -0.17327639712099818
vn 0.5000000204457242 0.8528685182469591 -0.15038374292958645
vn 0 -0.17364819129118916 -0.9848077506098835
vn -0.06540313477939967 0.9826992012624178 -0.17327639712099818
vn 0.029199042495119364 0.5941053456097217 0.8038571105832936
vn 0.11495320885318853 0.5780744197702807 0.80784634985968
vn 0.7071067989179701 0.6963642211592761 -0.12278781052374911
vn 0.22207251912516898 0.5343782081254439 0.8155511798348656
vn -0.06540313477939967 -0.9826992012624178 0.17327639712099818
vn 0.06540313477939967 -0.9826992012624178 0.17327639712099818
vn -0.25881902170434745 -0.9512512464180036 0.16773127374523514
vn -0.5000000204457242 -0.8528685182469591 0.15038374292958645
vn -0.7071067989179701 -0.6963642211592761 0.12278781052374911
vn -0.8660254136965634 -0.4924038583974631 0.08682409266434968
vn -0.9659258390487391 -0.254886954726118 0.04494345078468294
vn -0.9978589233030251 -0.06440950761203464 0.011357134924922522
vn -1 0 0
vn -0.9978589233030251 0.06440950761203464 -0.011357134924922522
vn -0.9659258390487391 0.254886954726118 -0.04494345078468294
vn -0.8660254136965634 0.4924038583974631 -0.08682409266434968
vn -0.7071067989179701 0.6963642211592761 -0.12278781052374911
vn -0.5000000204457242 0.8528685182469591 -0.15038374292958645
vn -0.25881902170434745 0.9512512464180036 -0.16773127374523514
vn 0.8660254136965634 0.4924038583974631 -0.08682409266434968
vn 0.9659258390487391 0.254886954726118 -0.04494345078468294
vn 0.9978589233030251 0.06440950761203464 -0.011357134924922522
vn 0.9978589233030251 -0.06440950761203464 0.011357134924922522
vn 0.9659258390487391 -0.254886954726118 0.04494345078468294
vn 0.8660254136965634 -0.4924038583974631 0.08682409266434968
vn 0.7071067989179701 -0.6963642211592761 0.12278781052374911
vn 0.5000000204457242 -0.8528685182469591 0.15038374292958645
vn 0.25881902170434745 -0.9512512464180036 0.16773127374523514
vn -0.029199042495119364 0.5941053456097217 0.8038571105832936
vn 0 0.17364819129118916 0.9848077506098835
vn 0.314057928025275 0.4648676200926148 0.8278077757752094
vn 0.029199042495119364 -0.28334105854118546 0.9585745982771131
vn -0.029199042495119364 -0.28334105854118546 0.9585745982771131
vn -0.11495320885318853 -0.2669125156844111 0.9568403569798748
vn -0.22207251912516898 -0.22321630120622918 0.949135543073386
vn -0.314057928025275 -0.1537057122042151 0.9368789526295624
vn -0.3846408312230901 -0.06311777329191437 0.9209058462463363
vn -0.42901112936486635 0.04237414632133747 0.9023047614883898
vn -0.4454912336531026 0.12662670036189272 0.8862862063090546
vn -0.4454912336531026 0.18413758362680277 0.8761454850847084
vn -0.44721361344289656 0.15531566240091496 0.8808388212177712
vn -0.42901112936486635 0.2687877550985629 0.8623819302317026
vn -0.3846408312230901 0.37427967867193135 0.8437808679326915
vn -0.314057928025275 0.4648676200926148 0.8278077757752094
vn -0.22207251912516898 0.5343782081254439 0.8155511798348656
vn -0.11495320885318853 0.5780744197702807 0.80784634985968
vn 0.3846408312230901 0.37427967867193135 0.8437808679326915
vn 0.42901112936486635 0.2687877550985629 0.8623819302317026
vn 0.4454912336531026 0.18413758362680277 0.8761454850847084
vn 0.4454912336531026 0.12662670036189272 0.8862862063090546
vn 0.42901112936486635 0.04237414632133747 0.9023047614883898
vn 0.3846408312230901 -0.06311777329191437 0.9209058462463363
vn 0.314057928025275 -0.1537057122042151 0.9368789526295624
vn 0.22207251912516898 -0.22321630120622918 0.949135543073386
vn 0.11495320885318853 -0.2669125156844111 0.9568403569798748
usemtl material_0_0
f 1//1 2//2 3//1
f 2//2 1//1 4//2
f 5//3 3//1 6//3
f 3//1 5//3 1//1
f 7//4 8//4 9//4
f 8//4 7//4 10//4
f 10//4 7//4 11//4
f 10//4 11//4 12//4
f 12//4 11//4 13//4
f 12//4 13//4 14//4
f 14//4 13//4 15//4
f 14//4 15//4 16//4
f 16//4 15//4 17//4
f 17//4 15//4 18//4
f 17//4 18//4 19//4
f 17//4 19//4 20//4
f 20//4 19//4 21//4
f 20//4 21//4 22//4
f 22//4 21//4 23//4
f 22//4 23//4 24//4
f 24//4 23//4 25//4
f 24//4 25//4 26//4
f 26//4 25//4 27//4
f 27//4 25//4 28//4
f 27//4 28//4 29//4
f 27//4 29//4 30//4
f 30//4 29//4 31//4
f 30//4 31//4 32//4
f 32//4 31//4 33//4
f 32//4 33//4 34//4
f 34//4 33//4 35//4
f 4//2 36//5 2//2
f 36//5 4//2 37//5
f 38//6 39//7 40//7
f 39//7 38//6 41//6
f 42//8 6//3 43//8
f 6//3 42//8 5//3
f 40//7 44//9 45//9
f 44//9 40//7 39//7
f 46//10 47//11 48//10
f 47//11 46//10 49//11
f 50//12 48//10 51//12
f 48//10 50//12 46//10
f 52//13 51//12 53//13
f 51//12 52//13 50//12
f 54//14 53//13 55//14
f 53//13 54//14 52//13
f 56//15 54//14 55//14
f 54//14 56//15 57//15
f 58//16 57//15 56//15
f 57//15 58//16 59//16
f 60//17 59//16 58//16
f 59//16 60//17 61//17
f 62//18 61//17 60//17
f 61//17 62//18 63//18
f 63//18 62//18 64//19
f 63//18 64//19 65//19
f 66//20 65//19 64//19
f 65//19 66//20 67//20
f 68//21 67//20 66//20
f 67//20 68//21 69//21
f 70//22 69//21 68//21
f 69//21 70//22 71//22
f 72//23 70//22 73//23
f 70//22 72//23 71//22
f 74//24 73//23 75//24
f 73//23 74//24 72//23
f 37//5 75//24 36//5
f 75//24 37//5 74//24
f 42//8 76//25 77//25
f 76//25 42//8 43//8
f 77//25 78//26 79//26
f 78//26 77//25 76//25
f 79//26 80//27 81//27
f 80//27 79//26 78//26
f 81//27 82//28 83//28
f 82//28 81//27 80//27
f 83//28 84//29 85//29
f 84//29 83//28 82//28
f 85//29 86//30 87//30
f 86//30 85//29 84//29
f 87//30 88//31 89//31
f 88//31 87//30 86//30
f 90//32 88//31 91//32
f 88//31 90//32 89//31
f 92//33 91//32 93//33
f 91//32 92//33 90//32
f 49//11 93//33 47//11
f 93//33 49//11 92//33
f 94//34 41//6 38//6
f 41//6 94//34 95//34
f 96//35 97//35 98//35
f 97//35 96//35 99//35
f 99//35 96//35 100//35
f 99//35 100//35 101//35
f 101//35 100//35 102//35
f 101//35 102//35 103//35
f 103//35 102//35 104//35
f 103//35 104//35 105//35
f 105//35 104//35 106//35
f 105//35 106//35 107//35
f 107//35 106//35 108//35
f 108//35 106//35 109//35
f 108//35 109//35 110//35
f 108//35 110//35 111//35
f 111//35 110//35 112//35
f 111//35 112//35 113//35
f 113//35 112//35 114//35
f 113//35 114//35 115//35
f 115//35 114//35 116//35
f 115//35 116//35 117//35
f 117//35 116//35 118//35
f 118//35 116//35 119//35
f 118//35 119//35 120//35
f 118//35 120//35 121//35
f 121//35 120//35 122//35
f 121//35 122//35 123//35
f 45//9 124//36 125//36
f 124//36 45//9 44//9
f 126//37 127//38 128//37
f 127//38 126//37 129//38
f 130//39 127//38 129//38
f 127//38 130//39 131//39
f 132//40 131//39 130//39
f 131//39 132//40 133//40
f 134//41 133//40 132//40
f 133//40 134//41 135//41
f 136//42 135//41 134//41
f 135//41 136//42 137//42
f 138//43 137//42 136//42
f 137//42 138//43 139//43
f 140//44 139//43 138//43
f 139//43 140//44 141//44
f 142//45 140//44 143//45
f 140//44 142//45 141//44
f 141//44 142//45 144//46
f 145//47 143//45 146//47
f 143//45 145//47 142//45
f 147//48 146//47 148//48
f 146//47 147//48 145//47
f 149//49 148//48 150//49
f 148//48 149//49 147//48
f 151//50 150//49 152//50
f 150//49 151//50 149//49
f 153//51 152//50 154//51
f 152//50 153//51 151//50
f 94//34 154//51 95//34
f 154//51 94//34 153//51
f 125//36 155//52 156//52
f 155//52 125//36 124//36
f 156//52 157//53 158//53
f 157//53 156//52 155//52
f 158//53 159//54 160//54
f 159//54 158//53 157//53
f 159//54 161//55 160//54
f 161//55 159//54 162//55
f 162//55 163//56 161//55
f 163//56 162//55 164//56
f 164//56 165//57 163//56
f 165//57 164//56 166//57
f 166//57 167//58 165//57
f 167//58 166//57 168//58
f 168//58 169//59 167//58
f 169//59 168//58 170//59
f 170//59 171//60 169//59
f 171//60 170//59 172//60
f 172//60 128//37 171//60
f 128//37 172//60 126//37
