mtllib new-4.mtl
v -0.438293 0.271729 0.359870
v 0.420557 0.271729 0.359870
v -0.368926 0.271729 0.382641
v 0.351191 0.271729 0.382641
v -0.269505 0.271729 0.386010
v -0.280845 0.271729 0.387011
v -0.292002 0.271729 0.389269
v -0.302837 0.271729 0.392757
v -0.313217 0.271729 0.397431
v -0.258125 0.271729 0.386281
v 0.280627 0.271729 0.401376
v -0.246845 0.271729 0.387819
v -0.235809 0.271729 0.390605
v -0.225149 0.271729 0.394604
v -0.215004 0.271729 0.399767
v -0.205497 0.271729 0.406029
v 0.209100 0.271729 0.416013
v -0.196747 0.271729 0.413312
v -0.188867 0.271729 0.421525
v 0.171131 0.271729 0.421525
v -0.196749 -0.764039 0.413312
v -0.188867 -0.764039 0.421525
v 0.171131 -0.764039 0.421525
v 0.209100 -0.764039 0.416013
v 0.280627 -0.764039 0.401376
v 0.351191 -0.764039 0.382641
v 0.420557 -0.764039 0.359870
v -0.368926 -0.764039 0.382641
v -0.438293 -0.764039 0.359870
v -0.313217 -0.764039 0.397431
v -0.302837 -0.764039 0.392757
v -0.292002 -0.764039 0.389269
v -0.280845 -0.764039 0.387011
v -0.269505 -0.764039 0.386012
v -0.258125 -0.764039 0.386282
v -0.246845 -0.764039 0.387820
v -0.235809 -0.764039 0.390606
v -0.225151 -0.764039 0.394605
v -0.215004 -0.764039 0.399768
v -0.205499 -0.764039 0.406030
v 0.337174 -0.764039 0.359870
v 0.420557 -0.764039 0.334855
v 0.420557 0.271729 0.359870
v 0.420557 -0.764039 0.359870
v 0.420557 0.271729 0.334855
v -0.438293 0.271729 0.359870
v -0.438293 -0.764039 0.334855
v -0.438293 -0.764039 0.359870
v -0.438293 0.271729 0.334855
vn 0.650408 0.595889 0.471047
vn -0.650408 0.595889 0.471047
vn -0.650408 -0.595889 -0.471047
vn 0.650408 -0.595889 -0.471047
vn 0.202893 0.700675 0.684024
vn -0.202893 -0.700675 -0.684024
vn 0.000000 1.000000 0.000000
vn 0.000000 -1.000000 0.000000
vn 0.163130 0.700675 0.694581
vn -0.163130 -0.700675 -0.694581
vn 0.122824 0.700675 0.702829
vn -0.122824 -0.700675 -0.702829
vn 0.052047 0.691249 0.720740
vn -0.052047 -0.691249 -0.720740
vn -0.202893 0.700675 0.684024
vn 0.202893 -0.700675 -0.684024
vn 0.022267 0.719894 0.693727
vn -0.022267 -0.719894 -0.693727
vn 0.099480 0.719894 0.686918
vn -0.099480 -0.719894 -0.686918
vn 0.175452 0.719894 0.671543
vn -0.175452 -0.719894 -0.671543
vn 0.249235 0.719894 0.647792
vn -0.249235 -0.719894 -0.647792
vn 0.062869 0.638950 0.766675
vn -0.062869 -0.638950 -0.766675
vn -0.055223 0.719894 0.691884
vn 0.055223 -0.719894 -0.691884
vn -0.132025 0.719894 0.681412
vn 0.132025 -0.719894 -0.681412
vn -0.207180 0.719894 0.662442
vn 0.207180 -0.719894 -0.662442
vn -0.279751 0.719894 0.635210
vn 0.279751 -0.719894 -0.635210
vn -0.348834 0.719894 0.600056
vn 0.348834 -0.719894 -0.600056
vn -0.413566 0.719894 0.557419
vn 0.413566 -0.719894 -0.557419
vn -0.473138 0.719894 0.507832
vn 0.473138 -0.719894 -0.507832
vn -0.304986 0.628575 0.715456
vn 0.304986 -0.628575 -0.715456
vn -0.473139 -0.719893 0.507832
vn -0.304984 -0.628580 0.715452
vn 0.473139 0.719893 -0.507832
vn 0.304984 0.628580 -0.715452
vn 0.052047 -0.691249 0.720740
vn -0.052047 0.691249 -0.720740
vn 0.122824 -0.700675 0.702829
vn -0.122824 0.700675 -0.702829
vn 0.163130 -0.700675 0.694581
vn -0.163130 0.700675 -0.694581
vn 0.202893 -0.700675 0.684024
vn -0.202893 0.700675 -0.684024
vn 0.803685 -0.123703 0.582055
vn -0.803685 0.123703 -0.582055
vn -0.202893 -0.700675 0.684024
vn -0.803685 -0.123703 0.582055
vn 0.202893 0.700675 -0.684024
vn 0.803685 0.123703 -0.582055
vn 0.062869 -0.638955 0.766671
vn -0.062869 0.638955 -0.766671
vn 0.249236 -0.719893 0.647793
vn -0.249236 0.719893 -0.647793
vn 0.175452 -0.719893 0.671544
vn -0.175452 0.719893 -0.671544
vn 0.099480 -0.719893 0.686919
vn -0.099480 0.719893 -0.686919
vn 0.022267 -0.719893 0.693728
vn -0.022267 0.719893 -0.693728
vn -0.055224 -0.719893 0.691885
vn 0.055224 0.719893 -0.691885
vn -0.132025 -0.719893 0.681413
vn 0.132025 0.719893 -0.681413
vn -0.207181 -0.719893 0.662443
vn 0.207181 0.719893 -0.662443
vn -0.279752 -0.719893 0.635211
vn 0.279752 0.719893 -0.635211
vn -0.348834 -0.719893 0.600058
vn 0.348834 0.719893 -0.600058
vn -0.413566 -0.719893 0.557420
vn 0.413566 0.719893 -0.557420
vn 1.000000 0.000000 0.000000
vn 0.650408 0.595889 0.471047
vn 0.803685 -0.123703 0.582055
vn -1.000000 0.000000 0.000000
vn -0.650408 -0.595889 -0.471047
vn -0.803685 0.123703 -0.582055
vn 0.707107 0.707107 0.000000
vn -0.707107 -0.707107 0.000000
vn -0.650408 0.595889 0.471047
vn -1.000000 0.000000 0.000000
vn -0.803685 -0.123703 0.582055
vn 0.650408 -0.595889 -0.471047
vn 1.000000 0.000000 0.000000
vn 0.803685 0.123703 -0.582055
vn -0.707107 0.707107 0.000000
vn 0.707107 -0.707107 0.000000
usemtl material-0
f 19//41 21//43 22//44
f 22//46 21//45 19//42
f 21//43 19//41 18//39
f 18//40 19//42 21//45
f 23//47 19//41 22//44
f 22//46 19//42 23//48
f 19//41 23//47 20//13
f 20//14 23//48 19//42
f 24//49 20//13 23//47
f 23//48 20//14 24//50
f 20//13 24//49 17//11
f 17//12 24//50 20//14
f 25//51 17//11 24//49
f 24//50 17//12 25//52
f 17//11 25//51 11//9
f 11//10 25//52 17//12
f 26//53 11//9 25//51
f 25//52 11//10 26//54
f 11//9 26//53 4//5
f 4//6 26//54 11//10
f 27//55 4//5 26//53
f 26//54 4//6 27//56
f 4//5 27//55 2//1
f 2//3 27//56 4//6
f 28//57 1//2 29//58
f 29//60 1//4 28//59
f 1//2 28//57 3//15
f 3//16 28//59 1//4
f 30//61 3//15 28//57
f 28//59 3//16 30//62
f 3//15 30//61 9//25
f 9//26 30//62 3//16
f 31//63 9//25 30//61
f 30//62 9//26 31//64
f 9//25 31//63 8//23
f 8//24 31//64 9//26
f 31//63 7//21 8//23
f 8//24 7//22 31//64
f 7//21 31//63 32//65
f 32//66 31//64 7//22
f 32//65 6//19 7//21
f 7//22 6//20 32//66
f 6//19 32//65 33//67
f 33//68 32//66 6//20
f 33//67 5//17 6//19
f 6//20 5//18 33//68
f 5//17 33//67 34//69
f 34//70 33//68 5//18
f 35//71 5//17 34//69
f 34//70 5//18 35//72
f 5//17 35//71 10//27
f 10//28 35//72 5//18
f 36//73 10//27 35//71
f 35//72 10//28 36//74
f 10//27 36//73 12//29
f 12//30 36//74 10//28
f 37//75 12//29 36//73
f 36//74 12//30 37//76
f 12//29 37//75 13//31
f 13//32 37//76 12//30
f 38//77 13//31 37//75
f 37//76 13//32 38//78
f 13//31 38//77 14//33
f 14//34 38//78 13//32
f 39//79 14//33 38//77
f 38//78 14//34 39//80
f 14//33 39//79 15//35
f 15//36 39//80 14//34
f 40//81 15//35 39//79
f 39//80 15//36 40//82
f 15//35 40//81 16//37
f 16//38 40//82 15//36
f 21//43 16//37 40//81
f 40//82 16//38 21//45
f 16//37 21//43 18//39
f 18//40 21//45 16//38
f 26//53 41//8 27//55
f 27//56 41//7 26//54
f 29//58 26//53 28//57
f 28//59 26//54 29//60
f 28//57 26//53 25//51
f 25//52 26//54 28//59
f 28//57 25//51 35//71
f 35//72 25//52 28//59
f 28//57 35//71 34//69
f 34//70 35//72 28//59
f 35//71 25//51 36//73
f 36//74 25//52 35//72
f 36//73 25//51 37//75
f 37//76 25//52 36//74
f 37//75 25//51 38//77
f 38//78 25//52 37//76
f 38//77 25//51 39//79
f 39//80 25//52 38//78
f 39//79 25//51 40//81
f 40//82 25//52 39//80
f 40//81 25//51 24//49
f 24//50 25//52 40//82
f 40//81 24//49 21//43
f 21//45 24//50 40//82
f 21//43 24//49 22//44
f 22//46 24//50 21//45
f 22//44 24//49 23//47
f 23//48 24//50 22//46
f 28//57 31//63 30//61
f 30//62 31//64 28//59
f 31//63 28//57 32//65
f 32//66 28//59 31//64
f 32//65 28//57 33//67
f 33//68 28//59 32//66
f 33//67 28//57 34//69
f 34//70 28//59 33//68
usemtl material-1
f 42//83 43//84 44//85
f 44//88 43//87 42//86
f 43//84 42//83 45//89
f 45//90 42//86 43//87
usemtl material-6
f 46//91 47//92 48//93
f 48//96 47//95 46//94
f 47//92 46//91 49//97
f 49//98 46//94 47//95