mtllib new-6.mtl
v -0.368926 0.720190 0.382641
v 0.420557 0.720190 0.359870
v -0.438293 0.720190 0.359870
v 0.351191 0.720190 0.382641
v 0.420557 0.271729 0.334855
v -0.438293 0.279019 0.334855
v -0.438293 0.271729 0.334855
v 0.420557 0.279019 0.334855
v 0.420557 -0.764039 -0.382245
v 0.420557 -0.764039 0.334855
v 0.420557 -0.764039 0.276486
v 0.420557 -0.764039 -0.465629
v 0.420557 0.720190 -0.465629
v 0.420557 0.720190 0.334855
v -0.438293 -0.764039 0.334855
v -0.438293 -0.764039 -0.390583
v -0.438293 -0.764039 0.276486
v -0.438293 0.720190 -0.465629
v -0.438293 -0.764039 -0.465629
v -0.438293 0.720190 0.334855
v 0.351191 -0.764039 0.382641
v -0.438293 -0.764039 0.359870
v 0.420557 -0.764039 0.276486
v 0.420557 -0.805731 0.359870
v 0.420557 -0.805731 0.276486
v 0.420557 -0.764039 0.359870
v 0.420557 -0.764039 0.334855
v 0.337174 -0.764039 0.276486
v 0.420557 -0.764039 0.276486
v 0.337174 -0.764039 -0.382245
v 0.337174 -0.764039 0.334855
v -0.354909 -0.764039 0.276486
v 0.337174 -0.764039 0.276486
v -0.354909 -0.764039 0.334855
v -0.354909 -0.764039 -0.465629
v 0.337174 -0.764039 -0.465629
v -0.354909 -0.764039 -0.390583
v -0.438293 -0.805731 0.359870
v -0.438293 -0.764039 0.276486
v -0.438293 -0.805731 0.276486
v -0.438293 -0.764039 0.359870
v 0.337174 -0.764039 0.359870
v -0.354909 -0.764039 0.334855
v 0.337174 -0.764039 0.334855
v -0.354909 -0.764039 0.359870
v 0.337174 -0.764039 0.359870
v 0.420557 0.720190 0.334855
v 0.420557 0.720190 0.359870
v -0.438293 0.720190 0.359870
v -0.438293 0.720190 0.334855
vn -0.202920 0.700676 0.684015
vn 0.650408 0.595889 0.471047
vn -0.650408 0.595889 0.471047
vn 0.202920 -0.700676 -0.684015
vn -0.650408 -0.595889 -0.471047
vn 0.650408 -0.595889 -0.471047
vn 0.202893 0.700675 0.684024
vn -0.202893 -0.700675 -0.684024
vn 0.000000 1.000000 0.000000
vn 0.000000 -1.000000 0.000000
vn 0.894427 0.000000 0.447214
vn -0.894427 0.000000 0.447214
vn -0.894427 0.000000 -0.447214
vn 0.894427 0.000000 -0.447214
vn 0.707107 0.707107 0.000000
vn -0.707107 0.707107 0.000000
vn -0.707107 -0.707107 0.000000
vn 0.707107 -0.707107 0.000000
vn 0.894427 -0.447214 0.000000
vn 1.000000 0.000000 0.000000
vn -0.894427 0.447214 0.000000
vn -1.000000 0.000000 0.000000
vn 0.707107 0.000000 -0.707107
vn -0.707107 0.000000 0.707107
vn 0.577350 0.577350 -0.577350
vn -0.577350 -0.577350 0.577350
vn -0.894427 -0.447214 0.000000
vn 0.894427 0.447214 0.000000
vn -0.577350 0.577350 -0.577350
vn -0.707107 0.000000 -0.707107
vn 0.577350 -0.577350 0.577350
vn 0.707107 0.000000 0.707107
vn 0.202893 -0.700675 0.684024
vn -0.202893 0.700675 -0.684024
vn -0.803685 -0.123703 0.582055
vn 0.803685 0.123703 -0.582055
vn 0.577350 -0.577350 -0.577350
vn -0.577350 0.577350 0.577350
vn 0.000000 -0.447214 -0.894427
vn 0.000000 0.447214 0.894427
vn -0.577350 -0.577350 -0.577350
vn 0.577350 0.577350 0.577350
vn 0.707107 0.707107 0.000000
vn -0.707107 -0.707107 0.000000
vn 0.650408 0.595889 0.471047
vn -0.650408 -0.595889 -0.471047
vn -0.650408 0.595889 0.471047
vn -0.707107 0.707107 0.000000
vn 0.650408 -0.595889 -0.471047
vn 0.707107 -0.707107 0.000000
usemtl material-0
f 1//1 2//2 3//3
f 3//6 2//5 1//4
f 2//2 1//1 4//7
f 4//8 1//4 2//5
f 9//19 10//20 11//19
f 11//21 10//22 9//21
f 10//20 9//19 12//23
f 12//24 9//21 10//22
f 10//20 12//23 5//11
f 5//13 12//24 10//22
f 5//11 12//23 13//25
f 13//26 12//24 5//13
f 5//11 13//25 8//11
f 8//13 13//26 5//13
f 8//11 13//25 14//15
f 14//17 13//26 8//13
f 15//22 16//27 17//27
f 17//28 16//28 15//20
f 16//27 18//29 19//30
f 19//32 18//31 16//28
f 18//29 16//27 15//22
f 15//20 16//28 18//31
f 18//29 15//22 7//12
f 7//14 15//20 18//31
f 18//29 7//12 6//12
f 6//14 7//14 18//31
f 18//29 6//12 20//16
f 20//18 6//14 18//31
f 23//23 24//31 25//37
f 25//38 24//29 23//24
f 24//31 23//23 26//32
f 26//30 23//24 24//29
f 26//32 23//23 10//20
f 10//22 23//24 26//30
f 27//10 28//10 29//10
f 29//9 28//9 27//9
f 11//19 30//10 9//19
f 9//21 30//9 11//21
f 31//10 32//10 33//10
f 33//9 32//9 31//9
f 32//10 31//10 34//10
f 34//9 31//9 32//9
f 30//10 35//39 36//39
f 36//40 35//40 30//9
f 35//39 30//10 37//10
f 37//9 30//9 35//40
f 37//10 30//10 16//27
f 16//28 30//9 37//9
f 16//27 30//10 17//27
f 17//28 30//9 16//28
f 17//27 30//10 11//19
f 11//21 30//9 17//28
f 17//27 11//19 33//10
f 33//9 11//21 17//28
f 17//27 33//10 32//10
f 32//9 33//9 17//28
f 13//25 19//30 18//29
f 18//31 19//32 13//26
f 19//30 13//25 35//39
f 35//40 13//26 19//32
f 35//39 13//25 36//39
f 36//40 13//26 35//40
f 36//39 13//25 12//23
f 12//24 13//26 36//40
f 20//16 13//25 18//29
f 18//31 13//26 20//18
f 13//25 20//16 14//15
f 14//17 20//18 13//26
f 38//26 39//30 40//41
f 40//42 39//32 38//25
f 39//30 38//26 41//24
f 41//23 38//25 39//32
f 39//30 41//24 15//22
f 15//20 41//23 39//32
f 42//10 43//10 44//10
f 44//9 43//9 42//9
f 43//10 42//10 45//10
f 45//9 42//9 43//9
f 42//10 21//33 45//10
f 45//9 21//34 42//9
f 45//10 21//33 22//35
f 22//36 21//34 45//9
f 46//24 24//31 26//32
f 26//30 24//29 46//23
usemtl material-2
f 49//47 47//43 50//48
f 50//50 47//44 49//49
f 47//43 49//47 48//45
f 48//46 49//49 47//44