mtllib new-5.mtl
v -0.280845 0.279019 0.387011
v -0.292002 0.720190 0.389269
v -0.292002 0.279019 0.389269
v -0.280845 0.720190 0.387011
v -0.302837 0.720190 0.392757
v -0.302837 0.279019 0.392757
v 0.171131 0.279019 0.421525
v -0.188867 0.279019 0.421525
v 0.209100 0.279019 0.416013
v -0.196749 0.279019 0.413312
v -0.205499 0.279019 0.406030
v 0.280627 0.279019 0.401376
v -0.215004 0.279019 0.399768
v -0.225151 0.279019 0.394605
v -0.235809 0.279019 0.390606
v -0.246845 0.279019 0.387820
v -0.258125 0.279019 0.386282
v -0.269505 0.279019 0.386012
v 0.351191 0.279019 0.382641
v -0.313217 0.279019 0.397431
v -0.368926 0.279019 0.382641
v 0.420557 0.279019 0.359870
v -0.438293 0.279019 0.359870
v 0.420557 0.279019 0.334855
v -0.438293 0.279019 0.334855
v -0.269505 0.720190 0.386012
v -0.368926 0.720190 0.382641
v 0.420557 0.720190 0.359870
v -0.438293 0.720190 0.359870
v 0.351191 0.720190 0.382641
v -0.269505 0.720190 0.386012
v -0.280845 0.720190 0.387011
v -0.292002 0.720190 0.389269
v -0.302837 0.720190 0.392757
v -0.313217 0.720190 0.397431
v -0.258125 0.720190 0.386282
v 0.280627 0.720190 0.401376
v -0.246845 0.720190 0.387820
v -0.235809 0.720190 0.390606
v -0.225151 0.720190 0.394605
v -0.215004 0.720190 0.399768
v -0.205499 0.720190 0.406030
v 0.209100 0.720190 0.416013
v -0.196749 0.720190 0.413312
v -0.188867 0.720190 0.421525
v 0.171131 0.720190 0.421525
v -0.313220 0.328935 0.397440
v -0.313220 0.320597 0.397440
v -0.313220 0.337274 0.397440
v 0.420557 0.271729 0.334855
v -0.438293 0.279019 0.334855
v -0.438293 0.271729 0.334855
v 0.420557 0.279019 0.334855
v -0.313220 0.328935 0.397440
v -0.258125 0.720190 0.386282
v -0.246845 0.720190 0.387820
v -0.246845 0.692231 0.387820
v -0.235809 0.720190 0.390606
v -0.225151 0.720190 0.394605
v -0.215004 0.720190 0.399768
v -0.205499 0.720190 0.406030
v -0.196749 0.720190 0.413312
v -0.313217 0.720190 0.397431
v -0.188867 0.720190 0.421525
v -0.438293 0.271729 0.359870
v 0.420557 0.271729 0.334855
v -0.438293 0.271729 0.334855
v 0.420557 0.271729 0.359870
v -0.368926 0.271729 0.382641
v 0.351191 0.271729 0.382641
v -0.269505 0.271729 0.386010
v -0.280845 0.271729 0.387011
v -0.292002 0.271729 0.389269
v -0.302837 0.271729 0.392757
v -0.313217 0.271729 0.397431
v -0.258125 0.271729 0.386281
v 0.280627 0.271729 0.401376
v -0.246845 0.271729 0.387819
v -0.235809 0.271729 0.390605
v -0.225149 0.271729 0.394604
v -0.215004 0.271729 0.399767
v -0.205497 0.271729 0.406029
v 0.209100 0.271729 0.416013
v -0.196747 0.271729 0.413312
v -0.188867 0.271729 0.421525
v 0.171131 0.271729 0.421525
v 0.420557 0.720190 0.334855
v 0.420557 0.279019 0.359870
v 0.420557 0.279019 0.334855
v 0.420557 0.720190 0.359870
v -0.438293 0.720190 0.359870
v -0.438293 0.720190 0.334855
v -0.438293 0.279019 0.334855
v -0.438293 0.279019 0.359870
v -0.304688 0.712181 0.392647
v -0.188867 0.720190 0.421525
v -0.313217 0.720190 0.397431
v -0.294730 0.705284 0.389034
v -0.283634 0.699700 0.386696
v -0.271721 0.695591 0.385702
v -0.259337 0.693077 0.386080
v -0.246845 0.692231 0.387820
v -0.234608 0.693077 0.390872
v -0.222980 0.695591 0.395145
v -0.212299 0.699700 0.400517
v -0.202879 0.705284 0.406830
v -0.194992 0.712181 0.413901
vn 0.103078 -0.694753 0.711824
vn 0.252766 0.000000 0.967528
vn 0.181801 -0.694753 0.695893
vn -0.103078 0.694753 -0.711824
vn -0.252766 0.000000 -0.967528
vn -0.181801 0.694753 -0.695893
vn 0.143313 0.000000 0.989677
vn -0.143313 0.000000 -0.989677
vn 0.359214 0.000003 0.933255
vn 0.258363 -0.694755 0.671241
vn -0.359214 -0.000003 -0.933255
vn -0.258363 0.694755 -0.671241
vn 0.049707 -0.723683 0.688340
vn -0.231640 -0.806877 0.543409
vn 0.120590 -0.713654 0.690041
vn -0.049707 0.723683 -0.688340
vn 0.231640 0.806877 -0.543409
vn -0.120590 0.713654 -0.690041
vn -0.490283 -0.694753 0.526252
vn 0.490283 0.694753 -0.526252
vn -0.428551 -0.694753 0.577636
vn 0.428551 0.694753 -0.577636
vn 0.160162 -0.713654 0.681943
vn -0.160162 0.713654 -0.681943
vn -0.361474 -0.694753 0.621816
vn 0.361474 0.694753 -0.621816
vn -0.289889 -0.694753 0.658243
vn 0.289889 0.694753 -0.658243
vn -0.214689 -0.694753 0.686460
vn 0.214689 0.694753 -0.686460
vn -0.136812 -0.694753 0.706117
vn 0.136812 0.694753 -0.706117
vn -0.057229 -0.694753 0.716968
vn 0.057229 0.694753 -0.716968
vn 0.023068 -0.694753 0.718879
vn 0.199201 -0.713654 0.671578
vn -0.023068 0.694753 -0.718879
vn -0.199201 0.713654 -0.671578
vn 0.050102 -0.790764 0.610067
vn -0.199229 -0.713652 0.671572
vn -0.050102 0.790764 -0.610067
vn 0.199229 0.713652 -0.671572
vn 0.405768 -0.865443 0.293871
vn -0.405768 0.865443 -0.293871
vn -0.405768 -0.865443 0.293871
vn 0.405768 0.865443 -0.293871
vn 0.316228 -0.948683 0.000000
vn -0.316228 0.948683 0.000000
vn -0.948683 -0.316228 0.000000
vn 0.948683 0.316228 0.000000
vn 0.032073 0.000000 0.999486
vn -0.032073 0.000000 -0.999486
vn -0.202920 0.700676 0.684015
vn 0.650408 0.595889 0.471047
vn -0.650408 0.595889 0.471047
vn 0.202920 -0.700676 -0.684015
vn -0.650408 -0.595889 -0.471047
vn 0.650408 -0.595889 -0.471047
vn 0.202893 0.700675 0.684024
vn -0.202893 -0.700675 -0.684024
vn 0.000000 1.000000 0.000000
vn 0.000000 -1.000000 0.000000
vn 0.062950 0.638982 0.766642
vn -0.062950 -0.638982 -0.766642
vn 0.163130 0.700675 0.694581
vn -0.163130 -0.700675 -0.694581
vn 0.122824 0.700675 0.702829
vn -0.122824 -0.700675 -0.702829
vn -0.304978 0.628579 0.715456
vn 0.304978 -0.628579 -0.715456
vn 0.052047 0.691249 0.720740
vn -0.052047 -0.691249 -0.720740
vn 0.410906 0.000006 0.911678
vn 0.081826 0.000008 0.996647
vn -0.410906 -0.000006 -0.911678
vn -0.081826 -0.000008 -0.996647
vn 0.081833 0.000008 0.996646
vn -0.081833 -0.000008 -0.996646
vn 0.894427 0.000000 0.447214
vn -0.894427 0.000000 0.447214
vn -0.894427 0.000000 -0.447214
vn 0.894427 0.000000 -0.447214
vn -0.256690 0.000008 0.966494
vn 0.256690 -0.000008 -0.966494
vn -0.079567 0.000000 0.996830
vn 0.079567 0.000000 -0.996830
vn -0.190215 0.000000 0.981743
vn 0.190215 0.000000 -0.981743
vn -0.298490 0.000000 0.954413
vn 0.298490 0.000000 -0.954413
vn -0.403044 0.000000 0.915181
vn 0.403044 0.000000 -0.915181
vn -0.502571 0.000000 0.864536
vn 0.502571 0.000000 -0.864536
vn -0.595831 0.000000 0.803110
vn 0.595831 0.000000 -0.803110
vn -0.681660 0.000000 0.731669
vn 0.681660 0.000000 -0.731669
vn 0.707107 0.707107 0.000000
vn -0.707107 0.707107 0.000000
vn -0.707107 -0.707107 0.000000
vn 0.707107 -0.707107 0.000000
vn -0.202893 0.700675 0.684024
vn 0.202893 -0.700675 -0.684024
vn 0.022267 0.719894 0.693727
vn -0.022267 -0.719894 -0.693727
vn 0.099480 0.719894 0.686918
vn -0.099480 -0.719894 -0.686918
vn 0.175452 0.719894 0.671543
vn -0.175452 -0.719894 -0.671543
vn 0.249235 0.719894 0.647792
vn -0.249235 -0.719894 -0.647792
vn 0.062869 0.638950 0.766675
vn -0.062869 -0.638950 -0.766675
vn -0.055223 0.719894 0.691884
vn 0.055223 -0.719894 -0.691884
vn -0.132025 0.719894 0.681412
vn 0.132025 -0.719894 -0.681412
vn -0.207180 0.719894 0.662442
vn 0.207180 -0.719894 -0.662442
vn -0.279751 0.719894 0.635210
vn 0.279751 -0.719894 -0.635210
vn -0.348834 0.719894 0.600056
vn 0.348834 -0.719894 -0.600056
vn -0.413566 0.719894 0.557419
vn 0.413566 -0.719894 -0.557419
vn -0.473138 0.719894 0.507832
vn 0.473138 -0.719894 -0.507832
vn -0.304986 0.628575 0.715456
vn 0.304986 -0.628575 -0.715456
vn 0.707107 0.707107 0.000000
vn 0.405768 -0.865443 0.293871
vn 0.316228 -0.948683 0.000000
vn -0.707107 -0.707107 0.000000
vn -0.405768 0.865443 -0.293871
vn -0.316228 0.948683 0.000000
vn 0.650408 0.595889 0.471047
vn -0.650408 -0.595889 -0.471047
vn -0.650408 0.595889 0.471047
vn -0.707107 0.707107 0.000000
vn 0.650408 -0.595889 -0.471047
vn 0.707107 -0.707107 0.000000
vn -0.948683 -0.316228 0.000000
vn -0.405768 -0.865443 0.293871
vn 0.948683 0.316228 0.000000
vn 0.405768 0.865443 -0.293871
vn -0.149329 -0.619425 0.770723
vn 0.149329 0.619425 -0.770723
usemtl material-0
f 1//1 2//2 3//3
f 3//6 2//5 1//4
f 2//2 1//1 4//7
f 4//8 1//4 2//5
f 3//3 5//9 6//10
f 6//12 5//11 3//6
f 5//9 3//3 2//2
f 2//5 3//6 5//11
f 7//13 8//14 9//15
f 9//18 8//17 7//16
f 8//14 10//19 9//15
f 9//18 10//20 8//17
f 10//19 11//21 9//15
f 9//18 11//22 10//20
f 9//15 11//21 12//23
f 12//24 11//22 9//18
f 11//21 13//25 12//23
f 12//24 13//26 11//22
f 13//25 14//27 12//23
f 12//24 14//28 13//26
f 14//27 15//29 12//23
f 12//24 15//30 14//28
f 15//29 16//31 12//23
f 12//24 16//32 15//30
f 16//31 17//33 12//23
f 12//24 17//34 16//32
f 18//35 19//36 17//33
f 17//34 19//38 18//37
f 12//23 17//33 19//36
f 19//38 17//34 12//24
f 20//39 21//40 6//10
f 6//12 21//42 20//41
f 6//10 21//40 3//3
f 3//6 21//42 6//12
f 3//3 21//40 1//1
f 1//4 21//42 3//6
f 1//1 21//40 18//35
f 18//37 21//42 1//4
f 18//35 21//40 19//36
f 19//38 21//42 18//37
f 19//36 21//40 22//43
f 22//44 21//42 19//38
f 21//40 23//45 22//43
f 22//44 23//46 21//42
f 22//43 23//45 24//47
f 24//48 23//46 22//44
f 25//49 24//47 23//45
f 23//46 24//48 25//50
f 18//35 4//7 1//1
f 1//4 4//8 18//37
f 4//7 18//35 26//51
f 26//52 18//37 4//8
f 30//59 27//53 31//61
f 31//62 27//56 30//60
f 31//61 27//53 32//61
f 32//62 27//56 31//62
f 32//61 27//53 33//61
f 33//62 27//56 32//62
f 33//61 27//53 34//61
f 34//62 27//56 33//62
f 34//61 27//53 35//63
f 35//64 27//56 34//62
f 30//59 36//61 37//65
f 37//66 36//62 30//60
f 36//61 30//59 31//61
f 31//62 30//60 36//62
f 37//65 36//61 38//61
f 38//62 36//62 37//66
f 37//65 38//61 39//61
f 39//62 38//62 37//66
f 37//65 39//61 40//61
f 40//62 39//62 37//66
f 37//65 40//61 41//61
f 41//62 40//62 37//66
f 37//65 41//61 42//61
f 42//62 41//62 37//66
f 37//65 42//61 43//67
f 43//68 42//62 37//66
f 43//67 42//61 44//61
f 44//62 42//62 43//68
f 43//67 44//61 45//69
f 45//70 44//62 43//68
f 43//67 45//69 46//71
f 46//72 45//70 43//68
f 20//39 47//73 48//74
f 48//76 47//75 20//41
f 47//73 20//39 49//77
f 49//78 20//41 47//75
f 49//77 20//39 35//63
f 35//64 20//41 49//78
f 35//63 20//39 6//10
f 6//12 20//41 35//64
f 35//63 6//10 5//9
f 5//11 6//12 35//64
f 50//79 51//80 52//80
f 52//82 51//82 50//81
f 51//80 50//79 53//79
f 53//81 50//81 51//82
f 21//40 29//55 23//45
f 23//46 29//58 21//42
f 29//55 21//40 27//53
f 27//56 21//42 29//58
f 20//39 27//53 21//40
f 21//42 27//56 20//41
f 27//53 20//39 48//74
f 48//76 20//41 27//56
f 27//53 49//77 35//63
f 35//64 49//78 27//56
f 49//77 27//53 48//74
f 48//76 27//56 49//78
f 49//77 48//74 54//83
f 54//84 48//76 49//78
f 17//33 26//51 18//35
f 18//37 26//52 17//34
f 26//51 17//33 55//85
f 55//86 17//34 26//52
f 16//31 55//85 17//33
f 17//34 55//86 16//32
f 55//85 16//31 56//87
f 56//88 16//32 55//86
f 56//87 16//31 57//87
f 57//88 16//32 56//88
f 15//29 57//87 16//31
f 16//32 57//88 15//30
f 57//87 15//29 56//87
f 56//88 15//30 57//88
f 56//87 15//29 58//89
f 58//90 15//30 56//88
f 14//27 58//89 15//29
f 15//30 58//90 14//28
f 58//89 14//27 59//91
f 59//92 14//28 58//90
f 13//25 59//91 14//27
f 14//28 59//92 13//26
f 59//91 13//25 60//93
f 60//94 13//26 59//92
f 11//21 60//93 13//25
f 13//26 60//94 11//22
f 60//93 11//21 61//95
f 61//96 11//22 60//94
f 10//19 61//95 11//21
f 11//22 61//96 10//20
f 61//95 10//19 62//97
f 62//98 10//20 61//96
f 45//69 10//19 8//14
f 8//17 10//20 45//70
f 10//19 45//69 62//97
f 62//98 45//70 10//20
f 7//13 45//69 8//14
f 8//17 45//70 7//16
f 45//69 7//13 46//71
f 46//72 7//16 45//70
f 9//15 46//71 7//13
f 7//16 46//72 9//18
f 46//71 9//15 43//67
f 43//68 9//18 46//72
f 12//23 43//67 9//15
f 9//18 43//68 12//24
f 43//67 12//23 37//65
f 37//66 12//24 43//68
f 19//36 37//65 12//23
f 12//24 37//66 19//38
f 37//65 19//36 30//59
f 30//60 19//38 37//66
f 22//43 30//59 19//36
f 19//38 30//60 22//44
f 30//59 22//43 28//54
f 28//57 22//44 30//60
f 32//61 36//61 31//61
f 31//62 36//62 32//62
f 36//61 32//61 38//61
f 38//62 32//62 36//62
f 38//61 32//61 33//61
f 33//62 32//62 38//62
f 38//61 33//61 39//61
f 39//62 33//62 38//62
f 39//61 33//61 34//61
f 34//62 33//62 39//62
f 39//61 34//61 40//61
f 40//62 34//62 39//62
f 40//61 34//61 63//61
f 63//62 34//62 40//62
f 40//61 63//61 41//61
f 41//62 63//62 40//62
f 41//61 63//61 64//61
f 64//62 63//62 41//62
f 41//61 64//61 42//61
f 42//62 64//62 41//62
f 42//61 64//61 44//61
f 44//62 64//62 42//62
f 65//55 66//99 67//100
f 67//102 66//101 65//58
f 66//99 65//55 68//54
f 68//57 65//58 66//101
f 68//54 65//55 69//103
f 69//104 65//58 68//57
f 68//54 69//103 70//59
f 70//60 69//104 68//57
f 70//59 69//103 71//105
f 71//106 69//104 70//60
f 71//105 69//103 72//107
f 72//108 69//104 71//106
f 72//107 69//103 73//109
f 73//110 69//104 72//108
f 73//109 69//103 74//111
f 74//112 69//104 73//110
f 74//111 69//103 75//113
f 75//114 69//104 74//112
f 70//59 76//115 77//65
f 77//66 76//116 70//60
f 76//115 70//59 71//105
f 71//106 70//60 76//116
f 77//65 76//115 78//117
f 78//118 76//116 77//66
f 77//65 78//117 79//119
f 79//120 78//118 77//66
f 77//65 79//119 80//121
f 80//122 79//120 77//66
f 77//65 80//121 81//123
f 81//124 80//122 77//66
f 77//65 81//123 82//125
f 82//126 81//124 77//66
f 77//65 82//125 83//67
f 83//68 82//126 77//66
f 83//67 82//125 84//127
f 84//128 82//126 83//68
f 83//67 84//127 85//129
f 85//130 84//128 83//68
f 83//67 85//129 86//71
f 86//72 85//130 83//68
usemtl material-2
f 87//131 88//132 89//133
f 89//136 88//135 87//134
f 88//132 87//131 90//137
f 90//138 87//134 88//135
f 91//139 93//143 94//144
f 94//146 93//145 91//141
f 93//143 91//139 92//140
f 92//142 91//141 93//145
usemtl material-7
f 95//147 96//147 97//147
f 97//148 96//148 95//148
f 96//147 95//147 98//147
f 98//148 95//148 96//148
f 96//147 98//147 99//147
f 99//148 98//148 96//148
f 96//147 99//147 100//147
f 100//148 99//148 96//148
f 96//147 100//147 101//147
f 101//148 100//148 96//148
f 96//147 101//147 102//147
f 102//148 101//148 96//148
f 96//147 102//147 103//147
f 103//148 102//148 96//148
f 96//147 103//147 104//147
f 104//148 103//148 96//148
f 96//147 104//147 105//147
f 105//148 104//148 96//148
f 96//147 105//147 106//147
f 106//148 105//148 96//148
f 96//147 106//147 107//147
f 107//148 106//148 96//148