mtllib new-0.mtl
v -0.438293 -0.805731 0.359870
v -0.438293 -0.805731 0.276486
v -0.438293 -0.764039 0.359870
v -0.354909 -0.764039 0.276486
v -0.354909 -0.805731 0.359870
v -0.354909 -0.805731 0.276486
v -0.354909 -0.764039 0.359870
v -0.354909 -0.764039 0.334855
v -0.354909 -0.764039 0.276486
v -0.438293 -0.805731 0.276486
v -0.438293 -0.764039 0.276486
v -0.354909 -0.805731 0.276486
vn 1.000000 0.000000 0.000000
vn -1.000000 0.000000 0.000000
vn 0.707107 0.000000 -0.707107
vn -0.707107 0.000000 0.707107
vn 0.577350 0.577350 -0.577350
vn -0.577350 -0.577350 0.577350
vn -0.577350 0.577350 -0.577350
vn -0.707107 0.000000 -0.707107
vn 0.577350 -0.577350 0.577350
vn 0.707107 0.000000 0.707107
vn 0.577350 -0.577350 -0.577350
vn -0.577350 0.577350 0.577350
vn -0.577350 -0.577350 -0.577350
vn 0.577350 0.577350 0.577350
vn 0.707107 0.000000 -0.707107
vn -0.577350 -0.577350 -0.577350
vn -0.707107 0.000000 -0.707107
vn -0.707107 0.000000 0.707107
vn 0.577350 0.577350 0.577350
vn 0.707107 0.000000 0.707107
vn 0.577350 -0.577350 -0.577350
vn -0.577350 0.577350 0.577350
usemtl material-0
f 4//3 5//9 6//11
f 6//12 5//7 4//4
f 5//9 4//3 7//10
f 7//8 4//4 5//7
f 7//10 4//3 8//1
f 8//2 4//4 7//8
f 5//9 2//13 6//11
f 6//12 2//14 5//7
f 2//13 5//9 1//6
f 1//5 5//7 2//14
f 5//9 3//4 1//6
f 1//5 3//3 5//7
f 3//4 5//9 7//10
f 7//8 5//7 3//3
usemtl material-5
f 9//15 10//16 11//17
f 11//20 10//19 9//18
f 10//16 9//15 12//21
f 12//22 9//18 10//19