# SSTK version 0.8.0
# 29
mtllib original-29.mtl
o #ID66
v 0.091533 0.538566 0.421525
v 0.089701 0.532709 0.421525
v 0.088593 0.534115 0.421525
v 0.093811 0.538566 0.421525
v 0.085729 0.538566 0.421525
v 0.087358 0.532570 0.421525
v 0.083269 0.538566 0.421525
v 0.088466 0.531165 0.421525
v 0.091352 0.526671 0.421525
v 0.093811 0.526671 0.421525
v 0.085494 0.526671 0.421525
v 0.083226 0.526671 0.421525
v 0.093811 0.526671 0.425207
v 0.091352 0.526671 0.421525
v 0.093811 0.526671 0.421525
v 0.091352 0.526671 0.425207
v 0.088466 0.531165 0.425207
v 0.091352 0.526671 0.421525
v 0.091352 0.526671 0.425207
v 0.088466 0.531165 0.421525
v 0.088466 0.531165 0.421525
v 0.085494 0.526671 0.425207
v 0.085494 0.526671 0.421525
v 0.088466 0.531165 0.425207
v 0.085494 0.526671 0.425207
v 0.083226 0.526671 0.421525
v 0.085494 0.526671 0.421525
v 0.083226 0.526671 0.425207
v 0.087358 0.532570 0.425207
v 0.083226 0.526671 0.421525
v 0.083226 0.526671 0.425207
v 0.087358 0.532570 0.421525
v 0.083269 0.538566 0.425207
v 0.087358 0.532570 0.421525
v 0.087358 0.532570 0.425207
v 0.083269 0.538566 0.421525
v 0.083269 0.538566 0.425207
v 0.085729 0.538566 0.421525
v 0.083269 0.538566 0.421525
v 0.085729 0.538566 0.425207
v 0.085729 0.538566 0.421525
v 0.088593 0.534115 0.425207
v 0.088593 0.534115 0.421525
v 0.085729 0.538566 0.425207
v 0.091533 0.538566 0.425207
v 0.088593 0.534115 0.421525
v 0.088593 0.534115 0.425207
v 0.091533 0.538566 0.421525
v 0.091533 0.538566 0.425207
v 0.093811 0.538566 0.421525
v 0.091533 0.538566 0.421525
v 0.093811 0.538566 0.425207
v 0.093811 0.538566 0.421525
v 0.089701 0.532709 0.425207
v 0.089701 0.532709 0.421525
v 0.093811 0.538566 0.425207
v 0.089701 0.532709 0.421525
v 0.093811 0.526671 0.425207
v 0.093811 0.526671 0.421525
v 0.089701 0.532709 0.425207
v 0.085494 0.526671 0.425207
v 0.087358 0.532570 0.425207
v 0.083226 0.526671 0.425207
v 0.088466 0.531165 0.425207
v 0.085729 0.538566 0.425207
v 0.083269 0.538566 0.425207
v 0.088593 0.534115 0.425207
v 0.091352 0.526671 0.425207
v 0.089701 0.532709 0.425207
v 0.093811 0.526671 0.425207
v 0.091533 0.538566 0.425207
v 0.093811 0.538566 0.425207
vn 0 0 -1
vn 0 0 1
vn 0 -1 0
vn 0 1 0
vn -0.8414375235578908 -0.5403544151284082 0
vn 0.8414375235578908 0.5403544151284082 0
vn 0.8341729057960794 -0.5515030038320056 0
vn -0.8341729057960794 0.5515030038320056 0
vn -0.8190929770221325 0.5736607839071974 0
vn 0.8190929770221325 -0.5736607839071974 0
vn -0.8261342045779401 -0.5634734031224315 0
vn 0.8261342045779401 0.5634734031224315 0
vn 0.8409169319265681 0.5411642205460441 0
vn -0.8409169319265681 -0.5411642205460441 0
vn -0.8344992541095103 0.5510090696991029 0
vn 0.8344992541095103 -0.5510090696991029 0
vn 0.8185321431469178 -0.5744607302812909 0
vn -0.8185321431469178 0.5744607302812909 0
vn 0.8266280989619328 0.5627485992933088 0
vn -0.8266280989619328 -0.5627485992933088 0
usemtl material_0_2
f 1//1 2//1 3//1
f 3//2 2//2 1//2
f 2//1 1//1 4//1
f 4//2 1//2 2//2
f 5//1 6//1 7//1
f 7//2 6//2 5//2
f 6//1 5//1 3//1
f 3//2 5//2 6//2
f 6//1 3//1 8//1
f 8//2 3//2 6//2
f 8//1 3//1 9//1
f 9//2 3//2 8//2
f 9//1 3//1 2//1
f 2//2 3//2 9//2
f 9//1 2//1 10//1
f 10//2 2//2 9//2
f 6//1 11//1 12//1
f 12//2 11//2 6//2
f 11//1 6//1 8//1
f 8//2 6//2 11//2
f 13//3 14//3 15//3
f 15//4 14//4 13//4
f 14//3 13//3 16//3
f 16//4 13//4 14//4
f 17//5 18//5 19//5
f 19//6 18//6 17//6
f 18//5 17//5 20//5
f 20//6 17//6 18//6
f 21//7 22//7 23//7
f 23//8 22//8 21//8
f 22//7 21//7 24//7
f 24//8 21//8 22//8
f 25//3 26//3 27//3
f 27//4 26//4 25//4
f 26//3 25//3 28//3
f 28//4 25//4 26//4
f 29//9 30//9 31//9
f 31//10 30//10 29//10
f 30//9 29//9 32//9
f 32//10 29//10 30//10
f 33//11 34//11 35//11
f 35//12 34//12 33//12
f 34//11 33//11 36//11
f 36//12 33//12 34//12
f 37//4 38//4 39//4
f 39//3 38//3 37//3
f 38//4 37//4 40//4
f 40//3 37//3 38//3
f 41//13 42//13 43//13
f 43//14 42//14 41//14
f 42//13 41//13 44//13
f 44//14 41//14 42//14
f 45//15 46//15 47//15
f 47//16 46//16 45//16
f 46//15 45//15 48//15
f 48//16 45//16 46//16
f 49//4 50//4 51//4
f 51//3 50//3 49//3
f 50//4 49//4 52//4
f 52//3 49//3 50//3
f 53//17 54//17 55//17
f 55//18 54//18 53//18
f 54//17 53//17 56//17
f 56//18 53//18 54//18
f 57//19 58//19 59//19
f 59//20 58//20 57//20
f 58//19 57//19 60//19
f 60//20 57//20 58//20
f 61//2 62//2 63//2
f 63//1 62//1 61//1
f 62//2 61//2 64//2
f 64//1 61//1 62//1
f 62//2 65//2 66//2
f 66//1 65//1 62//1
f 65//2 62//2 67//2
f 67//1 62//1 65//1
f 67//2 62//2 64//2
f 64//1 62//1 67//1
f 67//2 64//2 68//2
f 68//1 64//1 67//1
f 67//2 68//2 69//2
f 69//1 68//1 67//1
f 69//2 68//2 70//2
f 70//1 68//1 69//1
f 69//2 71//2 67//2
f 67//1 71//1 69//1
f 71//2 69//2 72//2
f 72//1 69//1 71//1
