# SSTK version 0.8.0
# 31
mtllib original-31.mtl
o #ID78
v 0.019634 0.527997 0.425207
v 0.020163 0.531434 0.425207
v 0.020097 0.532411 0.425207
v 0.020499 0.527295 0.425207
v 0.020358 0.530579 0.425207
v 0.020684 0.529847 0.425207
v 0.021523 0.526795 0.425207
v 0.021141 0.529237 0.425207
v 0.021713 0.528757 0.425207
v 0.022706 0.526494 0.425207
v 0.022384 0.528415 0.425207
v 0.023156 0.528209 0.425207
v 0.024048 0.526394 0.425207
v 0.024027 0.528140 0.425207
v 0.025321 0.528289 0.425207
v 0.025246 0.526479 0.425207
v 0.026306 0.526724 0.425207
v 0.026466 0.528673 0.425207
v 0.027243 0.527049 0.425207
v 0.027381 0.529147 0.425207
v 0.028116 0.527395 0.425207
v 0.027999 0.529578 0.425207
v 0.028116 0.529578 0.425207
v 0.028340 0.532411 0.425207
v 0.020097 0.533944 0.425207
v 0.026391 0.533944 0.425207
v 0.027019 0.537576 0.425207
v 0.027584 0.536818 0.425207
v 0.027999 0.535909 0.425207
v 0.028255 0.534813 0.425207
v 0.028340 0.533497 0.425207
v 0.018162 0.531158 0.425207
v 0.018159 0.533929 0.425207
v 0.018063 0.532549 0.425207
v 0.018444 0.535160 0.425207
v 0.018456 0.529936 0.425207
v 0.018920 0.536242 0.425207
v 0.018947 0.528882 0.425207
v 0.019586 0.537176 0.425207
v 0.020406 0.537929 0.425207
v 0.020396 0.535270 0.425207
v 0.021077 0.536308 0.425207
v 0.021343 0.538466 0.425207
v 0.022094 0.537006 0.425207
v 0.022398 0.538789 0.425207
v 0.022713 0.537186 0.425207
v 0.023569 0.538896 0.425207
v 0.023452 0.537245 0.425207
v 0.024196 0.537187 0.425207
v 0.024613 0.538816 0.425207
v 0.024810 0.537011 0.425207
v 0.025528 0.538577 0.425207
v 0.025309 0.536724 0.425207
v 0.025710 0.536330 0.425207
v 0.026327 0.538167 0.425207
v 0.026199 0.535339 0.425207
vn 0 0 1
vn 0 0 -1
usemtl material_0_2
f 1//1 2//1 3//1
f 3//2 2//2 1//2
f 2//1 1//1 4//1
f 4//2 1//2 2//2
f 2//1 4//1 5//1
f 5//2 4//2 2//2
f 5//1 4//1 6//1
f 6//2 4//2 5//2
f 6//1 4//1 7//1
f 7//2 4//2 6//2
f 6//1 7//1 8//1
f 8//2 7//2 6//2
f 8//1 7//1 9//1
f 9//2 7//2 8//2
f 9//1 7//1 10//1
f 10//2 7//2 9//2
f 9//1 10//1 11//1
f 11//2 10//2 9//2
f 11//1 10//1 12//1
f 12//2 10//2 11//2
f 12//1 10//1 13//1
f 13//2 10//2 12//2
f 12//1 13//1 14//1
f 14//2 13//2 12//2
f 14//1 13//1 15//1
f 15//2 13//2 14//2
f 15//1 13//1 16//1
f 16//2 13//2 15//2
f 15//1 16//1 17//1
f 17//2 16//2 15//2
f 15//1 17//1 18//1
f 18//2 17//2 15//2
f 18//1 17//1 19//1
f 19//2 17//2 18//2
f 18//1 19//1 20//1
f 20//2 19//2 18//2
f 20//1 19//1 21//1
f 21//2 19//2 20//2
f 20//1 21//1 22//1
f 22//2 21//2 20//2
f 22//1 21//1 23//1
f 23//2 21//2 22//2
f 24//1 25//1 3//1
f 3//2 25//2 24//2
f 25//1 24//1 26//1
f 26//2 24//2 25//2
f 26//1 24//1 27//1
f 27//2 24//2 26//2
f 27//1 24//1 28//1
f 28//2 24//2 27//2
f 28//1 24//1 29//1
f 29//2 24//2 28//2
f 29//1 24//1 30//1
f 30//2 24//2 29//2
f 30//1 24//1 31//1
f 31//2 24//2 30//2
f 32//1 33//1 34//1
f 34//2 33//2 32//2
f 33//1 32//1 35//1
f 35//2 32//2 33//2
f 35//1 32//1 36//1
f 36//2 32//2 35//2
f 35//1 36//1 37//1
f 37//2 36//2 35//2
f 37//1 36//1 38//1
f 38//2 36//2 37//2
f 37//1 38//1 39//1
f 39//2 38//2 37//2
f 39//1 38//1 1//1
f 1//2 38//2 39//2
f 39//1 1//1 40//1
f 40//2 1//2 39//2
f 40//1 1//1 25//1
f 25//2 1//2 40//2
f 25//1 1//1 3//1
f 3//2 1//2 25//2
f 40//1 25//1 41//1
f 41//2 25//2 40//2
f 40//1 41//1 42//1
f 42//2 41//2 40//2
f 40//1 42//1 43//1
f 43//2 42//2 40//2
f 43//1 42//1 44//1
f 44//2 42//2 43//2
f 43//1 44//1 45//1
f 45//2 44//2 43//2
f 45//1 44//1 46//1
f 46//2 44//2 45//2
f 45//1 46//1 47//1
f 47//2 46//2 45//2
f 47//1 46//1 48//1
f 48//2 46//2 47//2
f 47//1 48//1 49//1
f 49//2 48//2 47//2
f 47//1 49//1 50//1
f 50//2 49//2 47//2
f 50//1 49//1 51//1
f 51//2 49//2 50//2
f 50//1 51//1 52//1
f 52//2 51//2 50//2
f 52//1 51//1 53//1
f 53//2 51//2 52//2
f 52//1 53//1 54//1
f 54//2 53//2 52//2
f 52//1 54//1 55//1
f 55//2 54//2 52//2
f 55//1 54//1 56//1
f 56//2 54//2 55//2
f 55//1 56//1 26//1
f 26//2 56//2 55//2
f 55//1 26//1 27//1
f 27//2 26//2 55//2
