# SSTK version 0.8.0
# 25
mtllib original-25.mtl
o #ID42
v 0.050750 0.537625 0.421525
v 0.049724 0.535116 0.421525
v 0.049724 0.536798 0.421525
v 0.050458 0.535723 0.421525
v 0.051236 0.536159 0.421525
v 0.051635 0.538167 0.421525
v 0.052037 0.536423 0.421525
v 0.052438 0.538466 0.421525
v 0.052844 0.536511 0.421525
v 0.053217 0.538566 0.421525
v 0.053445 0.536495 0.421525
v 0.053680 0.538550 0.421525
v 0.053919 0.536415 0.421525
v 0.054026 0.538502 0.421525
v 0.054026 0.536415 0.421525
v 0.049724 0.538566 0.421525
v 0.047722 0.526671 0.421525
v 0.047722 0.538566 0.421525
v 0.049724 0.526671 0.421525
v 0.054026 0.536415 0.425207
v 0.053919 0.536415 0.421525
v 0.054026 0.536415 0.421525
v 0.053919 0.536415 0.425207
v 0.053919 0.536415 0.425207
v 0.053445 0.536495 0.421525
v 0.053919 0.536415 0.421525
v 0.053445 0.536495 0.425207
v 0.053445 0.536495 0.425207
v 0.052844 0.536511 0.421525
v 0.053445 0.536495 0.421525
v 0.052844 0.536511 0.425207
v 0.052037 0.536423 0.421525
v 0.052037 0.536423 0.425207
v 0.051236 0.536159 0.421525
v 0.051236 0.536159 0.425207
v 0.050458 0.535723 0.421525
v 0.050458 0.535723 0.425207
v 0.049724 0.535116 0.421525
v 0.049724 0.535116 0.425207
v 0.049724 0.535116 0.421525
v 0.049724 0.526671 0.425207
v 0.049724 0.526671 0.421525
v 0.049724 0.535116 0.425207
v 0.049724 0.526671 0.425207
v 0.047722 0.526671 0.421525
v 0.049724 0.526671 0.421525
v 0.047722 0.526671 0.425207
v 0.047722 0.538566 0.425207
v 0.047722 0.526671 0.421525
v 0.047722 0.526671 0.425207
v 0.047722 0.538566 0.421525
v 0.047722 0.538566 0.425207
v 0.049724 0.538566 0.421525
v 0.047722 0.538566 0.421525
v 0.049724 0.538566 0.425207
v 0.049724 0.538566 0.421525
v 0.049724 0.536798 0.425207
v 0.049724 0.536798 0.421525
v 0.049724 0.538566 0.425207
v 0.049724 0.536798 0.425207
v 0.050750 0.537625 0.421525
v 0.049724 0.536798 0.421525
v 0.050750 0.537625 0.425207
v 0.051635 0.538167 0.421525
v 0.051635 0.538167 0.425207
v 0.052438 0.538466 0.421525
v 0.052438 0.538466 0.425207
v 0.053217 0.538566 0.421525
v 0.053217 0.538566 0.425207
v 0.053217 0.538566 0.425207
v 0.053680 0.538550 0.421525
v 0.053217 0.538566 0.421525
v 0.053680 0.538550 0.425207
v 0.053680 0.538550 0.425207
v 0.054026 0.538502 0.421525
v 0.053680 0.538550 0.421525
v 0.054026 0.538502 0.425207
v 0.054026 0.538502 0.421525
v 0.054026 0.536415 0.425207
v 0.054026 0.536415 0.421525
v 0.054026 0.538502 0.425207
v 0.050458 0.535723 0.425207
v 0.049724 0.536798 0.425207
v 0.049724 0.535116 0.425207
v 0.050750 0.537625 0.425207
v 0.051236 0.536159 0.425207
v 0.051635 0.538167 0.425207
v 0.052037 0.536423 0.425207
v 0.052438 0.538466 0.425207
v 0.052844 0.536511 0.425207
v 0.053217 0.538566 0.425207
v 0.053445 0.536495 0.425207
v 0.053680 0.538550 0.425207
v 0.053919 0.536415 0.425207
v 0.054026 0.538502 0.425207
v 0.054026 0.536415 0.425207
v 0.049724 0.526671 0.425207
v 0.047722 0.538566 0.425207
v 0.047722 0.526671 0.425207
v 0.049724 0.538566 0.425207
vn 0 0 -1
vn 0 0 1
vn 0 -1 0
vn 0 1 0
vn -0.1661954065486808 -0.9860928388555098 0
vn 0.1661954065486808 0.9860928388555098 0
vn -0.02653931920977981 -0.999647770235037 0
vn 0.040958981181681356 -0.9991608288261498 0
vn 0.02653931920977981 0.999647770235037 0
vn -0.040958981181681356 0.9991608288261498 0
vn 0.21151129011152486 -0.9773755543062034 0
vn -0.21151129011152486 0.9773755543062034 0
vn 0.40295991282263394 -0.915217629123246 0
vn -0.40295991282263394 0.915217629123246 0
vn 0.5655438965393097 -0.8247181949533638 0
vn -0.5655438965393097 0.8247181949533638 0
vn 0.636881395310897 -0.7709617943237166 0
vn -0.636881395310897 0.7709617943237166 0
vn 1 0 0
vn -1 0 0
vn -0.6272785098522716 0.7787950122320467 0
vn -0.5758438826580874 0.8175596753786594 0
vn 0.6272785098522716 -0.7787950122320467 0
vn 0.5758438826580874 -0.8175596753786594 0
vn -0.43782327733036513 0.8990610534483731 0
vn 0.43782327733036513 -0.8990610534483731 0
vn -0.23995719259683004 0.9707834700493453 0
vn 0.23995719259683004 -0.9707834700493453 0
vn -0.12716429580425356 0.9918816672731724 0
vn 0.12716429580425356 -0.9918816672731724 0
vn 0.0344622799727955 0.9994059992110698 0
vn -0.0344622799727955 -0.9994059992110698 0
vn 0.1371530947038594 0.9905498617501058 0
vn -0.1371530947038594 -0.9905498617501058 0
usemtl material_0_2
f 1//1 2//1 3//1
f 3//2 2//2 1//2
f 2//1 1//1 4//1
f 4//2 1//2 2//2
f 4//1 1//1 5//1
f 5//2 1//2 4//2
f 5//1 1//1 6//1
f 6//2 1//2 5//2
f 5//1 6//1 7//1
f 7//2 6//2 5//2
f 7//1 6//1 8//1
f 8//2 6//2 7//2
f 7//1 8//1 9//1
f 9//2 8//2 7//2
f 9//1 8//1 10//1
f 10//2 8//2 9//2
f 9//1 10//1 11//1
f 11//2 10//2 9//2
f 11//1 10//1 12//1
f 12//2 10//2 11//2
f 11//1 12//1 13//1
f 13//2 12//2 11//2
f 13//1 12//1 14//1
f 14//2 12//2 13//2
f 13//1 14//1 15//1
f 15//2 14//2 13//2
f 16//1 17//1 18//1
f 18//2 17//2 16//2
f 17//1 16//1 19//1
f 19//2 16//2 17//2
f 19//1 16//1 3//1
f 3//2 16//2 19//2
f 19//1 3//1 2//1
f 2//2 3//2 19//2
f 20//3 21//3 22//3
f 22//4 21//4 20//4
f 21//3 20//3 23//3
f 23//4 20//4 21//4
f 24//5 25//5 26//5
f 26//6 25//6 24//6
f 25//5 24//5 27//5
f 27//6 24//6 25//6
f 28//7 29//8 30//7
f 30//9 29//10 28//9
f 29//8 28//7 31//8
f 31//10 28//9 29//10
f 31//8 32//11 29//8
f 29//10 32//12 31//10
f 32//11 31//8 33//11
f 33//12 31//10 32//12
f 33//11 34//13 32//11
f 32//12 34//14 33//12
f 34//13 33//11 35//13
f 35//14 33//12 34//14
f 35//13 36//15 34//13
f 34//14 36//16 35//14
f 36//15 35//13 37//15
f 37//16 35//14 36//16
f 37//15 38//17 36//15
f 36//16 38//18 37//16
f 38//17 37//15 39//17
f 39//18 37//16 38//18
f 40//19 41//19 42//19
f 42//20 41//20 40//20
f 41//19 40//19 43//19
f 43//20 40//20 41//20
f 44//3 45//3 46//3
f 46//4 45//4 44//4
f 45//3 44//3 47//3
f 47//4 44//4 45//4
f 48//20 49//20 50//20
f 50//19 49//19 48//19
f 49//20 48//20 51//20
f 51//19 48//19 49//19
f 52//4 53//4 54//4
f 54//3 53//3 52//3
f 53//4 52//4 55//4
f 55//3 52//3 53//3
f 56//19 57//19 58//19
f 58//20 57//20 56//20
f 57//19 56//19 59//19
f 59//20 56//20 57//20
f 60//21 61//22 62//21
f 62//23 61//24 60//23
f 61//22 60//21 63//22
f 63//24 60//23 61//24
f 63//22 64//25 61//22
f 61//24 64//26 63//24
f 64//25 63//22 65//25
f 65//26 63//24 64//26
f 65//25 66//27 64//25
f 64//26 66//28 65//26
f 66//27 65//25 67//27
f 67//28 65//26 66//28
f 67//27 68//29 66//27
f 66//28 68//30 67//28
f 68//29 67//27 69//29
f 69//30 67//28 68//30
f 70//31 71//31 72//31
f 72//32 71//32 70//32
f 71//31 70//31 73//31
f 73//32 70//32 71//32
f 74//33 75//33 76//33
f 76//34 75//34 74//34
f 75//33 74//33 77//33
f 77//34 74//34 75//34
f 78//19 79//19 80//19
f 80//20 79//20 78//20
f 79//19 78//19 81//19
f 81//20 78//20 79//20
f 82//2 83//2 84//2
f 84//1 83//1 82//1
f 83//2 82//2 85//2
f 85//1 82//1 83//1
f 85//2 82//2 86//2
f 86//1 82//1 85//1
f 85//2 86//2 87//2
f 87//1 86//1 85//1
f 87//2 86//2 88//2
f 88//1 86//1 87//1
f 87//2 88//2 89//2
f 89//1 88//1 87//1
f 89//2 88//2 90//2
f 90//1 88//1 89//1
f 89//2 90//2 91//2
f 91//1 90//1 89//1
f 91//2 90//2 92//2
f 92//1 90//1 91//1
f 91//2 92//2 93//2
f 93//1 92//1 91//1
f 93//2 92//2 94//2
f 94//1 92//1 93//1
f 93//2 94//2 95//2
f 95//1 94//1 93//1
f 95//2 94//2 96//2
f 96//1 94//1 95//1
f 97//2 98//2 99//2
f 99//1 98//1 97//1
f 98//2 97//2 100//2
f 100//1 97//1 98//1
f 100//2 97//2 84//2
f 84//1 97//1 100//1
f 100//2 84//2 83//2
f 83//1 84//1 100//1
