# SSTK version 0.8.0
# 4
mtllib original-4.mtl
o #ID116
v -0.256429 0.328935 0.443164
v -0.267133 0.328681 0.440050
v -0.267133 0.328935 0.440047
v -0.267133 0.328935 0.440047
v -0.267133 0.328681 0.440050
v -0.256429 0.328935 0.443164
v -0.267133 0.320597 0.440047
v -0.256429 0.320597 0.443164
v -0.256429 0.320597 0.443164
v -0.267133 0.320597 0.440047
v -0.267133 0.328935 0.440047
v -0.267133 0.320597 0.440047
v -0.267133 0.328681 0.440050
v -0.256429 0.328935 0.443164
v -0.256429 0.320597 0.443164
v -0.256429 0.320597 0.443164
v -0.256429 0.328935 0.443164
v -0.267133 0.320597 0.440047
v -0.267133 0.328935 0.440047
v -0.267133 0.328681 0.440050
v -0.245335 0.328935 0.444271
v -0.256429 0.320597 0.443164
v -0.256429 0.328935 0.443164
v -0.245335 0.328681 0.444273
v -0.245335 0.320597 0.444271
v -0.245335 0.328681 0.444273
v -0.256429 0.320597 0.443164
v -0.245335 0.320597 0.444271
v -0.245335 0.328935 0.444271
v -0.256429 0.328935 0.443164
v -0.245335 0.328681 0.444273
v -0.256429 0.320597 0.443164
v -0.256429 0.328935 0.443164
v -0.245335 0.320597 0.444271
v -0.245335 0.320597 0.444271
v -0.245335 0.328681 0.444273
v -0.256429 0.320597 0.443164
v -0.256429 0.328935 0.443164
v -0.245335 0.328935 0.444271
v -0.245335 0.328935 0.444271
v -0.245335 0.328935 0.444271
v -0.256429 0.337274 0.443164
v -0.256429 0.328935 0.443164
v -0.245335 0.337274 0.444271
v -0.245335 0.337274 0.444271
v -0.245335 0.328935 0.444271
v -0.256429 0.337274 0.443164
v -0.256429 0.328935 0.443164
v -0.245335 0.320597 0.444271
v -0.245335 0.328681 0.444273
v -0.234227 0.328935 0.443330
v -0.234227 0.320597 0.443330
v -0.234227 0.320597 0.443330
v -0.234227 0.328935 0.443330
v -0.245335 0.320597 0.444271
v -0.245335 0.328681 0.444273
v -0.234227 0.337274 0.443330
v -0.234227 0.337274 0.443330
v -0.223476 0.328935 0.440374
v -0.223476 0.320597 0.440374
v -0.223476 0.320597 0.440374
v -0.223476 0.328935 0.440374
v -0.223476 0.337274 0.440374
v -0.223476 0.337274 0.440374
v -0.213449 0.328935 0.435503
v -0.213449 0.320597 0.435503
v -0.213449 0.320597 0.435503
v -0.213449 0.328935 0.435503
v -0.213449 0.337274 0.435503
v -0.213449 0.337274 0.435503
v -0.204480 0.328935 0.428880
v -0.204480 0.320597 0.428880
v -0.204480 0.320597 0.428880
v -0.204480 0.328935 0.428880
v -0.204480 0.337274 0.428880
v -0.204480 0.337274 0.428880
v -0.196874 0.320597 0.420729
v -0.196874 0.328935 0.420729
v -0.196874 0.328935 0.420729
v -0.196874 0.320597 0.420729
v -0.196874 0.337274 0.420729
v -0.196874 0.337274 0.420729
v -0.180253 0.337274 0.422334
v -0.180253 0.320597 0.422334
v -0.180253 0.320597 0.422334
v -0.180253 0.337274 0.422334
vn 0.27942160293779245 0.000005789754060872515 -0.9601685100950527
vn 0.27947860017792203 -0.005598257003563969 -0.9601356006112427
vn 0.2795295054681919 -0.011542570225797234 -0.9600677187809673
vn 0.2794197128119624 0.00017603080807137073 -0.9601690440257044
vn 0.27947459486835724 0.00009611831823509941 -0.9601530823699086
vn 0.09935083620458746 0.00009612119632796655 -0.9950524619868868
vn 0.09934060398797459 -0.005598257224738995 -0.9950377399452496
vn 0.0994077170191299 0.00017603059472149293 -0.9950467701622243
vn 0.09940578784647087 0.000005789608874573789 -0.9950469784432809
vn 0.09926803817713674 -0.011542569788043295 -0.9949937817288863
vn 0.04778630905068726 -0.00005683662887089551 0.9988575801569058
vn -0.13033249646567271 -0.7283680802482785 0.6726762817585162
vn -0.19021479938700525 0 0.9817424968361926
vn -0.00513607296875801 -0.728368095569442 0.6851667958322293
vn -0.04778630905068726 0.00005683662887089551 -0.9988575801569058
vn -0.03605906167253284 -0.9041889419391307 -0.42560791974103573
vn -0.08442120607027723 0.00009448861560164938 -0.9964301536171722
vn -0.1754850977464987 0.00001186116984768415 -0.9844820873577205
vn -0.12026200546095345 -0.7283516330735743 -0.6745672306312891
vn 0.1754850977464987 -0.00001186116984768415 0.9844820873577205
vn 0.12023360113399403 -0.7283681068696694 0.6745545063621216
vn -0.35253068309217406 0 -0.9358002551178136
vn -0.24154909585312023 -0.7283680874954825 -0.6411972889920181
vn 0.35253068309217406 0 0.9358002551178136
vn 0.24154909585312023 -0.7283680874954825 0.6411972889920181
vn -0.517698775541208 0 -0.8555629595787407
vn -0.3547199962027845 -0.728368092202947 -0.5862197937246196
vn 0.517698775541208 0 0.8555629595787407
vn 0.3547199962027845 -0.728368092202947 0.5862197937246196
vn -0.6654107862035726 0 -0.7464773845227621
vn -0.4559301925568348 -0.7283680881092235 -0.5114758916500385
vn 0.6654107862035726 0 0.7464773845227621
vn 0.4559301925568348 -0.7283680881092235 0.5114758916500385
vn -0.27782151224606416 -0.6197974273199833 -0.7339389323512142
vn -0.5010220953708916 0 -0.8654344920039652
vn 0.4651925022617055 -0.5729880027857932 0.674744903280522
vn 0.5010220953708916 0 0.8654344920039652
vn 0.24683851133212176 0.9637014442426187 -0.10173630467061719
vn -0.4651925022617055 0.5729880027857932 -0.674744903280522
vn 0.7707443083546796 -0.5523046059868466 -0.31766780344344114
vn -0.2795295054681919 0.011542570225797234 0.9600677187809673
vn -0.27947860017792203 0.005598257003563969 0.9601356006112427
vn -0.27942160293779245 -0.000005789754060872515 0.9601685100950527
vn -0.2794197128119624 -0.00017603080807137073 0.9601690440257044
vn -0.27947459486835724 -0.00009611831823509941 0.9601530823699086
vn -0.09935083620458746 -0.00009612119632796655 0.9950524619868868
vn -0.0994077170191299 -0.00017603059472149293 0.9950467701622243
vn -0.09934060398797459 0.005598257224738995 0.9950377399452496
vn -0.09940578784647087 -0.000005789608874573789 0.9950469784432809
vn -0.09926803817713674 0.011542569788043295 0.9949937817288863
vn 0.00513607296875801 0.728368095569442 -0.6851667958322293
vn 0.13033249646567271 0.7283680802482785 -0.6726762817585162
vn 0.19021479938700525 0 -0.9817424968361926
vn 0.12026200546095345 0.7283516330735743 0.6745672306312891
vn 0.03605906167253284 0.9041889419391307 0.42560791974103573
vn 0.08442120607027723 -0.00009448861560164938 0.9964301536171722
vn -0.12023360113399403 0.7283681068696694 -0.6745545063621216
vn 0.24154909585312023 0.7283680874954825 0.6411972889920181
vn -0.24154909585312023 0.7283680874954825 -0.6411972889920181
vn 0.3547199962027845 0.728368092202947 0.5862197937246196
vn -0.3547199962027845 0.728368092202947 -0.5862197937246196
vn 0.4559301925568348 0.7283680881092235 0.5114758916500385
vn -0.4559301925568348 0.7283680881092235 -0.5114758916500385
vn 0.27782151224606416 0.6197974273199833 0.7339389323512142
vn -0.7707443083546796 0.5523046059868466 0.31766780344344114
vn -0.24683851133212176 -0.9637014442426187 0.10173630467061719
usemtl material_0_0
f 1//1 2//2 3//3
f 1//1 7//4 2//2
f 7//4 1//1 8//4
f 11//5 12//5 13//5
f 12//5 11//5 14//5
f 12//5 14//5 15//5
f 21//6 22//6 23//6
f 22//6 21//6 24//6
f 25//6 22//6 24//6
f 31//7 32//8 33//9
f 32//8 31//7 34//8
f 39//10 31//7 33//9
f 41//11 42//12 43//13
f 42//12 41//11 44//14
f 46//15 49//16 50//17
f 49//16 46//15 51//18
f 49//16 51//18 52//19
f 54//20 44//14 41//11
f 44//14 54//20 57//21
f 59//22 52//19 51//18
f 52//19 59//22 60//23
f 62//24 57//21 54//20
f 57//21 62//24 63//25
f 65//26 60//23 59//22
f 60//23 65//26 66//27
f 68//28 63//25 62//24
f 63//25 68//28 69//29
f 71//30 66//27 65//26
f 66//27 71//30 72//31
f 74//32 69//29 68//28
f 69//29 74//32 75//33
f 71//30 77//34 72//31
f 77//34 71//30 78//35
f 81//36 74//32 79//37
f 74//32 81//36 75//33
f 83//38 78//35 82//39
f 78//35 83//38 77//34
f 77//34 83//38 84//40
usemtl material_1_0
f 4//41 5//42 6//43
f 9//44 6//43 10//44
f 5//42 10//44 6//43
f 16//45 17//45 18//45
f 17//45 19//45 18//45
f 20//45 18//45 19//45
f 26//46 27//46 28//46
f 26//46 29//46 27//46
f 30//46 27//46 29//46
f 35//47 36//48 37//47
f 38//49 37//47 36//48
f 38//49 36//48 40//50
f 45//51 46//15 47//52
f 48//53 47//52 46//15
f 53//54 54//20 55//55
f 54//20 41//11 55//55
f 56//56 55//55 41//11
f 58//57 51//18 45//51
f 46//15 45//51 51//18
f 61//58 62//24 53//54
f 54//20 53//54 62//24
f 64//59 59//22 58//57
f 51//18 58//57 59//22
f 67//60 68//28 61//58
f 62//24 61//58 68//28
f 70//61 65//26 64//59
f 59//22 64//59 65//26
f 73//62 74//32 67//60
f 68//28 67//60 74//32
f 76//63 71//30 70//61
f 65//26 70//61 71//30
f 79//37 74//32 80//64
f 73//62 80//64 74//32
f 76//63 82//39 71//30
f 78//35 71//30 82//39
f 85//65 86//66 80//64
f 80//64 86//66 79//37
f 81//36 79//37 86//66
