# SSTK version 0.8.0
# 28
mtllib original-28.mtl
o #ID60
v 0.081671 0.538566 0.421525
v 0.079669 0.529684 0.421525
v 0.079669 0.538566 0.421525
v 0.079669 0.527991 0.421525
v 0.079669 0.526671 0.421525
v 0.081671 0.526671 0.421525
v 0.074323 0.538566 0.421525
v 0.072321 0.530845 0.421525
v 0.072321 0.538566 0.421525
v 0.072392 0.529732 0.421525
v 0.072604 0.528801 0.421525
v 0.072943 0.528031 0.421525
v 0.073397 0.527406 0.421525
v 0.073952 0.526926 0.421525
v 0.074323 0.531793 0.421525
v 0.074393 0.530222 0.421525
v 0.074595 0.526596 0.421525
v 0.074707 0.529131 0.421525
v 0.075304 0.526405 0.421525
v 0.074996 0.528734 0.421525
v 0.075372 0.528460 0.421525
v 0.076059 0.526341 0.421525
v 0.075885 0.528300 0.421525
v 0.076581 0.528247 0.421525
v 0.077034 0.526446 0.421525
v 0.077340 0.528351 0.421525
v 0.077912 0.526761 0.421525
v 0.078146 0.528662 0.421525
v 0.078767 0.527279 0.421525
v 0.081671 0.526671 0.425207
v 0.079669 0.526671 0.421525
v 0.081671 0.526671 0.421525
v 0.079669 0.526671 0.425207
v 0.079669 0.527991 0.425207
v 0.079669 0.526671 0.421525
v 0.079669 0.526671 0.425207
v 0.079669 0.527991 0.421525
v 0.079669 0.527991 0.425207
v 0.078767 0.527279 0.421525
v 0.079669 0.527991 0.421525
v 0.078767 0.527279 0.425207
v 0.077912 0.526761 0.421525
v 0.077912 0.526761 0.425207
v 0.077034 0.526446 0.421525
v 0.077034 0.526446 0.425207
v 0.076059 0.526341 0.421525
v 0.076059 0.526341 0.425207
v 0.075304 0.526405 0.421525
v 0.075304 0.526405 0.425207
v 0.074595 0.526596 0.421525
v 0.074595 0.526596 0.425207
v 0.073952 0.526926 0.421525
v 0.073952 0.526926 0.425207
v 0.073397 0.527406 0.421525
v 0.073397 0.527406 0.425207
v 0.072943 0.528031 0.425207
v 0.072943 0.528031 0.421525
v 0.072604 0.528801 0.425207
v 0.072604 0.528801 0.421525
v 0.072392 0.529732 0.425207
v 0.072392 0.529732 0.421525
v 0.072321 0.530845 0.425207
v 0.072321 0.530845 0.421525
v 0.072321 0.538566 0.425207
v 0.072321 0.538566 0.421525
v 0.072321 0.538566 0.425207
v 0.074323 0.538566 0.421525
v 0.072321 0.538566 0.421525
v 0.074323 0.538566 0.425207
v 0.074323 0.538566 0.421525
v 0.074323 0.531793 0.425207
v 0.074323 0.531793 0.421525
v 0.074323 0.538566 0.425207
v 0.074393 0.530222 0.425207
v 0.074393 0.530222 0.421525
v 0.074707 0.529131 0.425207
v 0.074707 0.529131 0.421525
v 0.074996 0.528734 0.425207
v 0.074996 0.528734 0.421525
v 0.074996 0.528734 0.425207
v 0.075372 0.528460 0.421525
v 0.074996 0.528734 0.421525
v 0.075372 0.528460 0.425207
v 0.075372 0.528460 0.425207
v 0.075885 0.528300 0.421525
v 0.075372 0.528460 0.421525
v 0.075885 0.528300 0.425207
v 0.075885 0.528300 0.425207
v 0.076581 0.528247 0.421525
v 0.075885 0.528300 0.421525
v 0.076581 0.528247 0.425207
v 0.077340 0.528351 0.421525
v 0.077340 0.528351 0.425207
v 0.078146 0.528662 0.421525
v 0.078146 0.528662 0.425207
v 0.079669 0.529684 0.421525
v 0.079669 0.529684 0.425207
v 0.079669 0.538566 0.425207
v 0.079669 0.529684 0.421525
v 0.079669 0.529684 0.425207
v 0.079669 0.538566 0.421525
v 0.079669 0.538566 0.425207
v 0.081671 0.538566 0.421525
v 0.079669 0.538566 0.421525
v 0.081671 0.538566 0.425207
v 0.081671 0.538566 0.421525
v 0.081671 0.526671 0.425207
v 0.081671 0.526671 0.421525
v 0.081671 0.538566 0.425207
v 0.081671 0.526671 0.425207
v 0.079669 0.527991 0.425207
v 0.079669 0.526671 0.425207
v 0.079669 0.529684 0.425207
v 0.079669 0.538566 0.425207
v 0.081671 0.538566 0.425207
v 0.073952 0.526926 0.425207
v 0.074393 0.530222 0.425207
v 0.074323 0.531793 0.425207
v 0.074595 0.526596 0.425207
v 0.074707 0.529131 0.425207
v 0.075304 0.526405 0.425207
v 0.074996 0.528734 0.425207
v 0.075372 0.528460 0.425207
v 0.076059 0.526341 0.425207
v 0.075885 0.528300 0.425207
v 0.076581 0.528247 0.425207
v 0.077034 0.526446 0.425207
v 0.077340 0.528351 0.425207
v 0.077912 0.526761 0.425207
v 0.078146 0.528662 0.425207
v 0.078767 0.527279 0.425207
v 0.072392 0.529732 0.425207
v 0.072321 0.538566 0.425207
v 0.072321 0.530845 0.425207
v 0.074323 0.538566 0.425207
v 0.072604 0.528801 0.425207
v 0.072943 0.528031 0.425207
v 0.073397 0.527406 0.425207
vn 0 0 -1
vn 0 0 1
vn 0 -1 0
vn 0 1 0
vn -1 0 0
vn 1 0 0
vn 0.6194566020942681 -0.7850309026540442 0
vn 0.569917394407184 -0.8217019919363261 0
vn -0.6194566020942681 0.7850309026540442 0
vn -0.569917394407184 0.8217019919363261 0
vn 0.43023710896415795 -0.9027159188084384 0
vn -0.43023710896415795 0.9027159188084384 0
vn 0.2242067028636297 -0.9745416124471136 0
vn -0.2242067028636297 0.9745416124471136 0
vn 0.01152607968344126 -0.9999335725372616 0
vn -0.01152607968344126 0.9999335725372616 0
vn -0.1732828015479136 -0.9848721087977395 0
vn 0.1732828015479136 0.9848721087977395 0
vn -0.3607878104622604 -0.9326479270452748 0
vn 0.3607878104622604 0.9326479270452748 0
vn -0.5590693829950188 -0.8291208747809748 0
vn 0.5590693829950188 0.8291208747809748 0
vn -0.7363467085783473 -0.6766044078823569 0
vn 0.7363467085783473 0.6766044078823569 0
vn -0.8670358192051557 -0.4982458110363242 0
vn 0.8670358192051557 0.4982458110363242 0
vn -0.9494168973681356 -0.3140183991295143 0
vn 0.9494168973681356 0.3140183991295143 0
vn -0.9897454313613664 -0.14284250452614985 0
vn 0.9897454313613664 0.14284250452614985 0
vn -0.9994989844553782 -0.031650909507751956 0
vn 0.9994989844553782 0.031650909507751956 0
vn 0.9997575773269497 0.022017869500666684 0
vn -0.9997575773269497 -0.022017869500666684 0
vn 0.9868848347078275 0.16142590567719992 0
vn -0.9868848347078275 -0.16142590567719992 0
vn 0.8983432058398014 0.439294302855692 0
vn -0.8983432058398014 -0.439294302855692 0
vn 0.808384004391041 0.5886555031975031 0
vn -0.808384004391041 -0.5886555031975031 0
vn 0.5885114090180047 0.8084889123888113 0
vn -0.5885114090180047 -0.8084889123888113 0
vn 0.2975689129342349 0.9547003414973402 0
vn -0.2975689129342349 -0.9547003414973402 0
vn 0.07625912254983155 0.9970880333390476 0
vn -0.029827668690063685 0.9995550561027219 0
vn -0.07625912254983155 -0.9970880333390476 0
vn 0.029827668690063685 -0.9995550561027219 0
vn -0.24958220384483884 0.9683536149175844 0
vn 0.24958220384483884 -0.9683536149175844 0
vn -0.46165649107855994 0.8870587828577267 0
vn 0.46165649107855994 -0.8870587828577267 0
vn -0.5573770118528313 0.8302595176557802 0
vn 0.5573770118528313 -0.8302595176557802 0
usemtl material_0_2
f 1//1 2//1 3//1
f 3//2 2//2 1//2
f 2//1 1//1 4//1
f 4//2 1//2 2//2
f 4//1 1//1 5//1
f 5//2 1//2 4//2
f 5//1 1//1 6//1
f 6//2 1//2 5//2
f 7//1 8//1 9//1
f 9//2 8//2 7//2
f 8//1 7//1 10//1
f 10//2 7//2 8//2
f 10//1 7//1 11//1
f 11//2 7//2 10//2
f 11//1 7//1 12//1
f 12//2 7//2 11//2
f 12//1 7//1 13//1
f 13//2 7//2 12//2
f 13//1 7//1 14//1
f 14//2 7//2 13//2
f 14//1 7//1 15//1
f 15//2 7//2 14//2
f 14//1 15//1 16//1
f 16//2 15//2 14//2
f 14//1 16//1 17//1
f 17//2 16//2 14//2
f 17//1 16//1 18//1
f 18//2 16//2 17//2
f 17//1 18//1 19//1
f 19//2 18//2 17//2
f 19//1 18//1 20//1
f 20//2 18//2 19//2
f 19//1 20//1 21//1
f 21//2 20//2 19//2
f 19//1 21//1 22//1
f 22//2 21//2 19//2
f 22//1 21//1 23//1
f 23//2 21//2 22//2
f 22//1 23//1 24//1
f 24//2 23//2 22//2
f 22//1 24//1 25//1
f 25//2 24//2 22//2
f 25//1 24//1 26//1
f 26//2 24//2 25//2
f 25//1 26//1 27//1
f 27//2 26//2 25//2
f 27//1 26//1 28//1
f 28//2 26//2 27//2
f 27//1 28//1 29//1
f 29//2 28//2 27//2
f 29//1 28//1 2//1
f 2//2 28//2 29//2
f 29//1 2//1 4//1
f 4//2 2//2 29//2
f 30//3 31//3 32//3
f 32//4 31//4 30//4
f 31//3 30//3 33//3
f 33//4 30//4 31//4
f 34//5 35//5 36//5
f 36//6 35//6 34//6
f 35//5 34//5 37//5
f 37//6 34//6 35//6
f 38//7 39//8 40//7
f 40//9 39//10 38//9
f 39//8 38//7 41//8
f 41//10 38//9 39//10
f 41//8 42//11 39//8
f 39//10 42//12 41//10
f 42//11 41//8 43//11
f 43//12 41//10 42//12
f 43//11 44//13 42//11
f 42//12 44//14 43//12
f 44//13 43//11 45//13
f 45//14 43//12 44//14
f 45//13 46//15 44//13
f 44//14 46//16 45//14
f 46//15 45//13 47//15
f 47//16 45//14 46//16
f 47//15 48//17 46//15
f 46//16 48//18 47//16
f 48//17 47//15 49//17
f 49//18 47//16 48//18
f 49//17 50//19 48//17
f 48//18 50//20 49//18
f 50//19 49//17 51//19
f 51//20 49//18 50//20
f 51//19 52//21 50//19
f 50//20 52//22 51//20
f 52//21 51//19 53//21
f 53//22 51//20 52//22
f 53//21 54//23 52//21
f 52//22 54//24 53//22
f 54//23 53//21 55//23
f 55//24 53//22 54//24
f 56//25 54//23 55//23
f 55//24 54//24 56//26
f 54//23 56//25 57//25
f 57//26 56//26 54//24
f 58//27 57//25 56//25
f 56//26 57//26 58//28
f 57//25 58//27 59//27
f 59//28 58//28 57//26
f 60//29 59//27 58//27
f 58//28 59//28 60//30
f 59//27 60//29 61//29
f 61//30 60//30 59//28
f 62//31 61//29 60//29
f 60//30 61//30 62//32
f 61//29 62//31 63//31
f 63//32 62//32 61//30
f 64//5 63//31 62//31
f 62//32 63//32 64//6
f 63//31 64//5 65//5
f 65//6 64//6 63//32
f 66//4 67//4 68//4
f 68//3 67//3 66//3
f 67//4 66//4 69//4
f 69//3 66//3 67//3
f 70//6 71//33 72//33
f 72//34 71//34 70//5
f 71//33 70//6 73//6
f 73//5 70//5 71//34
f 72//33 74//35 75//35
f 75//36 74//36 72//34
f 74//35 72//33 71//33
f 71//34 72//34 74//36
f 75//35 76//37 77//37
f 77//38 76//38 75//36
f 76//37 75//35 74//35
f 74//36 75//36 76//38
f 77//37 78//39 79//39
f 79//40 78//40 77//38
f 78//39 77//37 76//37
f 76//38 77//38 78//40
f 80//41 81//41 82//41
f 82//42 81//42 80//42
f 81//41 80//41 83//41
f 83//42 80//42 81//42
f 84//43 85//43 86//43
f 86//44 85//44 84//44
f 85//43 84//43 87//43
f 87//44 84//44 85//44
f 88//45 89//46 90//45
f 90//47 89//48 88//47
f 89//46 88//45 91//46
f 91//48 88//47 89//48
f 91//46 92//49 89//46
f 89//48 92//50 91//48
f 92//49 91//46 93//49
f 93//50 91//48 92//50
f 93//49 94//51 92//49
f 92//50 94//52 93//50
f 94//51 93//49 95//51
f 95//52 93//50 94//52
f 95//51 96//53 94//51
f 94//52 96//54 95//52
f 96//53 95//51 97//53
f 97//54 95//52 96//54
f 98//5 99//5 100//5
f 100//6 99//6 98//6
f 99//5 98//5 101//5
f 101//6 98//6 99//6
f 102//4 103//4 104//4
f 104//3 103//3 102//3
f 103//4 102//4 105//4
f 105//3 102//3 103//3
f 106//6 107//6 108//6
f 108//5 107//5 106//5
f 107//6 106//6 109//6
f 109//5 106//5 107//5
f 110//2 111//2 112//2
f 112//1 111//1 110//1
f 111//2 110//2 113//2
f 113//1 110//1 111//1
f 113//2 110//2 114//2
f 114//1 110//1 113//1
f 114//2 110//2 115//2
f 115//1 110//1 114//1
f 116//2 117//2 118//2
f 118//1 117//1 116//1
f 117//2 116//2 119//2
f 119//1 116//1 117//1
f 117//2 119//2 120//2
f 120//1 119//1 117//1
f 120//2 119//2 121//2
f 121//1 119//1 120//1
f 120//2 121//2 122//2
f 122//1 121//1 120//1
f 122//2 121//2 123//2
f 123//1 121//1 122//1
f 123//2 121//2 124//2
f 124//1 121//1 123//1
f 123//2 124//2 125//2
f 125//1 124//1 123//1
f 125//2 124//2 126//2
f 126//1 124//1 125//1
f 126//2 124//2 127//2
f 127//1 124//1 126//1
f 126//2 127//2 128//2
f 128//1 127//1 126//1
f 128//2 127//2 129//2
f 129//1 127//1 128//1
f 128//2 129//2 130//2
f 130//1 129//1 128//1
f 130//2 129//2 131//2
f 131//1 129//1 130//1
f 130//2 131//2 113//2
f 113//1 131//1 130//1
f 113//2 131//2 111//2
f 111//1 131//1 113//1
f 132//2 133//2 134//2
f 134//1 133//1 132//1
f 133//2 132//2 135//2
f 135//1 132//1 133//1
f 135//2 132//2 136//2
f 136//1 132//1 135//1
f 135//2 136//2 137//2
f 137//1 136//1 135//1
f 135//2 137//2 138//2
f 138//1 137//1 135//1
f 135//2 138//2 116//2
f 116//1 138//1 135//1
f 135//2 116//2 118//2
f 118//1 116//1 135//1
