mtllib new-4.mtl
v 0.675781 -0.355570 0.023522
v 0.667691 -0.336920 -0.010647
v 0.645899 -0.336920 0.041963
v 0.662028 -0.336920 -0.039120
v 0.645899 -0.336920 -0.063258
v 0.662028 -0.336920 0.017825
v 0.621761 -0.336920 0.058092
v 0.564816 -0.336920 0.058092
v 0.653366 -0.304090 -0.010647
v 0.648793 -0.304090 -0.033638
v 0.648793 -0.304090 0.012344
v 0.635770 -0.304090 0.031834
v 0.593288 -0.304090 0.049430
v 0.570297 -0.304090 0.044857
v 0.621761 -0.336920 -0.079387
v 0.559119 -0.355570 -0.093140
v 0.635770 -0.304090 -0.053129
v 0.616279 -0.304090 0.044857
v 0.550807 -0.304090 0.031834
v 0.593288 -0.336920 -0.085050
v 0.564816 -0.336920 -0.079387
v 0.650680 -0.280251 -0.010647
v 0.646311 -0.280251 -0.032610
v 0.633870 -0.280251 -0.051229
v 0.633870 -0.280251 0.029935
v 0.593288 -0.280251 0.046744
v 0.571325 -0.280251 0.042376
v 0.552706 -0.280251 0.029935
v 0.524549 -0.336920 0.017825
v 0.616279 -0.304090 -0.066152
v 0.540677 -0.336920 -0.063258
v 0.646311 -0.280251 0.011316
v 0.615251 -0.280251 0.042376
v 0.537784 -0.304090 0.012344
v 0.570297 -0.304090 -0.066152
v 0.593288 -0.304090 -0.070725
v 0.550807 -0.304090 -0.053129
v 0.650680 0.079404 -0.010647
v 0.646311 0.079404 -0.032610
v 0.633870 0.079404 -0.051229
v 0.615251 -0.280251 -0.063670
v 0.646311 0.079404 0.011316
v 0.615251 0.079404 0.042376
v 0.571325 0.079404 0.042376
v 0.552706 0.079404 0.029935
v 0.540265 -0.280251 0.011316
v 0.518885 -0.336920 -0.010647
v 0.524549 -0.336920 -0.039120
v 0.633870 0.079404 0.029935
v 0.593288 0.079404 0.046744
v 0.533211 -0.304090 -0.010647
v 0.571325 -0.280251 -0.063670
v 0.552706 -0.280251 -0.051229
v 0.593288 -0.280251 -0.068039
v 0.537784 -0.304090 -0.033638
v 0.615251 0.079404 -0.063670
v 0.540265 0.079404 0.011316
v 0.535897 -0.280251 -0.010647
v 0.540265 -0.280251 -0.032610
v 0.593288 0.079404 -0.068039
v 0.571325 0.079404 -0.063670
v 0.535897 0.079404 -0.010647
v 0.540265 0.079404 -0.032610
v 0.552706 0.079404 -0.051229
v 0.686822 -0.336920 -0.010647
v 0.665030 -0.336920 0.041963
v 0.612419 -0.336920 0.063756
v 0.681158 -0.336920 -0.039120
v 0.665030 -0.336920 -0.063258
v 0.681158 -0.336920 0.017825
v 0.640892 -0.336920 0.058092
v 0.583946 -0.336920 0.058092
v 0.672497 -0.304090 -0.010647
v 0.667923 -0.304090 -0.033638
v 0.667923 -0.304090 0.012344
v 0.654900 -0.304090 0.031834
v 0.612419 -0.304090 0.049430
v 0.589428 -0.304090 0.044857
v 0.640892 -0.336920 -0.079387
v 0.654900 -0.304090 -0.053129
v 0.635410 -0.304090 0.044857
v 0.569938 -0.304090 0.031834
v 0.612419 -0.336920 -0.085050
v 0.583946 -0.336920 -0.079387
v 0.669811 -0.280251 -0.010647
v 0.665442 -0.280251 -0.032610
v 0.653001 -0.280251 -0.051229
v 0.653001 -0.280251 0.029935
v 0.612419 -0.280251 0.046744
v 0.590456 -0.280251 0.042376
v 0.571837 -0.280251 0.029935
v 0.543679 -0.336920 0.017825
v 0.635410 -0.304090 -0.066152
v 0.559808 -0.336920 -0.063258
v 0.665442 -0.280251 0.011316
v 0.634382 -0.280251 0.042376
v 0.556914 -0.304090 0.012344
v 0.589428 -0.304090 -0.066152
v 0.612419 -0.304090 -0.070725
v 0.569938 -0.304090 -0.053129
v 0.669811 0.079404 -0.010647
v 0.665442 0.079404 -0.032610
v 0.653001 0.079404 -0.051229
v 0.634382 -0.280251 -0.063670
v 0.665442 0.079404 0.011316
v 0.634382 0.079404 0.042376
v 0.590456 0.079404 0.042376
v 0.571837 0.079404 0.029935
v 0.559396 -0.280251 0.011316
v 0.538016 -0.336920 -0.010647
v 0.543679 -0.336920 -0.039120
v 0.653001 0.079404 0.029935
v 0.612419 0.079404 0.046744
v 0.552341 -0.304090 -0.010647
v 0.590456 -0.280251 -0.063670
v 0.571837 -0.280251 -0.051229
v 0.612419 -0.280251 -0.068039
v 0.556914 -0.304090 -0.033638
v 0.634382 0.079404 -0.063670
v 0.559396 0.079404 0.011316
v 0.555027 -0.280251 -0.010647
v 0.559396 -0.280251 -0.032610
v 0.612419 0.079404 -0.068039
v 0.590456 0.079404 -0.063670
v 0.555027 0.079404 -0.010647
v 0.559396 0.079404 -0.032610
v 0.571837 0.079404 -0.051229
vn 0.980785 0.000000 0.195090
vn -0.980785 0.000000 -0.195090
vn 0.831470 0.000000 0.555570
vn -0.831470 0.000000 -0.555570
vn 0.980785 0.000000 -0.195090
vn -0.980785 0.000000 0.195090
vn 0.652756 0.707675 0.270380
vn -0.652756 -0.707675 -0.270380
vn 0.555570 0.000000 0.831470
vn -0.555570 0.000000 -0.831470
vn 0.831470 0.000000 -0.555570
vn -0.831470 0.000000 0.555570
vn 0.856247 0.516567 0.000000
vn -0.856247 -0.516567 0.000000
vn 0.605458 0.516567 0.605458
vn -0.605458 -0.516567 -0.605458
vn 0.195090 0.000000 0.980785
vn -0.195090 0.000000 -0.980785
vn 0.555570 0.000000 -0.831470
vn -0.555570 0.000000 0.831470
vn 0.791069 0.516567 -0.327671
vn -0.791069 -0.516567 0.327671
vn 0.605458 0.516567 -0.605458
vn -0.605458 -0.516567 0.605458
vn 0.791069 0.516567 0.327671
vn -0.791069 -0.516567 -0.327671
vn 0.327671 0.516567 0.791069
vn -0.327671 -0.516567 -0.791069
vn -0.327671 0.516567 0.791069
vn 0.327671 -0.516567 -0.791069
vn 0.195090 0.000000 -0.980785
vn -0.195090 0.000000 0.980785
vn 0.948518 0.254394 0.188672
vn -0.948518 -0.254394 -0.188672
vn 0.948518 0.254394 -0.188672
vn -0.948518 -0.254394 0.188672
vn 0.804115 0.254394 0.537292
vn -0.804115 -0.254394 -0.537292
vn 0.537292 0.254394 0.804115
vn -0.537292 -0.254394 -0.804115
vn 0.188672 0.254394 0.948518
vn -0.188672 -0.254394 -0.948518
vn -0.188672 0.254394 0.948518
vn 0.188672 -0.254394 -0.948518
vn 0.327671 0.516567 -0.791069
vn -0.327671 -0.516567 0.791069
vn -0.270380 0.707675 -0.652756
vn 0.270380 -0.707675 0.652756
vn 0.804115 0.254394 -0.537292
vn -0.804115 -0.254394 0.537292
vn -0.537292 0.254394 0.804115
vn 0.537292 -0.254394 -0.804115
vn 0.000000 0.516567 -0.856247
vn 0.000000 -0.516567 0.856247
vn -0.327671 0.516567 -0.791069
vn 0.327671 -0.516567 0.791069
vn 0.537292 0.254394 -0.804115
vn -0.537292 -0.254394 0.804115
vn 0.979301 0.055003 0.194795
vn -0.979301 -0.055003 -0.194795
vn 0.979301 0.055003 -0.194795
vn -0.979301 -0.055003 0.194795
vn 0.830211 0.055003 -0.554729
vn -0.830211 -0.055003 0.554729
vn 0.830211 0.055003 0.554729
vn -0.830211 -0.055003 -0.554729
vn 0.554729 0.055003 0.830211
vn -0.554729 -0.055003 -0.830211
vn 0.194795 0.055003 0.979301
vn -0.194795 -0.055003 -0.979301
vn -0.194795 0.055003 0.979301
vn 0.194795 -0.055003 -0.979301
vn -0.554729 0.055003 0.830211
vn 0.554729 -0.055003 -0.830211
vn -0.804115 0.254394 0.537292
vn -0.791069 0.516567 0.327671
vn 0.791069 -0.516567 -0.327671
vn 0.804115 -0.254394 -0.537292
vn 0.188672 0.254394 -0.948518
vn -0.188672 -0.254394 0.948518
vn -0.605458 0.516567 -0.605458
vn 0.605458 -0.516567 0.605458
vn 0.554729 0.055003 -0.830211
vn -0.554729 -0.055003 0.830211
vn -0.830211 0.055003 0.554729
vn 0.830211 -0.055003 -0.554729
vn -0.188672 0.254394 -0.948518
vn 0.188672 -0.254394 0.948518
vn -0.537292 0.254394 -0.804115
vn 0.537292 -0.254394 0.804115
vn -0.948518 0.254394 0.188672
vn -0.856247 0.516567 0.000000
vn 0.856247 -0.516567 0.000000
vn 0.948518 -0.254394 -0.188672
vn 0.194795 0.055003 -0.979301
vn -0.194795 -0.055003 0.979301
vn -0.791069 0.516567 -0.327671
vn -0.804115 0.254394 -0.537292
vn 0.804115 -0.254394 0.537292
vn 0.791069 -0.516567 0.327671
vn -0.979301 0.055003 0.194795
vn 0.979301 -0.055003 -0.194795
vn -0.194795 0.055003 -0.979301
vn 0.194795 -0.055003 0.979301
vn -0.554729 0.055003 -0.830211
vn 0.554729 -0.055003 0.830211
vn -0.948518 0.254394 -0.188672
vn 0.948518 -0.254394 0.188672
vn -0.830211 0.055003 -0.554729
vn 0.830211 -0.055003 0.554729
vn -0.979301 0.055003 -0.194795
vn 0.979301 -0.055003 0.194795
vn 0.980785 0.000000 0.195090
vn -0.980785 0.000000 -0.195090
vn 0.831470 0.000000 0.555570
vn -0.831470 0.000000 -0.555570
vn 0.980785 0.000000 -0.195090
vn -0.980785 0.000000 0.195090
vn 0.555570 0.000000 0.831470
vn -0.555570 0.000000 -0.831470
vn 0.831470 0.000000 -0.555570
vn -0.831470 0.000000 0.555570
vn 0.856247 0.516567 0.000000
vn -0.856247 -0.516567 0.000000
vn 0.605458 0.516567 0.605458
vn -0.605458 -0.516567 -0.605458
vn 0.000000 0.516567 0.856247
vn 0.000000 -0.516567 -0.856247
vn 0.195090 0.000000 0.980785
vn -0.195090 0.000000 -0.980785
vn 0.555570 0.000000 -0.831470
vn -0.555570 0.000000 0.831470
vn 0.791069 0.516567 -0.327671
vn -0.791069 -0.516567 0.327671
vn 0.605458 0.516567 -0.605458
vn -0.605458 -0.516567 0.605458
vn 0.791069 0.516567 0.327671
vn -0.791069 -0.516567 -0.327671
vn 0.327671 0.516567 0.791069
vn -0.327671 -0.516567 -0.791069
vn -0.327671 0.516567 0.791069
vn 0.327671 -0.516567 -0.791069
vn 0.195090 0.000000 -0.980785
vn -0.195090 0.000000 0.980785
vn 0.948518 0.254394 0.188672
vn -0.948518 -0.254394 -0.188672
vn 0.948518 0.254394 -0.188672
vn -0.948518 -0.254394 0.188672
vn 0.804115 0.254394 0.537292
vn -0.804115 -0.254394 -0.537292
vn 0.537292 0.254394 0.804115
vn -0.537292 -0.254394 -0.804115
vn 0.188672 0.254394 0.948518
vn -0.188672 -0.254394 -0.948518
vn -0.188672 0.254394 0.948518
vn 0.188672 -0.254394 -0.948518
vn 0.327671 0.516567 -0.791069
vn -0.327671 -0.516567 0.791069
vn 0.804115 0.254394 -0.537292
vn -0.804115 -0.254394 0.537292
vn -0.537292 0.254394 0.804115
vn 0.537292 -0.254394 -0.804115
vn 0.000000 0.516567 -0.856247
vn 0.000000 -0.516567 0.856247
vn -0.327671 0.516567 -0.791069
vn 0.327671 -0.516567 0.791069
vn 0.537292 0.254394 -0.804115
vn -0.537292 -0.254394 0.804115
vn 0.979301 0.055003 0.194795
vn -0.979301 -0.055003 -0.194795
vn 0.979301 0.055003 -0.194795
vn -0.979301 -0.055003 0.194795
vn 0.830211 0.055003 -0.554729
vn -0.830211 -0.055003 0.554729
vn 0.830211 0.055003 0.554729
vn -0.830211 -0.055003 -0.554729
vn 0.554729 0.055003 0.830211
vn -0.554729 -0.055003 -0.830211
vn 0.194795 0.055003 0.979301
vn -0.194795 -0.055003 -0.979301
vn -0.194795 0.055003 0.979301
vn 0.194795 -0.055003 -0.979301
vn -0.554729 0.055003 0.830211
vn 0.554729 -0.055003 -0.830211
vn -0.804115 0.254394 0.537292
vn -0.791069 0.516567 0.327671
vn 0.791069 -0.516567 -0.327671
vn 0.804115 -0.254394 -0.537292
vn 0.188672 0.254394 -0.948518
vn -0.188672 -0.254394 0.948518
vn -0.605458 0.516567 -0.605458
vn 0.605458 -0.516567 0.605458
vn 0.554729 0.055003 -0.830211
vn -0.554729 -0.055003 0.830211
vn -0.830211 0.055003 0.554729
vn 0.830211 -0.055003 -0.554729
vn -0.188672 0.254394 -0.948518
vn 0.188672 -0.254394 0.948518
vn -0.537292 0.254394 -0.804115
vn 0.537292 -0.254394 0.804115
vn -0.948518 0.254394 0.188672
vn -0.856247 0.516567 0.000000
vn 0.856247 -0.516567 0.000000
vn 0.948518 -0.254394 -0.188672
vn 0.194795 0.055003 -0.979301
vn -0.194795 -0.055003 0.979301
vn -0.791069 0.516567 -0.327671
vn -0.804115 0.254394 -0.537292
vn 0.804115 -0.254394 0.537292
vn 0.791069 -0.516567 0.327671
vn -0.979301 0.055003 0.194795
vn 0.979301 -0.055003 -0.194795
vn -0.194795 0.055003 -0.979301
vn 0.194795 -0.055003 0.979301
vn -0.554729 0.055003 -0.830211
vn 0.554729 -0.055003 0.830211
vn -0.948518 0.254394 -0.188672
vn 0.948518 -0.254394 0.188672
vn -0.830211 0.055003 -0.554729
vn 0.830211 -0.055003 0.554729
vn -0.979301 0.055003 -0.194795
vn 0.979301 -0.055003 0.194795
vt 0.567272 0.816137
vt 0.585096 0.878472
vt 0.578226 0.778960
vt 0.585866 0.838891
vt 0.605670 0.874938
vt 0.580021 0.809816
vt 0.594873 0.861759
vt 0.596764 0.775642
vt 0.598213 0.800557
vt 0.602933 0.824034
vt 0.618924 0.853141
vt 0.610206 0.842499
vt 0.607280 0.771246
vt 0.608664 0.795047
vt 0.613173 0.817474
vt 0.628449 0.845280
vt 0.620120 0.835114
vt 0.750452 0.694486
vt 0.751836 0.718287
vt 0.756345 0.740714
vt 0.763293 0.758353
vt 0.771621 0.768519
vt 0.578226 0.778960
vt 0.585866 0.838891
vt 0.605670 0.874938
vt 0.580021 0.809816
vt 0.594873 0.861759
vt 0.596764 0.775642
vt 0.598213 0.800557
vt 0.602933 0.824034
vt 0.618924 0.853141
vt 0.610206 0.842499
vt 0.607280 0.771246
vt 0.608664 0.795047
vt 0.613173 0.817474
vt 0.628449 0.845280
vt 0.620120 0.835114
vt 0.750452 0.694486
vt 0.751836 0.718287
vt 0.756345 0.740714
vt 0.763293 0.758353
vt 0.771621 0.768519
usemtl material-4
f 3/4/15 1/1/7 6/6/25
f 6/6/26 1/1/8 3/4/16
f 9/8/33 6/6/25 2/3/13
f 2/3/14 6/6/26 9/8/34
f 10/9/35 2/3/13 4/6/21
f 4/6/22 2/3/14 10/9/36
f 11/9/37 3/4/15 6/6/25
f 6/6/26 3/4/16 11/9/38
f 12/10/39 7/7/27 3/4/15
f 3/4/16 7/7/28 12/10/40
f 17/10/49 4/6/21 5/4/23
f 5/4/24 4/6/22 17/10/50
f 6/6/25 9/8/33 11/9/33
f 11/9/34 9/8/34 6/6/26
f 2/3/13 10/9/35 9/8/35
f 9/8/36 10/9/36 2/3/14
f 4/6/21 17/10/49 10/9/49
f 10/9/50 17/10/50 4/6/22
f 3/4/15 11/9/37 12/10/37
f 12/10/38 11/9/38 3/4/16
f 7/7/27 12/10/39 18/12/39
f 18/12/40 12/10/40 7/7/28
f 13/11/41 7/7/27 18/12/41
f 18/12/42 7/7/28 13/11/42
f 19/10/51 8/7/29 14/12/51
f 14/12/52 8/7/30 19/10/52
f 15/7/45 17/10/57 5/4/23
f 5/4/24 17/10/58 15/7/46
f 22/13/59 11/9/33 9/8/33
f 9/8/34 11/9/34 22/13/60
f 23/14/61 9/8/35 10/9/35
f 10/9/36 9/8/36 23/14/62
f 24/15/63 10/9/49 17/10/49
f 17/10/50 10/9/50 24/15/64
f 11/9/37 25/15/65 12/10/37
f 12/10/38 25/15/66 11/9/38
f 25/15/67 18/12/39 12/10/39
f 12/10/40 18/12/40 25/15/68
f 18/12/41 26/16/69 13/11/41
f 13/11/42 26/16/70 18/12/42
f 13/11/43 27/17/71 14/12/43
f 14/12/44 27/17/72 13/11/44
f 14/12/51 28/15/73 19/10/51
f 19/10/52 28/15/74 14/12/52
f 20/5/53 30/12/79 15/7/45
f 15/7/46 30/12/80 20/5/54
f 16/2/47 31/4/81 21/7/55
f 21/7/56 31/4/82 16/2/48
f 17/10/57 15/7/45 30/12/57
f 30/12/58 15/7/46 17/10/58
f 11/9/33 22/13/59 32/14/59
f 32/14/60 22/13/60 11/9/34
f 9/8/35 23/14/61 22/13/61
f 22/13/62 23/14/62 9/8/36
f 10/9/49 24/15/63 23/14/63
f 23/14/64 24/15/64 10/9/50
f 30/12/57 24/15/83 17/10/57
f 17/10/58 24/15/84 30/12/58
f 25/15/65 11/9/37 32/14/65
f 32/14/66 11/9/38 25/15/66
f 18/12/39 25/15/67 33/17/67
f 33/17/68 25/15/68 18/12/40
f 26/16/69 18/12/41 33/17/69
f 33/17/70 18/12/42 26/16/70
f 27/17/71 13/11/43 26/16/71
f 26/16/72 13/11/44 27/17/72
f 28/15/73 14/12/51 27/17/73
f 27/17/74 14/12/52 28/15/74
f 28/15/85 34/9/75 19/10/75
f 19/10/78 34/9/78 28/15/86
f 29/6/76 19/10/75 34/9/75
f 34/9/78 19/10/78 29/6/77
f 35/12/87 20/5/53 21/7/55
f 21/7/56 20/5/54 35/12/88
f 30/12/79 20/5/53 36/11/79
f 36/11/80 20/5/54 30/12/80
f 37/10/89 21/7/55 31/4/81
f 31/4/82 21/7/56 37/10/90
f 38/18/1 32/14/59 22/13/59
f 22/13/60 32/14/60 38/18/2
f 39/19/5 22/13/61 23/14/61
f 23/14/62 22/13/62 39/19/6
f 40/20/11 23/14/63 24/15/63
f 24/15/64 23/14/64 40/20/12
f 24/15/83 30/12/57 41/17/83
f 41/17/84 30/12/58 24/15/84
f 42/19/3 25/15/65 32/14/65
f 32/14/66 25/15/66 42/19/4
f 25/15/67 43/21/9 33/17/67
f 33/17/68 43/21/10 25/15/68
f 43/21/17 26/16/69 33/17/69
f 33/17/70 26/16/70 43/21/18
f 26/16/71 44/21/32 27/17/71
f 27/17/72 44/21/31 26/16/72
f 27/17/73 45/20/20 28/15/73
f 28/15/74 45/20/19 27/17/74
f 34/9/75 28/15/85 46/14/85
f 46/14/86 28/15/86 34/9/78
f 20/5/53 35/12/87 36/11/87
f 36/11/88 35/12/88 20/5/54
f 21/7/55 37/10/89 35/12/89
f 35/12/90 37/10/90 21/7/56
f 36/11/79 41/17/95 30/12/79
f 30/12/80 41/17/96 36/11/80
f 48/6/97 37/10/98 31/4/81
f 31/4/82 37/10/99 48/6/100
f 32/14/59 38/18/1 42/19/1
f 42/19/2 38/18/2 32/14/60
f 22/13/61 39/19/5 38/18/5
f 38/18/6 39/19/6 22/13/62
f 23/14/63 40/20/11 39/19/11
f 39/19/12 40/20/12 23/14/64
f 41/17/83 40/20/19 24/15/83
f 24/15/84 40/20/20 41/17/84
f 25/15/65 42/19/3 49/20/3
f 49/20/4 42/19/4 25/15/66
f 43/21/9 25/15/67 49/20/9
f 49/20/10 25/15/68 43/21/10
f 26/16/69 43/21/17 50/22/17
f 50/22/18 43/21/18 26/16/70
f 44/21/32 26/16/71 50/22/32
f 50/22/31 26/16/72 44/21/31
f 45/20/20 27/17/73 44/21/20
f 44/21/19 27/17/74 45/20/19
f 45/20/12 46/14/85 28/15/85
f 28/15/86 46/14/86 45/20/11
f 46/14/101 51/8/91 34/9/91
f 34/9/94 51/8/94 46/14/102
f 47/3/92 34/9/91 51/8/91
f 51/8/94 34/9/94 47/3/93
f 52/17/103 36/11/87 35/12/87
f 35/12/88 36/11/88 52/17/104
f 53/15/105 35/12/89 37/10/89
f 37/10/90 35/12/90 53/15/106
f 41/17/95 36/11/79 54/16/95
f 54/16/96 36/11/80 41/17/96
f 37/10/98 48/6/97 55/9/98
f 55/9/99 48/6/100 37/10/99
f 40/20/19 41/17/83 56/21/19
f 56/21/20 41/17/84 40/20/20
f 46/14/85 45/20/12 57/19/12
f 57/19/11 45/20/11 46/14/86
f 51/8/91 46/14/101 58/13/101
f 58/13/102 46/14/102 51/8/94
f 55/9/107 47/3/92 51/8/107
f 51/8/108 47/3/93 55/9/108
f 36/11/87 52/17/103 54/16/103
f 54/16/104 52/17/104 36/11/88
f 35/12/89 53/15/105 52/17/105
f 52/17/106 53/15/106 35/12/90
f 55/9/98 53/15/109 37/10/98
f 37/10/99 53/15/110 55/9/99
f 54/16/95 56/21/31 41/17/95
f 41/17/96 56/21/32 54/16/96
f 47/3/92 55/9/107 48/6/97
f 48/6/100 55/9/108 47/3/93
f 57/19/6 58/13/101 46/14/101
f 46/14/102 58/13/102 57/19/5
f 59/14/111 51/8/107 58/13/111
f 58/13/112 51/8/108 59/14/112
f 51/8/107 59/14/111 55/9/107
f 55/9/108 59/14/112 51/8/108
f 52/17/103 60/22/18 54/16/103
f 54/16/104 60/22/17 52/17/104
f 53/15/105 61/21/10 52/17/105
f 52/17/106 61/21/9 53/15/106
f 53/15/109 55/9/98 59/14/109
f 59/14/110 55/9/99 53/15/110
f 56/21/31 54/16/95 60/22/31
f 60/22/32 54/16/96 56/21/32
f 58/13/101 57/19/6 62/18/6
f 62/18/5 57/19/5 58/13/102
f 58/13/111 63/19/2 59/14/111
f 59/14/112 63/19/1 58/13/112
f 60/22/18 52/17/103 61/21/18
f 61/21/17 52/17/104 60/22/17
f 61/21/10 53/15/105 64/20/10
f 64/20/9 53/15/106 61/21/9
f 63/19/4 53/15/109 59/14/109
f 59/14/110 53/15/110 63/19/3
f 63/19/2 58/13/111 62/18/2
f 62/18/1 58/13/112 63/19/1
f 53/15/109 63/19/4 64/20/4
f 64/20/3 63/19/3 53/15/110
usemtl material-6
f 73/28/145 70/26/137 65/23/123
f 65/23/124 70/26/138 73/28/146
f 74/29/147 65/23/123 68/26/133
f 68/26/134 65/23/124 74/29/148
f 75/29/149 66/24/125 70/26/137
f 70/26/138 66/24/126 75/29/150
f 76/30/151 71/27/139 66/24/125
f 66/24/126 71/27/140 76/30/152
f 71/27/139 77/31/153 67/25/127
f 67/25/128 77/31/154 71/27/140
f 80/30/159 68/26/133 69/24/135
f 69/24/136 68/26/134 80/30/160
f 70/26/137 73/28/145 75/29/145
f 75/29/146 73/28/146 70/26/138
f 65/23/123 74/29/147 73/28/147
f 73/28/148 74/29/148 65/23/124
f 68/26/133 80/30/159 74/29/159
f 74/29/160 80/30/160 68/26/134
f 66/24/125 75/29/149 76/30/149
f 76/30/150 75/29/150 66/24/126
f 71/27/139 76/30/151 81/32/151
f 81/32/152 76/30/152 71/27/140
f 77/31/153 71/27/139 81/32/153
f 81/32/154 71/27/140 77/31/154
f 82/30/161 72/27/141 78/32/161
f 78/32/162 72/27/142 82/30/162
f 79/27/157 80/30/167 69/24/135
f 69/24/136 80/30/168 79/27/158
f 85/33/169 75/29/145 73/28/145
f 73/28/146 75/29/146 85/33/170
f 86/34/171 73/28/147 74/29/147
f 74/29/148 73/28/148 86/34/172
f 87/35/173 74/29/159 80/30/159
f 80/30/160 74/29/160 87/35/174
f 75/29/149 88/35/175 76/30/149
f 76/30/150 88/35/176 75/29/150
f 88/35/177 81/32/151 76/30/151
f 76/30/152 81/32/152 88/35/178
f 81/32/153 89/36/179 77/31/153
f 77/31/154 89/36/180 81/32/154
f 77/31/155 90/37/181 78/32/155
f 78/32/156 90/37/182 77/31/156
f 78/32/161 91/35/183 82/30/161
f 82/30/162 91/35/184 78/32/162
f 83/25/163 93/32/189 79/27/157
f 79/27/158 93/32/190 83/25/164
f 80/30/167 79/27/157 93/32/167
f 93/32/168 79/27/158 80/30/168
f 75/29/145 85/33/169 95/34/169
f 95/34/170 85/33/170 75/29/146
f 73/28/147 86/34/171 85/33/171
f 85/33/172 86/34/172 73/28/148
f 74/29/159 87/35/173 86/34/173
f 86/34/174 87/35/174 74/29/160
f 93/32/167 87/35/193 80/30/167
f 80/30/168 87/35/194 93/32/168
f 88/35/175 75/29/149 95/34/175
f 95/34/176 75/29/150 88/35/176
f 81/32/151 88/35/177 96/37/177
f 96/37/178 88/35/178 81/32/152
f 89/36/179 81/32/153 96/37/179
f 96/37/180 81/32/154 89/36/180
f 90/37/181 77/31/155 89/36/181
f 89/36/182 77/31/156 90/37/182
f 91/35/183 78/32/161 90/37/183
f 90/37/184 78/32/162 91/35/184
f 91/35/195 97/29/185 82/30/185
f 82/30/188 97/29/188 91/35/196
f 92/26/186 82/30/185 97/29/185
f 97/29/188 82/30/188 92/26/187
f 98/32/197 83/25/163 84/27/165
f 84/27/166 83/25/164 98/32/198
f 93/32/189 83/25/163 99/31/189
f 99/31/190 83/25/164 93/32/190
f 100/30/199 84/27/165 94/24/191
f 94/24/192 84/27/166 100/30/200
f 101/38/113 95/34/169 85/33/169
f 85/33/170 95/34/170 101/38/114
f 102/39/117 85/33/171 86/34/171
f 86/34/172 85/33/172 102/39/118
f 103/40/121 86/34/173 87/35/173
f 87/35/174 86/34/174 103/40/122
f 87/35/193 93/32/167 104/37/193
f 104/37/194 93/32/168 87/35/194
f 105/39/115 88/35/175 95/34/175
f 95/34/176 88/35/176 105/39/116
f 88/35/177 106/41/119 96/37/177
f 96/37/178 106/41/120 88/35/178
f 106/41/129 89/36/179 96/37/179
f 96/37/180 89/36/180 106/41/130
f 89/36/181 107/41/144 90/37/181
f 90/37/182 107/41/143 89/36/182
f 90/37/183 108/40/132 91/35/183
f 91/35/184 108/40/131 90/37/184
f 97/29/185 91/35/195 109/34/195
f 109/34/196 91/35/196 97/29/188
f 97/29/201 110/23/202 92/26/186
f 92/26/187 110/23/203 97/29/204
f 83/25/163 98/32/197 99/31/197
f 99/31/198 98/32/198 83/25/164
f 84/27/165 100/30/199 98/32/199
f 98/32/200 100/30/200 84/27/166
f 99/31/189 104/37/205 93/32/189
f 93/32/190 104/37/206 99/31/190
f 111/26/207 100/30/208 94/24/191
f 94/24/192 100/30/209 111/26/210
f 95/34/169 101/38/113 105/39/113
f 105/39/114 101/38/114 95/34/170
f 85/33/171 102/39/117 101/38/117
f 101/38/118 102/39/118 85/33/172
f 86/34/173 103/40/121 102/39/121
f 102/39/122 103/40/122 86/34/174
f 104/37/193 103/40/131 87/35/193
f 87/35/194 103/40/132 104/37/194
f 88/35/175 105/39/115 112/40/115
f 112/40/116 105/39/116 88/35/176
f 106/41/119 88/35/177 112/40/119
f 112/40/120 88/35/178 106/41/120
f 89/36/179 106/41/129 113/42/129
f 113/42/130 106/41/130 89/36/180
f 107/41/144 89/36/181 113/42/144
f 113/42/143 89/36/182 107/41/143
f 108/40/132 90/37/183 107/41/132
f 107/41/131 90/37/184 108/40/131
f 108/40/122 109/34/195 91/35/195
f 91/35/196 109/34/196 108/40/121
f 109/34/211 114/28/201 97/29/201
f 97/29/204 114/28/204 109/34/212
f 110/23/202 97/29/201 114/28/201
f 114/28/204 97/29/204 110/23/203
f 115/37/213 99/31/197 98/32/197
f 98/32/198 99/31/198 115/37/214
f 116/35/215 98/32/199 100/30/199
f 100/30/200 98/32/200 116/35/216
f 104/37/205 99/31/189 117/36/205
f 117/36/206 99/31/190 104/37/206
f 100/30/208 111/26/207 118/29/208
f 118/29/209 111/26/210 100/30/209
f 103/40/131 104/37/193 119/41/131
f 119/41/132 104/37/194 103/40/132
f 109/34/195 108/40/122 120/39/122
f 120/39/121 108/40/121 109/34/196
f 114/28/201 109/34/211 121/33/211
f 121/33/212 109/34/212 114/28/204
f 118/29/217 110/23/202 114/28/217
f 114/28/218 110/23/203 118/29/218
f 99/31/197 115/37/213 117/36/213
f 117/36/214 115/37/214 99/31/198
f 98/32/199 116/35/215 115/37/215
f 115/37/216 116/35/216 98/32/200
f 118/29/208 116/35/219 100/30/208
f 100/30/209 116/35/220 118/29/209
f 117/36/205 119/41/143 104/37/205
f 104/37/206 119/41/144 117/36/206
f 110/23/202 118/29/217 111/26/207
f 111/26/210 118/29/218 110/23/203
f 120/39/118 121/33/211 109/34/211
f 109/34/212 121/33/212 120/39/117
f 122/34/221 114/28/217 121/33/221
f 121/33/222 114/28/218 122/34/222
f 114/28/217 122/34/221 118/29/217
f 118/29/218 122/34/222 114/28/218
f 115/37/213 123/42/130 117/36/213
f 117/36/214 123/42/129 115/37/214
f 116/35/215 124/41/120 115/37/215
f 115/37/216 124/41/119 116/35/216
f 116/35/219 118/29/208 122/34/219
f 122/34/220 118/29/209 116/35/220
f 119/41/143 117/36/205 123/42/143
f 123/42/144 117/36/206 119/41/144
f 121/33/211 120/39/118 125/38/118
f 125/38/117 120/39/117 121/33/212
f 121/33/221 126/39/114 122/34/221
f 122/34/222 126/39/113 121/33/222
f 123/42/130 115/37/213 124/41/130
f 124/41/129 115/37/214 123/42/129
f 124/41/120 116/35/215 127/40/120
f 127/40/119 116/35/216 124/41/119
f 126/39/116 116/35/219 122/34/219
f 122/34/220 116/35/220 126/39/115
f 126/39/114 121/33/221 125/38/114
f 125/38/113 121/33/222 126/39/113
f 116/35/219 126/39/116 127/40/116
f 127/40/115 126/39/115 116/35/220