mtllib new-6.mtl
v -0.611788 -0.336920 0.063756
v -0.664398 -0.336920 0.041963
v -0.686191 -0.336920 -0.010647
v -0.583315 -0.336920 0.058092
v -0.640260 -0.336920 0.058092
v -0.680527 -0.336920 0.017825
v -0.611788 -0.355570 -0.099937
v -0.680527 -0.336920 -0.039120
v -0.664398 -0.336920 -0.063258
v -0.559177 -0.336920 0.041963
v -0.588797 -0.304090 0.044857
v -0.611788 -0.304090 0.049430
v -0.654269 -0.304090 0.031834
v -0.667292 -0.304090 0.012344
v -0.671865 -0.304090 -0.010647
v -0.667292 -0.304090 -0.033638
v -0.569306 -0.304090 0.031834
v -0.634779 -0.304090 0.044857
v -0.640260 -0.336920 -0.079387
v -0.654269 -0.304090 -0.053129
v -0.543048 -0.336920 0.017825
v -0.571206 -0.280251 0.029935
v -0.589825 -0.280251 0.042376
v -0.611788 -0.280251 0.046744
v -0.652370 -0.280251 0.029935
v -0.669179 -0.280251 -0.010647
v -0.611788 -0.336920 -0.085050
v -0.583315 -0.336920 -0.079387
v -0.664811 -0.280251 -0.032610
v -0.652370 -0.280251 -0.051229
v -0.556283 -0.304090 0.012344
v -0.633751 -0.280251 0.042376
v -0.664811 -0.280251 0.011316
v -0.634779 -0.304090 -0.066152
v -0.537385 -0.336920 -0.010647
v -0.558765 -0.280251 0.011316
v -0.571206 0.079404 0.029935
v -0.589825 0.079404 0.042376
v -0.633751 0.079404 0.042376
v -0.664811 0.079404 0.011316
v -0.669179 0.079404 -0.010647
v -0.664811 0.079404 -0.032610
v -0.588797 -0.304090 -0.066152
v -0.611788 -0.304090 -0.070725
v -0.569306 -0.304090 -0.053129
v -0.652370 0.079404 -0.051229
v -0.633751 -0.280251 -0.063670
v -0.551710 -0.304090 -0.010647
v -0.611788 0.079404 0.046744
v -0.652370 0.079404 0.029935
v -0.543048 -0.336920 -0.039120
v -0.556283 -0.304090 -0.033638
v -0.558765 0.079404 0.011316
v -0.554396 -0.280251 -0.010647
v -0.589825 -0.280251 -0.063670
v -0.571206 -0.280251 -0.051229
v -0.611788 -0.280251 -0.068039
v -0.633751 0.079404 -0.063670
v -0.558765 -0.280251 -0.032610
v -0.554396 0.079404 -0.010647
v -0.558765 0.079404 -0.032610
v -0.611788 0.079404 -0.068039
v -0.589825 0.079404 -0.063670
v -0.571206 0.079404 -0.051229
v -0.675150 -0.355570 -0.044817
v -0.592657 -0.336920 0.063756
v -0.645268 -0.336920 0.041963
v -0.655794 -0.355570 -0.073784
v -0.667060 -0.336920 -0.010647
v -0.564184 -0.336920 0.058092
v -0.621130 -0.336920 0.058092
v -0.661397 -0.336920 0.017825
v -0.661397 -0.336920 -0.039120
v -0.645268 -0.336920 -0.063258
v -0.569666 -0.304090 0.044857
v -0.592657 -0.304090 0.049430
v -0.635139 -0.304090 0.031834
v -0.648162 -0.304090 0.012344
v -0.652735 -0.304090 -0.010647
v -0.648162 -0.304090 -0.033638
v -0.550176 -0.304090 0.031834
v -0.615648 -0.304090 0.044857
v -0.621130 -0.336920 -0.079387
v -0.635139 -0.304090 -0.053129
v -0.523918 -0.336920 0.017825
v -0.552075 -0.280251 0.029935
v -0.570694 -0.280251 0.042376
v -0.592657 -0.280251 0.046744
v -0.633239 -0.280251 0.029935
v -0.650049 -0.280251 -0.010647
v -0.592657 -0.336920 -0.085050
v -0.564184 -0.336920 -0.079387
v -0.645680 -0.280251 -0.032610
v -0.633239 -0.280251 -0.051229
v -0.537153 -0.304090 0.012344
v -0.614620 -0.280251 0.042376
v -0.645680 -0.280251 0.011316
v -0.615648 -0.304090 -0.066152
v -0.518254 -0.336920 -0.010647
v -0.539634 -0.280251 0.011316
v -0.552075 0.079404 0.029935
v -0.570694 0.079404 0.042376
v -0.614620 0.079404 0.042376
v -0.645680 0.079404 0.011316
v -0.650049 0.079404 -0.010647
v -0.645680 0.079404 -0.032610
v -0.569666 -0.304090 -0.066152
v -0.592657 -0.304090 -0.070725
v -0.550176 -0.304090 -0.053129
v -0.633239 0.079404 -0.051229
v -0.614620 -0.280251 -0.063670
v -0.532579 -0.304090 -0.010647
v -0.592657 0.079404 0.046744
v -0.633239 0.079404 0.029935
v -0.523918 -0.336920 -0.039120
v -0.537153 -0.304090 -0.033638
v -0.539634 0.079404 0.011316
v -0.535265 -0.280251 -0.010647
v -0.570694 -0.280251 -0.063670
v -0.552075 -0.280251 -0.051229
v -0.592657 -0.280251 -0.068039
v -0.614620 0.079404 -0.063670
v -0.539634 -0.280251 -0.032610
v -0.535265 0.079404 -0.010647
v -0.539634 0.079404 -0.032610
v -0.592657 0.079404 -0.068039
v -0.570694 0.079404 -0.063670
v -0.552075 0.079404 -0.051229
vn -0.980785 0.000000 0.195090
vn 0.980785 0.000000 -0.195090
vn -0.980785 0.000000 -0.195090
vn 0.980785 0.000000 0.195090
vn -0.831470 0.000000 0.555570
vn 0.831470 0.000000 -0.555570
vn -0.831470 0.000000 -0.555570
vn 0.831470 0.000000 0.555570
vn -0.555570 0.000000 0.831470
vn 0.555570 0.000000 -0.831470
vn 0.000000 0.516567 0.856247
vn 0.000000 -0.516567 -0.856247
vn -0.605458 0.516567 0.605458
vn 0.605458 -0.516567 -0.605458
vn -0.856247 0.516567 0.000000
vn 0.856247 -0.516567 0.000000
vn -0.555570 0.000000 -0.831470
vn 0.555570 0.000000 0.831470
vn -0.195090 0.000000 0.980785
vn 0.195090 0.000000 -0.980785
vn 0.327671 0.516567 0.791069
vn -0.327671 -0.516567 -0.791069
vn -0.327671 0.516567 0.791069
vn 0.327671 -0.516567 -0.791069
vn -0.791069 0.516567 0.327671
vn 0.791069 -0.516567 -0.327671
vn 0.000000 0.707675 -0.706538
vn 0.000000 -0.707675 0.706538
vn -0.791069 0.516567 -0.327671
vn 0.791069 -0.516567 0.327671
vn -0.605458 0.516567 -0.605458
vn 0.605458 -0.516567 0.605458
vn -0.195090 0.000000 -0.980785
vn 0.195090 0.000000 0.980785
vn 0.605458 0.516567 0.605458
vn -0.605458 -0.516567 -0.605458
vn 0.188672 0.254394 0.948518
vn -0.188672 -0.254394 -0.948518
vn -0.188672 0.254394 0.948518
vn 0.188672 -0.254394 -0.948518
vn -0.537292 0.254394 0.804115
vn 0.537292 -0.254394 -0.804115
vn -0.804115 0.254394 0.537292
vn 0.804115 -0.254394 -0.537292
vn -0.948518 0.254394 0.188672
vn 0.948518 -0.254394 -0.188672
vn -0.948518 0.254394 -0.188672
vn 0.948518 -0.254394 0.188672
vn 0.537292 0.254394 0.804115
vn -0.537292 -0.254394 -0.804115
vn -0.327671 0.516567 -0.791069
vn 0.327671 -0.516567 0.791069
vn -0.804115 0.254394 -0.537292
vn 0.804115 -0.254394 0.537292
vn 0.791069 0.516567 0.327671
vn 0.804115 0.254394 0.537292
vn -0.804115 -0.254394 -0.537292
vn -0.791069 -0.516567 -0.327671
vn 0.554729 0.055003 0.830211
vn -0.554729 -0.055003 -0.830211
vn 0.194795 0.055003 0.979301
vn -0.194795 -0.055003 -0.979301
vn -0.194795 0.055003 0.979301
vn 0.194795 -0.055003 -0.979301
vn -0.554729 0.055003 0.830211
vn 0.554729 -0.055003 -0.830211
vn -0.830211 0.055003 0.554729
vn 0.830211 -0.055003 -0.554729
vn -0.979301 0.055003 0.194795
vn 0.979301 -0.055003 -0.194795
vn 0.000000 0.516567 -0.856247
vn 0.000000 -0.516567 0.856247
vn 0.327671 0.516567 -0.791069
vn -0.327671 -0.516567 0.791069
vn -0.537292 0.254394 -0.804115
vn 0.537292 -0.254394 0.804115
vn -0.979301 0.055003 -0.194795
vn 0.979301 -0.055003 0.194795
vn -0.830211 0.055003 -0.554729
vn 0.830211 -0.055003 0.554729
vn 0.830211 0.055003 0.554729
vn -0.830211 -0.055003 -0.554729
vn -0.188672 0.254394 -0.948518
vn 0.188672 -0.254394 0.948518
vn -0.554729 0.055003 -0.830211
vn 0.554729 -0.055003 0.830211
vn 0.856247 0.516567 0.000000
vn 0.948518 0.254394 0.188672
vn -0.948518 -0.254394 -0.188672
vn -0.856247 -0.516567 0.000000
vn 0.188672 0.254394 -0.948518
vn -0.188672 -0.254394 0.948518
vn 0.537292 0.254394 -0.804115
vn -0.537292 -0.254394 0.804115
vn 0.979301 0.055003 0.194795
vn -0.979301 -0.055003 -0.194795
vn -0.194795 0.055003 -0.979301
vn 0.194795 -0.055003 0.979301
vn 0.804115 0.254394 -0.537292
vn 0.791069 0.516567 -0.327671
vn -0.791069 -0.516567 0.327671
vn -0.804115 -0.254394 0.537292
vn 0.948518 0.254394 -0.188672
vn -0.948518 -0.254394 0.188672
vn 0.194795 0.055003 -0.979301
vn -0.194795 -0.055003 0.979301
vn 0.554729 0.055003 -0.830211
vn -0.554729 -0.055003 0.830211
vn 0.979301 0.055003 -0.194795
vn -0.979301 -0.055003 0.194795
vn 0.830211 0.055003 -0.554729
vn -0.830211 -0.055003 0.554729
vn -0.980785 0.000000 0.195090
vn 0.980785 0.000000 -0.195090
vn -0.980785 0.000000 -0.195090
vn 0.980785 0.000000 0.195090
vn -0.831470 0.000000 0.555570
vn 0.831470 0.000000 -0.555570
vn -0.831470 0.000000 -0.555570
vn 0.831470 0.000000 0.555570
vn -0.555570 0.000000 0.831470
vn 0.555570 0.000000 -0.831470
vn -0.652756 0.707675 -0.270380
vn 0.652756 -0.707675 0.270380
vn 0.000000 0.516567 0.856247
vn 0.000000 -0.516567 -0.856247
vn -0.605458 0.516567 0.605458
vn 0.605458 -0.516567 -0.605458
vn -0.499598 0.707675 -0.499598
vn 0.499598 -0.707675 0.499598
vn -0.856247 0.516567 0.000000
vn 0.856247 -0.516567 0.000000
vn -0.555570 0.000000 -0.831470
vn 0.555570 0.000000 0.831470
vn -0.195090 0.000000 0.980785
vn 0.195090 0.000000 -0.980785
vn 0.327671 0.516567 0.791069
vn -0.327671 -0.516567 -0.791069
vn -0.327671 0.516567 0.791069
vn 0.327671 -0.516567 -0.791069
vn -0.791069 0.516567 0.327671
vn 0.791069 -0.516567 -0.327671
vn -0.791069 0.516567 -0.327671
vn 0.791069 -0.516567 0.327671
vn -0.605458 0.516567 -0.605458
vn 0.605458 -0.516567 0.605458
vn -0.195090 0.000000 -0.980785
vn 0.195090 0.000000 0.980785
vn 0.188672 0.254394 0.948518
vn -0.188672 -0.254394 -0.948518
vn -0.188672 0.254394 0.948518
vn 0.188672 -0.254394 -0.948518
vn -0.537292 0.254394 0.804115
vn 0.537292 -0.254394 -0.804115
vn -0.804115 0.254394 0.537292
vn 0.804115 -0.254394 -0.537292
vn -0.948518 0.254394 0.188672
vn 0.948518 -0.254394 -0.188672
vn -0.948518 0.254394 -0.188672
vn 0.948518 -0.254394 0.188672
vn 0.537292 0.254394 0.804115
vn -0.537292 -0.254394 -0.804115
vn -0.327671 0.516567 -0.791069
vn 0.327671 -0.516567 0.791069
vn -0.804115 0.254394 -0.537292
vn 0.804115 -0.254394 0.537292
vn 0.791069 0.516567 0.327671
vn 0.804115 0.254394 0.537292
vn -0.804115 -0.254394 -0.537292
vn -0.791069 -0.516567 -0.327671
vn 0.554729 0.055003 0.830211
vn -0.554729 -0.055003 -0.830211
vn 0.194795 0.055003 0.979301
vn -0.194795 -0.055003 -0.979301
vn -0.194795 0.055003 0.979301
vn 0.194795 -0.055003 -0.979301
vn -0.554729 0.055003 0.830211
vn 0.554729 -0.055003 -0.830211
vn -0.830211 0.055003 0.554729
vn 0.830211 -0.055003 -0.554729
vn -0.979301 0.055003 0.194795
vn 0.979301 -0.055003 -0.194795
vn 0.000000 0.516567 -0.856247
vn 0.000000 -0.516567 0.856247
vn 0.327671 0.516567 -0.791069
vn -0.327671 -0.516567 0.791069
vn -0.537292 0.254394 -0.804115
vn 0.537292 -0.254394 0.804115
vn -0.979301 0.055003 -0.194795
vn 0.979301 -0.055003 0.194795
vn -0.830211 0.055003 -0.554729
vn 0.830211 -0.055003 0.554729
vn 0.830211 0.055003 0.554729
vn -0.830211 -0.055003 -0.554729
vn -0.188672 0.254394 -0.948518
vn 0.188672 -0.254394 0.948518
vn -0.554729 0.055003 -0.830211
vn 0.554729 -0.055003 0.830211
vn 0.856247 0.516567 0.000000
vn 0.948518 0.254394 0.188672
vn -0.948518 -0.254394 -0.188672
vn -0.856247 -0.516567 0.000000
vn 0.188672 0.254394 -0.948518
vn -0.188672 -0.254394 0.948518
vn 0.537292 0.254394 -0.804115
vn -0.537292 -0.254394 0.804115
vn 0.979301 0.055003 0.194795
vn -0.979301 -0.055003 -0.194795
vn -0.194795 0.055003 -0.979301
vn 0.194795 -0.055003 0.979301
vn 0.804115 0.254394 -0.537292
vn 0.791069 0.516567 -0.327671
vn -0.791069 -0.516567 0.327671
vn -0.804115 -0.254394 0.537292
vn 0.948518 0.254394 -0.188672
vn -0.948518 -0.254394 0.188672
vn 0.194795 0.055003 -0.979301
vn -0.194795 -0.055003 0.979301
vn 0.554729 0.055003 -0.830211
vn -0.554729 -0.055003 0.830211
vn 0.979301 0.055003 -0.194795
vn -0.979301 -0.055003 0.194795
vn 0.830211 0.055003 -0.554729
vn -0.830211 -0.055003 0.554729
vt 0.598054 0.894288
vt 0.605670 0.874938
vt 0.585866 0.838891
vt 0.578226 0.778960
vt 0.594873 0.861759
vt 0.580021 0.809816
vt 0.610206 0.842499
vt 0.618924 0.853141
vt 0.602933 0.824034
vt 0.598213 0.800557
vt 0.596764 0.775642
vt 0.613173 0.817474
vt 0.620120 0.835114
vt 0.628449 0.845280
vt 0.607280 0.771246
vt 0.608664 0.795047
vt 0.756345 0.740714
vt 0.763293 0.758353
vt 0.751836 0.718287
vt 0.750452 0.694486
vt 0.771621 0.768519
vt 0.574287 0.851029
vt 0.567272 0.816137
vt 0.605670 0.874938
vt 0.585866 0.838891
vt 0.578226 0.778960
vt 0.594873 0.861759
vt 0.580021 0.809816
vt 0.610206 0.842499
vt 0.618924 0.853141
vt 0.602933 0.824034
vt 0.598213 0.800557
vt 0.596764 0.775642
vt 0.613173 0.817474
vt 0.620120 0.835114
vt 0.628449 0.845280
vt 0.607280 0.771246
vt 0.608664 0.795047
vt 0.756345 0.740714
vt 0.763293 0.758353
vt 0.751836 0.718287
vt 0.750452 0.694486
vt 0.771621 0.768519
usemtl material-0
f 4/5/21 11/7/37 1/2/11
f 1/2/12 11/7/38 4/5/22
f 1/2/11 12/8/39 5/5/23
f 5/5/24 12/8/40 1/2/12
f 2/3/13 5/5/23 13/9/41
f 13/9/42 5/5/24 2/3/14
f 6/6/25 2/3/13 14/10/43
f 14/10/44 2/3/14 6/6/26
f 3/4/15 6/6/25 15/11/45
f 15/11/46 6/6/26 3/4/16
f 8/6/29 3/4/15 16/10/47
f 16/10/48 3/4/16 8/6/30
f 11/7/49 4/5/21 17/9/49
f 17/9/50 4/5/22 11/7/50
f 12/8/37 1/2/11 11/7/37
f 11/7/38 1/2/12 12/8/38
f 18/7/39 5/5/23 12/8/39
f 12/8/40 5/5/24 18/7/40
f 18/7/41 13/9/41 5/5/23
f 5/5/24 13/9/42 18/7/42
f 13/9/43 14/10/43 2/3/13
f 2/3/14 14/10/44 13/9/44
f 14/10/45 15/11/45 6/6/25
f 6/6/26 15/11/46 14/10/46
f 9/3/31 8/6/29 20/9/53
f 20/9/54 8/6/30 9/3/32
f 15/11/47 16/10/47 3/4/15
f 3/4/16 16/10/48 15/11/48
f 16/10/53 20/9/53 8/6/29
f 8/6/30 20/9/54 16/10/54
f 10/3/35 21/6/55 17/9/56
f 17/9/57 21/6/58 10/3/36
f 17/9/49 22/12/59 11/7/49
f 11/7/50 22/12/60 17/9/50
f 11/7/37 23/13/61 12/8/37
f 12/8/38 23/13/62 11/7/38
f 12/8/39 24/14/63 18/7/39
f 18/7/40 24/14/64 12/8/40
f 13/9/41 18/7/41 25/12/65
f 25/12/66 18/7/42 13/9/42
f 13/9/43 25/12/67 14/10/43
f 14/10/44 25/12/68 13/9/44
f 15/11/45 14/10/45 26/15/69
f 26/15/70 14/10/46 15/11/46
f 27/2/71 7/1/27 19/5/51
f 19/5/52 7/1/28 27/2/72
f 9/3/31 20/9/75 19/5/51
f 19/5/52 20/9/76 9/3/32
f 16/10/47 15/11/47 29/16/77
f 29/16/78 15/11/48 16/10/48
f 20/9/53 16/10/53 30/12/79
f 30/12/80 16/10/54 20/9/54
f 31/10/56 17/9/56 21/6/55
f 21/6/58 17/9/57 31/10/57
f 17/9/56 31/10/56 22/12/81
f 22/12/82 31/10/57 17/9/57
f 23/13/59 11/7/49 22/12/59
f 22/12/60 11/7/50 23/13/60
f 24/14/61 12/8/37 23/13/61
f 23/13/62 12/8/38 24/14/62
f 32/13/63 18/7/39 24/14/63
f 24/14/64 18/7/40 32/13/64
f 32/13/65 25/12/65 18/7/41
f 18/7/42 25/12/66 32/13/66
f 33/16/67 14/10/43 25/12/67
f 25/12/68 14/10/44 33/16/68
f 33/16/69 26/15/69 14/10/45
f 14/10/46 26/15/70 33/16/70
f 26/15/77 29/16/77 15/11/47
f 15/11/48 29/16/78 26/15/78
f 19/5/51 34/7/83 27/2/71
f 27/2/72 34/7/84 19/5/52
f 34/7/75 19/5/51 20/9/75
f 20/9/76 19/5/52 34/7/76
f 29/16/79 30/12/79 16/10/53
f 16/10/54 30/12/80 29/16/80
f 20/9/75 30/12/85 34/7/75
f 34/7/76 30/12/86 20/9/76
f 21/6/55 35/4/87 31/10/88
f 31/10/89 35/4/90 21/6/58
f 36/16/81 22/12/81 31/10/56
f 31/10/57 22/12/82 36/16/82
f 22/12/59 37/17/18 23/13/59
f 23/13/60 37/17/17 22/12/60
f 23/13/61 38/18/34 24/14/61
f 24/14/62 38/18/33 23/13/62
f 32/13/63 24/14/63 39/18/19
f 39/18/20 24/14/64 32/13/64
f 32/13/65 39/18/9 25/12/65
f 25/12/66 39/18/10 32/13/66
f 33/16/67 25/12/67 40/19/5
f 40/19/6 25/12/68 33/16/68
f 26/15/69 33/16/69 41/20/1
f 41/20/2 33/16/70 26/15/70
f 29/16/77 26/15/77 42/19/3
f 42/19/4 26/15/78 29/16/78
f 28/5/73 27/2/71 43/7/91
f 43/7/92 27/2/72 28/5/74
f 44/8/83 27/2/71 34/7/83
f 34/7/84 27/2/72 44/8/84
f 30/12/79 29/16/79 46/17/7
f 46/17/8 29/16/80 30/12/80
f 47/13/85 34/7/75 30/12/85
f 30/12/86 34/7/76 47/13/86
f 48/11/88 31/10/88 35/4/87
f 35/4/90 31/10/89 48/11/89
f 22/12/81 36/16/81 37/17/8
f 37/17/7 36/16/82 22/12/82
f 31/10/88 48/11/88 36/16/95
f 36/16/96 48/11/89 31/10/89
f 38/18/18 23/13/59 37/17/18
f 37/17/17 23/13/60 38/18/17
f 49/21/34 24/14/61 38/18/34
f 38/18/33 24/14/62 49/21/33
f 49/21/19 39/18/19 24/14/63
f 24/14/64 39/18/20 49/21/20
f 50/17/9 25/12/65 39/18/9
f 39/18/10 25/12/66 50/17/10
f 50/17/5 40/19/5 25/12/67
f 25/12/68 40/19/6 50/17/6
f 40/19/1 41/20/1 33/16/69
f 33/16/70 41/20/2 40/19/2
f 41/20/3 42/19/3 26/15/77
f 26/15/78 42/19/4 41/20/4
f 42/19/7 46/17/7 29/16/79
f 29/16/80 46/17/8 42/19/8
f 44/8/91 43/7/91 27/2/71
f 27/2/72 43/7/92 44/8/92
f 43/7/93 45/9/93 28/5/73
f 28/5/74 45/9/94 43/7/94
f 34/7/83 47/13/97 44/8/83
f 44/8/84 47/13/98 34/7/84
f 30/12/85 46/17/17 47/13/85
f 47/13/86 46/17/18 30/12/86
f 48/11/103 35/4/87 52/10/103
f 52/10/104 35/4/90 48/11/104
f 53/19/8 37/17/8 36/16/81
f 36/16/82 37/17/7 53/19/7
f 54/15/95 36/16/95 48/11/88
f 48/11/89 36/16/96 54/15/96
f 43/7/91 44/8/91 55/13/105
f 55/13/106 44/8/92 43/7/92
f 45/9/93 43/7/93 56/12/107
f 56/12/108 43/7/94 45/9/94
f 57/14/97 44/8/83 47/13/97
f 47/13/98 44/8/84 57/14/98
f 52/10/99 51/6/100 45/9/99
f 45/9/102 51/6/101 52/10/102
f 58/18/17 47/13/85 46/17/17
f 46/17/18 47/13/86 58/18/18
f 52/10/103 59/16/109 48/11/103
f 48/11/104 59/16/110 52/10/104
f 36/16/95 54/15/95 53/19/4
f 53/19/3 54/15/96 36/16/96
f 54/15/109 48/11/103 59/16/109
f 59/16/110 48/11/104 54/15/110
f 57/14/105 55/13/105 44/8/91
f 44/8/92 55/13/106 57/14/106
f 55/13/107 56/12/107 43/7/93
f 43/7/94 56/12/108 55/13/108
f 45/9/99 56/12/111 52/10/99
f 52/10/102 56/12/112 45/9/102
f 47/13/97 58/18/33 57/14/97
f 57/14/98 58/18/34 47/13/98
f 59/16/111 52/10/99 56/12/111
f 56/12/112 52/10/102 59/16/112
f 60/20/4 53/19/4 54/15/95
f 54/15/96 53/19/3 60/20/3
f 59/16/109 61/19/2 54/15/109
f 54/15/110 61/19/1 59/16/110
f 57/14/105 62/21/20 55/13/105
f 55/13/106 62/21/19 57/14/106
f 55/13/107 63/18/10 56/12/107
f 56/12/108 63/18/9 55/13/108
f 62/21/33 57/14/97 58/18/33
f 58/18/34 57/14/98 62/21/34
f 59/16/111 56/12/111 61/19/6
f 61/19/5 56/12/112 59/16/112
f 60/20/2 54/15/109 61/19/2
f 61/19/1 54/15/110 60/20/1
f 63/18/20 55/13/105 62/21/20
f 62/21/19 55/13/106 63/18/19
f 64/17/10 56/12/107 63/18/10
f 63/18/9 56/12/108 64/17/9
f 64/17/6 61/19/6 56/12/111
f 56/12/112 61/19/5 64/17/5
usemtl material-2
f 68/22/129 65/23/123 74/25/145
f 74/25/146 65/23/124 68/22/130
f 66/24/125 76/30/151 71/27/139
f 71/27/140 76/30/152 66/24/126
f 67/25/127 71/27/139 77/31/153
f 77/31/154 71/27/140 67/25/128
f 72/28/141 67/25/127 78/32/155
f 78/32/156 67/25/128 72/28/142
f 69/26/131 72/28/141 79/33/157
f 79/33/158 72/28/142 69/26/132
f 73/28/143 69/26/131 80/32/159
f 80/32/160 69/26/132 73/28/144
f 75/29/161 70/27/137 81/31/161
f 81/31/162 70/27/138 75/29/162
f 76/30/149 66/24/125 75/29/149
f 75/29/150 66/24/126 76/30/150
f 82/29/151 71/27/139 76/30/151
f 76/30/152 71/27/140 82/29/152
f 82/29/153 77/31/153 71/27/139
f 71/27/140 77/31/154 82/29/154
f 77/31/155 78/32/155 67/25/127
f 67/25/128 78/32/156 77/31/156
f 78/32/157 79/33/157 72/28/141
f 72/28/142 79/33/158 78/32/158
f 74/25/145 73/28/143 84/31/165
f 84/31/166 73/28/144 74/25/146
f 79/33/159 80/32/159 69/26/131
f 69/26/132 80/32/160 79/33/160
f 80/32/165 84/31/165 73/28/143
f 73/28/144 84/31/166 80/32/166
f 81/31/161 86/34/171 75/29/161
f 75/29/162 86/34/172 81/31/162
f 75/29/149 87/35/173 76/30/149
f 76/30/150 87/35/174 75/29/150
f 76/30/151 88/36/175 82/29/151
f 82/29/152 88/36/176 76/30/152
f 77/31/153 82/29/153 89/34/177
f 89/34/178 82/29/154 77/31/154
f 77/31/155 89/34/179 78/32/155
f 78/32/156 89/34/180 77/31/156
f 79/33/157 78/32/157 90/37/181
f 90/37/182 78/32/158 79/33/158
f 74/25/145 84/31/187 83/27/163
f 83/27/164 84/31/188 74/25/146
f 80/32/159 79/33/159 93/38/189
f 93/38/190 79/33/160 80/32/160
f 84/31/165 80/32/165 94/34/191
f 94/34/192 80/32/166 84/31/166
f 95/32/168 81/31/168 85/28/167
f 85/28/170 81/31/169 95/32/169
f 81/31/168 95/32/168 86/34/193
f 86/34/194 95/32/169 81/31/169
f 87/35/171 75/29/161 86/34/171
f 86/34/172 75/29/162 87/35/172
f 88/36/173 76/30/149 87/35/173
f 87/35/174 76/30/150 88/36/174
f 96/35/175 82/29/151 88/36/175
f 88/36/176 82/29/152 96/35/176
f 96/35/177 89/34/177 82/29/153
f 82/29/154 89/34/178 96/35/178
f 97/38/179 78/32/155 89/34/179
f 89/34/180 78/32/156 97/38/180
f 97/38/181 90/37/181 78/32/157
f 78/32/158 90/37/182 97/38/182
f 90/37/189 93/38/189 79/33/159
f 79/33/160 93/38/190 90/37/190
f 83/27/163 98/29/195 91/24/183
f 91/24/184 98/29/196 83/27/164
f 98/29/187 83/27/163 84/31/187
f 84/31/188 83/27/164 98/29/188
f 93/38/191 94/34/191 80/32/165
f 80/32/166 94/34/192 93/38/192
f 84/31/187 94/34/197 98/29/187
f 98/29/188 94/34/198 84/31/188
f 100/38/193 86/34/193 95/32/168
f 95/32/169 86/34/194 100/38/194
f 86/34/171 101/39/134 87/35/171
f 87/35/172 101/39/133 86/34/172
f 87/35/173 102/40/148 88/36/173
f 88/36/174 102/40/147 87/35/174
f 96/35/175 88/36/175 103/40/135
f 103/40/136 88/36/176 96/35/176
f 96/35/177 103/40/121 89/34/177
f 89/34/178 103/40/122 96/35/178
f 97/38/179 89/34/179 104/41/117
f 104/41/118 89/34/180 97/38/180
f 90/37/181 97/38/181 105/42/113
f 105/42/114 97/38/182 90/37/182
f 93/38/189 90/37/189 106/41/115
f 106/41/116 90/37/190 93/38/190
f 108/30/195 91/24/183 98/29/195
f 98/29/196 91/24/184 108/30/196
f 94/34/191 93/38/191 110/39/119
f 110/39/120 93/38/192 94/34/192
f 111/35/197 98/29/187 94/34/197
f 94/34/198 98/29/188 111/35/198
f 112/33/200 95/32/200 99/26/199
f 99/26/202 95/32/201 112/33/201
f 86/34/193 100/38/193 101/39/120
f 101/39/119 100/38/194 86/34/194
f 95/32/200 112/33/200 100/38/207
f 100/38/208 112/33/201 95/32/201
f 102/40/134 87/35/171 101/39/134
f 101/39/133 87/35/172 102/40/133
f 113/43/148 88/36/173 102/40/148
f 102/40/147 88/36/174 113/43/147
f 113/43/135 103/40/135 88/36/175
f 88/36/176 103/40/136 113/43/136
f 114/39/121 89/34/177 103/40/121
f 103/40/122 89/34/178 114/39/122
f 114/39/117 104/41/117 89/34/179
f 89/34/180 104/41/118 114/39/118
f 104/41/113 105/42/113 97/38/181
f 97/38/182 105/42/114 104/41/114
f 105/42/115 106/41/115 90/37/189
f 90/37/190 106/41/116 105/42/116
f 106/41/119 110/39/119 93/38/191
f 93/38/192 110/39/120 106/41/120
f 108/30/203 107/29/203 91/24/183
f 91/24/184 107/29/204 108/30/204
f 107/29/205 109/31/205 92/27/185
f 92/27/186 109/31/206 107/29/206
f 98/29/195 111/35/209 108/30/195
f 108/30/196 111/35/210 98/29/196
f 94/34/197 110/39/133 111/35/197
f 111/35/198 110/39/134 94/34/198
f 112/33/215 99/26/199 116/32/215
f 116/32/216 99/26/202 112/33/216
f 117/41/120 101/39/120 100/38/193
f 100/38/194 101/39/119 117/41/119
f 118/37/207 100/38/207 112/33/200
f 112/33/201 100/38/208 118/37/208
f 107/29/203 108/30/203 119/35/217
f 119/35/218 108/30/204 107/29/204
f 109/31/205 107/29/205 120/34/219
f 120/34/220 107/29/206 109/31/206
f 121/36/209 108/30/195 111/35/209
f 111/35/210 108/30/196 121/36/210
f 116/32/211 115/28/212 109/31/211
f 109/31/214 115/28/213 116/32/214
f 122/40/133 111/35/197 110/39/133
f 110/39/134 111/35/198 122/40/134
f 116/32/215 123/38/221 112/33/215
f 112/33/216 123/38/222 116/32/216
f 100/38/207 118/37/207 117/41/116
f 117/41/115 118/37/208 100/38/208
f 118/37/221 112/33/215 123/38/221
f 123/38/222 112/33/216 118/37/222
f 121/36/217 119/35/217 108/30/203
f 108/30/204 119/35/218 121/36/218
f 119/35/219 120/34/219 107/29/205
f 107/29/206 120/34/220 119/35/220
f 109/31/211 120/34/223 116/32/211
f 116/32/214 120/34/224 109/31/214
f 111/35/209 122/40/147 121/36/209
f 121/36/210 122/40/148 111/35/210
f 123/38/223 116/32/211 120/34/223
f 120/34/224 116/32/214 123/38/224
f 124/42/116 117/41/116 118/37/207
f 118/37/208 117/41/115 124/42/115
f 123/38/221 125/41/114 118/37/221
f 118/37/222 125/41/113 123/38/222
f 121/36/217 126/43/136 119/35/217
f 119/35/218 126/43/135 121/36/218
f 119/35/219 127/40/122 120/34/219
f 120/34/220 127/40/121 119/35/220
f 126/43/147 121/36/209 122/40/147
f 122/40/148 121/36/210 126/43/148
f 123/38/223 120/34/223 125/41/118
f 125/41/117 120/34/224 123/38/224
f 124/42/114 118/37/221 125/41/114
f 125/41/113 118/37/222 124/42/113
f 127/40/136 119/35/217 126/43/136
f 126/43/135 119/35/218 127/40/135
f 128/39/122 120/34/219 127/40/122
f 127/40/121 120/34/220 128/39/121
f 128/39/118 125/41/118 120/34/223
f 120/34/224 125/41/117 128/39/117